<?xml version="1.0" encoding="UTF-8"?><svg xmlns="http://www.w3.org/2000/svg" xmlns:xlink="http://www.w3.org/1999/xlink" fill-opacity="1" color-rendering="auto" color-interpolation="auto" text-rendering="auto" stroke="black" stroke-linecap="square" width="374" stroke-miterlimit="10" shape-rendering="auto" stroke-opacity="1" fill="black" stroke-dasharray="none" font-weight="normal" stroke-width="1" height="346" font-family="'Dialog'" font-style="normal" stroke-linejoin="miter" font-size="12px" stroke-dashoffset="0" image-rendering="auto">
  <!--Generated by ySVG 2.6-->
  <defs id="genericDefs"/>
  <g>
    <defs id="defs1">
      <clipPath clipPathUnits="userSpaceOnUse" id="clipPath1">
        <path d="M0 0 L374 0 L374 346 L0 346 L0 0 Z"/>
      </clipPath>
      <clipPath clipPathUnits="userSpaceOnUse" id="clipPath2">
        <path d="M820 274 L1194 274 L1194 620 L820 620 L820 274 Z"/>
      </clipPath>
    </defs>
    <g fill="white" text-rendering="geometricPrecision" shape-rendering="geometricPrecision" transform="translate(-820,-274)" stroke="white">
      <rect x="820" width="374" height="346" y="274" clip-path="url(#clipPath2)" stroke="none"/>
    </g>
    <g text-rendering="geometricPrecision" stroke-miterlimit="1.45" shape-rendering="geometricPrecision" transform="matrix(1,0,0,1,-820,-274)" stroke-linecap="butt">
      <circle fill="none" r="15" clip-path="url(#clipPath2)" cx="872" cy="304"/>
      <circle fill="none" r="15" clip-path="url(#clipPath2)" cx="1164" cy="435"/>
      <circle fill="none" r="15" clip-path="url(#clipPath2)" cx="850" cy="590"/>
      <circle fill="none" r="15" clip-path="url(#clipPath2)" cx="938" cy="444"/>
      <path fill="none" d="M1156.5107 422.0034 L1151.6735 413.6089 L1138.5573 393.9783 L1124.6511 376.1082 L1109.9553 359.9985 L1094.4696 345.6494 L1078.1941 333.0607 L1061.1288 322.2325 L1043.2737 313.1647 L1024.6288 305.8575 L1005.1941 300.3107 L984.9695 296.5244 L963.9553 294.4985 L942.1511 294.2332 L919.5573 295.7283 L896.1735 298.9839 L886.6871 300.9524" clip-path="url(#clipPath2)"/>
      <path fill="none" d="M1157.0648 448.3005 L1151.4623 459.045 L1137.9796 481.1756 L1123.552 501.3919 L1108.1793 519.6939 L1091.8618 536.0815 L1074.5992 550.5549 L1056.3916 563.1139 L1037.2391 573.7585 L1017.1417 582.4889 L996.0992 589.3049 L974.1118 594.2065 L951.1793 597.1939 L927.302 598.2669 L902.4796 597.4256 L876.7123 594.67 L864.7759 592.5832" clip-path="url(#clipPath2)"/>
      <path fill="none" d="M885.7482 309.9989 L895.5625 314.2812 L905.7031 320.1953 L914.75 326.625 L922.7031 333.5703 L929.5625 341.0312 L935.3281 349.0078 L940 357.5 L943.5781 366.5078 L946.0625 376.0312 L947.4531 386.0703 L947.75 396.625 L946.9531 407.6953 L945.0625 419.2812 L942.1208 429.5771" clip-path="url(#clipPath2)"/>
      <path fill="none" d="M846.8892 575.3205 L845.0312 562.125 L844.2578 549.2188 L844.625 537 L846.1328 525.4688 L848.7812 514.625 L852.5703 504.4688 L857.5 495 L863.5703 486.2188 L870.7812 478.125 L879.1328 470.7188 L888.625 464 L899.2578 457.9688 L911.0312 452.625 L923.567 448.1052" clip-path="url(#clipPath2)"/>
      <path fill="none" d="M924.2518 438.0011 L914.4375 433.7188 L904.2969 427.8047 L895.25 421.375 L887.2969 414.4297 L880.4375 406.9688 L874.6719 398.9922 L870 390.5 L866.4219 381.4922 L863.9375 371.9688 L862.5469 361.9297 L862.25 351.375 L863.0469 340.3047 L864.9375 328.7188 L867.8792 318.4229" clip-path="url(#clipPath2)"/>
      <path fill="none" d="M941.1108 458.6795 L942.9688 471.875 L943.7422 484.7812 L943.375 497 L941.8672 508.5312 L939.2188 519.375 L935.4297 529.5312 L930.5 539 L924.4297 547.7812 L917.2188 555.875 L908.8672 563.2812 L899.375 570 L888.7422 576.0312 L876.9688 581.375 L864.433 585.8948" clip-path="url(#clipPath2)"/>
      <path fill="none" d="M952.9881 443.4031 L1149.0118 435.5969" clip-path="url(#clipPath2)"/>
    </g>
  </g>
</svg>
