<?xml version="1.0" encoding="UTF-8"?><svg xmlns="http://www.w3.org/2000/svg" xmlns:xlink="http://www.w3.org/1999/xlink" fill-opacity="1" color-rendering="auto" color-interpolation="auto" text-rendering="auto" stroke="black" stroke-linecap="square" width="386" stroke-miterlimit="10" shape-rendering="auto" stroke-opacity="1" fill="black" stroke-dasharray="none" font-weight="normal" stroke-width="1" height="364" font-family="'Dialog'" font-style="normal" stroke-linejoin="miter" font-size="12px" stroke-dashoffset="0" image-rendering="auto">
  <!--Generated by ySVG 2.6-->
  <defs id="genericDefs"/>
  <g>
    <defs id="defs1">
      <clipPath clipPathUnits="userSpaceOnUse" id="clipPath1">
        <path d="M0 0 L386 0 L386 364 L0 364 L0 0 Z"/>
      </clipPath>
      <clipPath clipPathUnits="userSpaceOnUse" id="clipPath2">
        <path d="M415 403 L608 403 L608 585 L415 585 L415 403 Z"/>
      </clipPath>
    </defs>
    <g fill="white" text-rendering="geometricPrecision" shape-rendering="geometricPrecision" transform="scale(2,2) translate(-415,-403)" stroke="white">
      <rect x="415" width="193" height="182" y="403" clip-path="url(#clipPath2)" stroke="none"/>
    </g>
    <g text-rendering="geometricPrecision" stroke-miterlimit="1.45" shape-rendering="geometricPrecision" transform="matrix(2,0,0,2,-830,-806)" stroke-linecap="butt">
      <circle fill="none" r="15" clip-path="url(#clipPath2)" cx="438" cy="445"/>
      <text x="429.3311" xml:space="preserve" y="449.7139" clip-path="url(#clipPath2)" font-family="sans-serif" stroke="none">GA</text>
      <circle fill="none" r="15" clip-path="url(#clipPath2)" cx="524.352" cy="426.904"/>
      <text x="515.683" xml:space="preserve" y="431.6179" clip-path="url(#clipPath2)" font-family="sans-serif" stroke="none">AG</text>
      <circle fill="none" r="15" clip-path="url(#clipPath2)" cx="584.352" cy="471.36"/>
      <text x="575.352" xml:space="preserve" y="476.0739" clip-path="url(#clipPath2)" font-family="sans-serif" stroke="none">GC</text>
      <circle fill="none" r="15" clip-path="url(#clipPath2)" cx="557.48" cy="531.36"/>
      <text x="549.4819" xml:space="preserve" y="536.0739" clip-path="url(#clipPath2)" font-family="sans-serif" stroke="none">CT</text>
      <circle fill="none" r="15" clip-path="url(#clipPath2)" cx="497.48" cy="561.36"/>
      <text x="490.1499" xml:space="preserve" y="566.0739" clip-path="url(#clipPath2)" font-family="sans-serif" stroke="none">TT</text>
      <path fill="none" d="M452.6811 441.9234 L501.841 431.6214" clip-path="url(#clipPath2)"/>
      <path d="M509.6709 429.9806 L496.9005 427.5482 L500.8622 431.8265 L498.9515 437.3355 Z" clip-path="url(#clipPath2)" stroke="none"/>
      <path fill="none" d="M536.4042 435.8339 L565.8719 457.6675" clip-path="url(#clipPath2)"/>
      <path d="M572.2997 462.4301 L565.6346 451.2687 L565.0684 457.0721 L559.6813 459.3036 Z" clip-path="url(#clipPath2)" stroke="none"/>
      <path fill="none" d="M578.2208 485.0497 L566.8811 510.3691" clip-path="url(#clipPath2)"/>
      <path d="M563.6111 517.6703 L573.0793 508.7622 L567.2899 509.4565 L563.9528 504.6748 Z" clip-path="url(#clipPath2)" stroke="none"/>
      <path fill="none" d="M544.0636 538.0682 L518.0518 551.0741" clip-path="url(#clipPath2)"/>
      <path d="M510.8964 554.6518 L523.8656 553.7574 L518.9462 550.6269 L519.3935 544.8131 Z" clip-path="url(#clipPath2)" stroke="none"/>
      <path fill="none" d="M504.4807 548.1343 L504.4539 547.2308 L503.8263 544.5005 L502.632 541.872 L500.9371 539.5347 L498.8737 537.6398 L496.5203 536.2079 L493.955 535.2599 L491.2564 534.8164 L488.5028 534.8981 L485.7726 535.5257 L483.144 536.72 L480.8067 538.4149 L478.9118 540.4783 L477.48 542.8318 L476.5319 545.397 L476.0884 548.0956 L476.1701 550.8492 L476.7977 553.5795 L477.354 554.8038 L477.4234 554.8758" clip-path="url(#clipPath2)"/>
      <path d="M482.5869 560.9863 L478.6606 548.5934 L476.7779 554.112 L471.0226 555.0478 Z" clip-path="url(#clipPath2)" stroke="none"/>
    </g>
  </g>
</svg>
