<?xml version="1.0" encoding="UTF-8"?><svg xmlns="http://www.w3.org/2000/svg" xmlns:xlink="http://www.w3.org/1999/xlink" fill-opacity="1" color-rendering="auto" color-interpolation="auto" text-rendering="auto" stroke="black" stroke-linecap="square" width="386" stroke-miterlimit="10" shape-rendering="auto" stroke-opacity="1" fill="black" stroke-dasharray="none" font-weight="normal" stroke-width="1" height="184" font-family="'Dialog'" font-style="normal" stroke-linejoin="miter" font-size="12px" stroke-dashoffset="0" image-rendering="auto">
  <!--Generated by ySVG 2.6-->
  <defs id="genericDefs"/>
  <g>
    <defs id="defs1">
      <clipPath clipPathUnits="userSpaceOnUse" id="clipPath1">
        <path d="M0 0 L386 0 L386 184 L0 184 L0 0 Z"/>
      </clipPath>
      <clipPath clipPathUnits="userSpaceOnUse" id="clipPath2">
        <path d="M415 403 L608 403 L608 495 L415 495 L415 403 Z"/>
      </clipPath>
    </defs>
    <g fill="white" text-rendering="geometricPrecision" shape-rendering="geometricPrecision" transform="scale(2,2) translate(-415,-403)" stroke="white">
      <rect x="415" width="193" height="92" y="403" clip-path="url(#clipPath2)" stroke="none"/>
    </g>
    <g text-rendering="geometricPrecision" stroke-miterlimit="1.45" shape-rendering="geometricPrecision" transform="matrix(2,0,0,2,-830,-806)" stroke-linecap="butt">
      <circle fill="none" r="15" clip-path="url(#clipPath2)" cx="438" cy="445"/>
      <text x="429.3311" xml:space="preserve" y="449.7139" clip-path="url(#clipPath2)" font-family="sans-serif" stroke="none">GA</text>
      <circle fill="none" r="15" clip-path="url(#clipPath2)" cx="524.352" cy="426.904"/>
      <text x="515.683" xml:space="preserve" y="431.6179" clip-path="url(#clipPath2)" font-family="sans-serif" stroke="none">AG</text>
      <circle fill="none" r="15" clip-path="url(#clipPath2)" cx="584.352" cy="471.36"/>
      <text x="575.352" xml:space="preserve" y="476.0739" clip-path="url(#clipPath2)" font-family="sans-serif" stroke="none">GC</text>
      <path fill="none" d="M452.6811 441.9234 L501.841 431.6214" clip-path="url(#clipPath2)"/>
      <path d="M509.6709 429.9806 L496.9005 427.5482 L500.8622 431.8265 L498.9515 437.3355 Z" clip-path="url(#clipPath2)" stroke="none"/>
      <path fill="none" d="M536.4042 435.8339 L565.8719 457.6675" clip-path="url(#clipPath2)"/>
      <path d="M572.2997 462.4301 L565.6346 451.2687 L565.0684 457.0721 L559.6813 459.3036 Z" clip-path="url(#clipPath2)" stroke="none"/>
    </g>
  </g>
</svg>
