<?xml version="1.0" encoding="UTF-8"?><svg xmlns="http://www.w3.org/2000/svg" xmlns:xlink="http://www.w3.org/1999/xlink" fill-opacity="1" color-rendering="auto" color-interpolation="auto" text-rendering="auto" stroke="black" stroke-linecap="square" width="352" stroke-miterlimit="10" shape-rendering="auto" stroke-opacity="1" fill="black" stroke-dasharray="none" font-weight="normal" stroke-width="1" height="330" font-family="'Dialog'" font-style="normal" stroke-linejoin="miter" font-size="12px" stroke-dashoffset="0" image-rendering="auto">
  <!--Generated by ySVG 2.6-->
  <defs id="genericDefs"/>
  <g>
    <defs id="defs1">
      <clipPath clipPathUnits="userSpaceOnUse" id="clipPath1">
        <path d="M0 0 L352 0 L352 330 L0 330 L0 0 Z"/>
      </clipPath>
      <clipPath clipPathUnits="userSpaceOnUse" id="clipPath2">
        <path d="M842 274 L1194 274 L1194 604 L842 604 L842 274 Z"/>
      </clipPath>
    </defs>
    <g fill="white" text-rendering="geometricPrecision" shape-rendering="geometricPrecision" transform="translate(-842,-274)" stroke="white">
      <rect x="842" width="352" height="330" y="274" clip-path="url(#clipPath2)" stroke="none"/>
    </g>
    <g transform="matrix(1,0,0,1,-842,-274)" fill-opacity="0.4941" fill="rgb(255,0,0)" text-rendering="geometricPrecision" shape-rendering="geometricPrecision" stroke="rgb(255,0,0)" stroke-opacity="0.4941">
      <circle r="15" clip-path="url(#clipPath2)" cx="872" cy="304" stroke="none"/>
      <circle stroke-linecap="butt" clip-path="url(#clipPath2)" fill="none" r="15" cx="872" cy="304" stroke-miterlimit="1.45"/>
      <circle fill="rgb(0,0,255)" r="15" clip-path="url(#clipPath2)" cx="1164" cy="435" stroke="none"/>
    </g>
    <g stroke-linecap="butt" transform="matrix(1,0,0,1,-842,-274)" fill-opacity="0.4941" fill="rgb(0,0,255)" text-rendering="geometricPrecision" shape-rendering="geometricPrecision" stroke="rgb(0,0,255)" stroke-opacity="0.4941" stroke-miterlimit="1.45">
      <circle fill="none" r="15" clip-path="url(#clipPath2)" cx="1164" cy="435"/>
    </g>
    <g transform="matrix(1,0,0,1,-842,-274)" fill-opacity="0.4941" fill="rgb(128,0,128)" text-rendering="geometricPrecision" shape-rendering="geometricPrecision" stroke="rgb(128,0,128)" stroke-opacity="0.4941">
      <circle r="15" clip-path="url(#clipPath2)" cx="872" cy="573.7585" stroke="none"/>
      <circle stroke-linecap="butt" clip-path="url(#clipPath2)" fill="none" r="15" cx="872" cy="573.7585" stroke-miterlimit="1.45"/>
      <circle fill="rgb(0,255,0)" r="15" clip-path="url(#clipPath2)" cx="1019" cy="435" stroke="none"/>
    </g>
    <g stroke-linecap="butt" transform="matrix(1,0,0,1,-842,-274)" fill-opacity="0.4941" fill="rgb(0,255,0)" text-rendering="geometricPrecision" shape-rendering="geometricPrecision" stroke="rgb(0,255,0)" stroke-opacity="0.4941" stroke-miterlimit="1.45">
      <circle fill="none" r="15" clip-path="url(#clipPath2)" cx="1019" cy="435"/>
    </g>
    <g text-rendering="geometricPrecision" stroke-miterlimit="1.45" shape-rendering="geometricPrecision" transform="matrix(1,0,0,1,-842,-274)" stroke-linecap="butt">
      <path fill="none" d="M1156.5107 422.0034 L1151.6735 413.6089 L1138.5573 393.9783 L1124.6511 376.1082 L1109.9553 359.9985 L1094.4696 345.6494 L1078.1941 333.0607 L1061.1288 322.2325 L1043.2737 313.1647 L1024.6288 305.8575 L1005.1941 300.3107 L984.9695 296.5244 L963.9553 294.4985 L942.1511 294.2332 L919.5573 295.7283 L896.1735 298.9839 L886.6871 300.9524" clip-path="url(#clipPath2)"/>
      <path fill="none" d="M1156.8669 448.1955 L1152.0946 457.024 L1139.3434 477.2677 L1125.7461 495.7312 L1111.303 512.4146 L1096.0138 527.3177 L1079.8787 540.4406 L1062.8976 551.7833 L1045.0706 561.3458 L1026.3976 569.1281 L1006.8787 575.1302 L986.5137 579.3521 L965.3029 581.7938 L943.2461 582.4553 L920.3434 581.3366 L896.5947 578.4377 L886.7357 576.562" clip-path="url(#clipPath2)"/>
      <path fill="none" d="M886.9952 303.6214 L888.8633 303.5742 L904.7031 304.2969 L919.5195 306.168 L933.3125 309.1875 L946.082 313.3555 L957.8281 318.6719 L968.5508 325.1367 L978.25 332.75 L986.9258 341.5117 L994.5781 351.4219 L1001.207 362.4805 L1006.8125 374.6875 L1011.3945 388.043 L1014.9531 402.5469 L1017.4883 418.1992 L1017.6558 420.0604" clip-path="url(#clipPath2)"/>
      <path fill="none" d="M872.9156 558.7865 L873.0571 556.4728 L875.1983 540.3356 L878.4235 525.3468 L882.7328 511.5064 L888.1261 498.8145 L894.6035 487.271 L902.1649 476.8759 L910.8104 467.6293 L920.5399 459.5311 L931.3535 452.5813 L943.2511 446.78 L956.2328 442.1271 L970.2985 438.6227 L985.4483 436.2667 L1001.6821 435.0591 L1004.0001 435.0512" clip-path="url(#clipPath2)"/>
      <path fill="none" d="M1004.0048 435.3786 L1002.1367 435.4258 L986.2969 434.7031 L971.4805 432.832 L957.6875 429.8125 L944.918 425.6445 L933.1719 420.3281 L922.4492 413.8633 L912.75 406.25 L904.0742 397.4883 L896.4219 387.5781 L889.793 376.5195 L884.1875 364.3125 L879.6055 350.957 L876.0469 336.4531 L873.5117 320.8008 L873.3442 318.9396" clip-path="url(#clipPath2)"/>
      <path fill="none" d="M1018.0844 449.972 L1017.9429 452.2857 L1015.8017 468.4229 L1012.5765 483.4117 L1008.2672 497.2521 L1002.8739 509.9441 L996.3965 521.4875 L988.8351 531.8826 L980.1896 541.1293 L970.4601 549.2275 L959.6465 556.1772 L947.7489 561.9785 L934.7672 566.6314 L920.7015 570.1359 L905.5517 572.4918 L889.3179 573.6994 L886.9999 573.7073" clip-path="url(#clipPath2)"/>
      <path fill="none" d="M1034 435 L1149 435" clip-path="url(#clipPath2)"/>
    </g>
  </g>
</svg>
