<?xml version="1.0" encoding="UTF-8"?><svg xmlns="http://www.w3.org/2000/svg" xmlns:xlink="http://www.w3.org/1999/xlink" fill-opacity="1" color-rendering="auto" color-interpolation="auto" text-rendering="auto" stroke="black" stroke-linecap="square" width="281" stroke-miterlimit="10" shape-rendering="auto" stroke-opacity="1" fill="black" stroke-dasharray="none" font-weight="normal" stroke-width="1" height="381" font-family="'Dialog'" font-style="normal" stroke-linejoin="miter" font-size="12px" stroke-dashoffset="0" image-rendering="auto">
  <!--Generated by ySVG 2.6-->
  <defs id="genericDefs"/>
  <g>
    <defs id="defs1">
      <clipPath clipPathUnits="userSpaceOnUse" id="clipPath1">
        <path d="M0 0 L281 0 L281 381 L0 381 L0 0 Z"/>
      </clipPath>
      <clipPath clipPathUnits="userSpaceOnUse" id="clipPath2">
        <path d="M883 421 L1164 421 L1164 802 L883 802 L883 421 Z"/>
      </clipPath>
    </defs>
    <g fill="white" text-rendering="geometricPrecision" shape-rendering="geometricPrecision" transform="translate(-883,-421)" stroke="white">
      <rect x="883" width="281" height="381" y="421" clip-path="url(#clipPath2)" stroke="none"/>
    </g>
    <g fill="rgb(255,204,0)" text-rendering="geometricPrecision" shape-rendering="geometricPrecision" transform="matrix(1,0,0,1,-883,-421)" stroke="rgb(255,204,0)">
      <circle r="1" clip-path="url(#clipPath2)" cx="900" cy="785" stroke="none"/>
    </g>
    <g text-rendering="geometricPrecision" stroke-miterlimit="1.45" shape-rendering="geometricPrecision" transform="matrix(1,0,0,1,-883,-421)" stroke-linecap="butt">
      <circle fill="none" r="1" clip-path="url(#clipPath2)" cx="900" cy="785"/>
    </g>
    <g fill="rgb(255,204,0)" text-rendering="geometricPrecision" shape-rendering="geometricPrecision" transform="matrix(1,0,0,1,-883,-421)" stroke="rgb(255,204,0)">
      <circle r="1" clip-path="url(#clipPath2)" cx="900" cy="572" stroke="none"/>
    </g>
    <g text-rendering="geometricPrecision" stroke-miterlimit="1.45" shape-rendering="geometricPrecision" transform="matrix(1,0,0,1,-883,-421)" stroke-linecap="butt">
      <circle fill="none" r="1" clip-path="url(#clipPath2)" cx="900" cy="572"/>
    </g>
    <g fill="rgb(255,204,0)" text-rendering="geometricPrecision" shape-rendering="geometricPrecision" transform="matrix(1,0,0,1,-883,-421)" stroke="rgb(255,204,0)">
      <circle r="1" clip-path="url(#clipPath2)" cx="1147" cy="572" stroke="none"/>
    </g>
    <g text-rendering="geometricPrecision" stroke-miterlimit="1.45" shape-rendering="geometricPrecision" transform="matrix(1,0,0,1,-883,-421)" stroke-linecap="butt">
      <circle fill="none" r="1" clip-path="url(#clipPath2)" cx="1147" cy="572"/>
    </g>
    <g fill="rgb(255,204,0)" text-rendering="geometricPrecision" shape-rendering="geometricPrecision" transform="matrix(1,0,0,1,-883,-421)" stroke="rgb(255,204,0)">
      <circle r="1" clip-path="url(#clipPath2)" cx="1147" cy="785" stroke="none"/>
    </g>
    <g text-rendering="geometricPrecision" stroke-miterlimit="1.45" shape-rendering="geometricPrecision" transform="matrix(1,0,0,1,-883,-421)" stroke-linecap="butt">
      <circle fill="none" r="1" clip-path="url(#clipPath2)" cx="1147" cy="785"/>
    </g>
    <g fill="rgb(255,204,0)" text-rendering="geometricPrecision" shape-rendering="geometricPrecision" transform="matrix(1,0,0,1,-883,-421)" stroke="rgb(255,204,0)">
      <circle r="1" clip-path="url(#clipPath2)" cx="1022" cy="438" stroke="none"/>
    </g>
    <g text-rendering="geometricPrecision" stroke-miterlimit="1.45" shape-rendering="geometricPrecision" transform="matrix(1,0,0,1,-883,-421)" stroke-linecap="butt">
      <circle fill="none" r="1" clip-path="url(#clipPath2)" cx="1022" cy="438"/>
      <path fill="none" d="M900 784 L900 573" stroke-width="2" clip-path="url(#clipPath2)"/>
      <path fill="none" d="M901 572 L1146 572" stroke-width="2" clip-path="url(#clipPath2)"/>
      <path fill="none" d="M1146.2427 572.6531 L900.7573 784.3469" stroke-width="2" clip-path="url(#clipPath2)"/>
      <path fill="none" d="M1147 573 L1147 784" stroke-width="2" clip-path="url(#clipPath2)"/>
      <path fill="none" d="M900.7573 572.6531 L1146.2427 784.3469" stroke-width="2" clip-path="url(#clipPath2)"/>
      <path fill="none" d="M1146 785 L901 785" stroke-width="2" clip-path="url(#clipPath2)"/>
      <path fill="none" d="M900.6732 571.2606 L1021.3268 438.7394" stroke-width="2" clip-path="url(#clipPath2)"/>
      <path fill="none" d="M1022.6821 438.7312 L1146.3179 571.2687" stroke-width="2" clip-path="url(#clipPath2)"/>
    </g>
  </g>
</svg>
