<?xml version="1.0" encoding="UTF-8"?><svg xmlns="http://www.w3.org/2000/svg" xmlns:xlink="http://www.w3.org/1999/xlink" fill-opacity="1" color-rendering="auto" color-interpolation="auto" text-rendering="auto" stroke="black" stroke-linecap="square" width="431" stroke-miterlimit="10" shape-rendering="auto" stroke-opacity="1" fill="black" stroke-dasharray="none" font-weight="normal" stroke-width="1" height="424" font-family="'Dialog'" font-style="normal" stroke-linejoin="miter" font-size="12px" stroke-dashoffset="0" image-rendering="auto">
  <!--Generated by ySVG 2.6-->
  <defs id="genericDefs"/>
  <g>
    <defs id="defs1">
      <clipPath clipPathUnits="userSpaceOnUse" id="clipPath1">
        <path d="M0 0 L431 0 L431 424 L0 424 L0 0 Z"/>
      </clipPath>
      <clipPath clipPathUnits="userSpaceOnUse" id="clipPath2">
        <path d="M1016 284 L1447 284 L1447 708 L1016 708 L1016 284 Z"/>
      </clipPath>
    </defs>
    <g fill="white" text-rendering="geometricPrecision" shape-rendering="geometricPrecision" transform="translate(-1016,-284)" stroke="white">
      <rect x="1016" width="431" height="424" y="284" clip-path="url(#clipPath2)" stroke="none"/>
    </g>
    <g text-rendering="geometricPrecision" shape-rendering="geometricPrecision" transform="matrix(1,0,0,1,-1016,-284)">
      <circle r="1" clip-path="url(#clipPath2)" cx="1033" cy="301" stroke="none"/>
      <circle stroke-linecap="butt" clip-path="url(#clipPath2)" fill="none" r="1" cx="1033" cy="301" stroke-miterlimit="1.45"/>
      <circle r="1" clip-path="url(#clipPath2)" cx="1173" cy="301" stroke="none"/>
      <circle stroke-linecap="butt" clip-path="url(#clipPath2)" fill="none" r="1" cx="1173" cy="301" stroke-miterlimit="1.45"/>
      <circle r="1" clip-path="url(#clipPath2)" cx="1033" cy="425" stroke="none"/>
      <circle stroke-linecap="butt" clip-path="url(#clipPath2)" fill="none" r="1" cx="1033" cy="425" stroke-miterlimit="1.45"/>
      <circle r="1" clip-path="url(#clipPath2)" cx="1173" cy="425" stroke="none"/>
      <circle stroke-linecap="butt" clip-path="url(#clipPath2)" fill="none" r="1" cx="1173" cy="425" stroke-miterlimit="1.45"/>
      <circle r="1" clip-path="url(#clipPath2)" cx="1103" cy="363" stroke="none"/>
      <circle stroke-linecap="butt" clip-path="url(#clipPath2)" fill="none" r="1" cx="1103" cy="363" stroke-miterlimit="1.45"/>
      <circle r="1" clip-path="url(#clipPath2)" cx="1103" cy="631" stroke="none"/>
      <circle stroke-linecap="butt" clip-path="url(#clipPath2)" fill="none" r="1" cx="1103" cy="631" stroke-miterlimit="1.45"/>
      <circle r="1" clip-path="url(#clipPath2)" cx="1370" cy="363" stroke="none"/>
      <circle stroke-linecap="butt" clip-path="url(#clipPath2)" fill="none" r="1" cx="1370" cy="363" stroke-miterlimit="1.45"/>
      <circle r="1" clip-path="url(#clipPath2)" cx="1370" cy="631" stroke="none"/>
      <circle stroke-linecap="butt" clip-path="url(#clipPath2)" fill="none" r="1" cx="1370" cy="631" stroke-miterlimit="1.45"/>
      <circle r="1" clip-path="url(#clipPath2)" cx="1310" cy="571" stroke="none"/>
      <circle stroke-linecap="butt" clip-path="url(#clipPath2)" fill="none" r="1" cx="1310" cy="571" stroke-miterlimit="1.45"/>
      <circle r="1" clip-path="url(#clipPath2)" cx="1310" cy="691" stroke="none"/>
      <circle stroke-linecap="butt" clip-path="url(#clipPath2)" fill="none" r="1" cx="1310" cy="691" stroke-miterlimit="1.45"/>
      <circle r="1" clip-path="url(#clipPath2)" cx="1430" cy="571" stroke="none"/>
      <circle stroke-linecap="butt" clip-path="url(#clipPath2)" fill="none" r="1" cx="1430" cy="571" stroke-miterlimit="1.45"/>
      <circle r="1" clip-path="url(#clipPath2)" cx="1430" cy="691" stroke="none"/>
      <circle stroke-linecap="butt" clip-path="url(#clipPath2)" fill="none" r="1" cx="1430" cy="691" stroke-miterlimit="1.45"/>
      <path fill="none" stroke-miterlimit="1.45" d="M1172 301 L1034 301" stroke-width="2" clip-path="url(#clipPath2)" stroke-linecap="butt"/>
      <path fill="none" stroke-miterlimit="1.45" d="M1033 302 L1033 424" stroke-width="2" clip-path="url(#clipPath2)" stroke-linecap="butt"/>
      <path fill="none" stroke-miterlimit="1.45" d="M1034 425 L1172 425" stroke-width="2" clip-path="url(#clipPath2)" stroke-linecap="butt"/>
      <path fill="none" stroke-miterlimit="1.45" d="M1173 424 L1173 302" stroke-width="2" clip-path="url(#clipPath2)" stroke-linecap="butt"/>
      <path fill="none" stroke-miterlimit="1.45" d="M1103 364 L1103 630" stroke-width="2" clip-path="url(#clipPath2)" stroke-linecap="butt"/>
      <path fill="none" stroke-miterlimit="1.45" d="M1369 363 L1104 363" stroke-width="2" clip-path="url(#clipPath2)" stroke-linecap="butt"/>
      <path fill="none" stroke-miterlimit="1.45" d="M1104 631 L1369 631" stroke-width="2" clip-path="url(#clipPath2)" stroke-linecap="butt"/>
      <path fill="none" stroke-miterlimit="1.45" d="M1370 630 L1370 364" stroke-width="2" clip-path="url(#clipPath2)" stroke-linecap="butt"/>
      <path fill="none" stroke-miterlimit="1.45" d="M1310 572 L1310 690" stroke-width="2" clip-path="url(#clipPath2)" stroke-linecap="butt"/>
      <path fill="none" stroke-miterlimit="1.45" d="M1429 571 L1311 571" stroke-width="2" clip-path="url(#clipPath2)" stroke-linecap="butt"/>
      <path fill="none" stroke-miterlimit="1.45" d="M1311 691 L1429 691" stroke-width="2" clip-path="url(#clipPath2)" stroke-linecap="butt"/>
      <path fill="none" stroke-miterlimit="1.45" d="M1430 690 L1430 572" stroke-width="2" clip-path="url(#clipPath2)" stroke-linecap="butt"/>
    </g>
  </g>
</svg>
