<?xml version="1.0" encoding="UTF-8"?><svg xmlns="http://www.w3.org/2000/svg" xmlns:xlink="http://www.w3.org/1999/xlink" fill-opacity="1" color-rendering="auto" color-interpolation="auto" text-rendering="auto" stroke="black" stroke-linecap="square" width="396" stroke-miterlimit="10" shape-rendering="auto" stroke-opacity="1" fill="black" stroke-dasharray="none" font-weight="normal" stroke-width="1" height="396" font-family="'Dialog'" font-style="normal" stroke-linejoin="miter" font-size="12px" stroke-dashoffset="0" image-rendering="auto">
  <!--Generated by ySVG 2.6-->
  <defs id="genericDefs"/>
  <g>
    <defs id="defs1">
      <clipPath clipPathUnits="userSpaceOnUse" id="clipPath1">
        <path d="M0 0 L396 0 L396 396 L0 396 L0 0 Z"/>
      </clipPath>
      <clipPath clipPathUnits="userSpaceOnUse" id="clipPath2">
        <path d="M826 542 L1222 542 L1222 938 L826 938 L826 542 Z"/>
      </clipPath>
    </defs>
    <g fill="white" text-rendering="geometricPrecision" shape-rendering="geometricPrecision" transform="translate(-826,-542)" stroke="white">
      <rect x="826" width="396" height="396" y="542" clip-path="url(#clipPath2)" stroke="none"/>
    </g>
    <g text-rendering="geometricPrecision" stroke-miterlimit="1.45" shape-rendering="geometricPrecision" transform="matrix(1,0,0,1,-826,-542)" stroke-linecap="butt">
      <circle fill="none" r="15" clip-path="url(#clipPath2)" cx="900" cy="785"/>
      <circle fill="none" r="15" clip-path="url(#clipPath2)" cx="900" cy="572"/>
      <circle fill="none" r="15" clip-path="url(#clipPath2)" cx="1147" cy="572"/>
      <circle fill="none" r="15" clip-path="url(#clipPath2)" cx="1147" cy="785"/>
      <circle fill="none" r="15" clip-path="url(#clipPath2)" cx="1022" cy="617"/>
      <circle fill="none" r="15" clip-path="url(#clipPath2)" cx="1029" cy="908"/>
      <path fill="none" d="M900 770 L900 587" stroke-width="2" clip-path="url(#clipPath2)"/>
      <path fill="none" d="M915 572 L1132 572" stroke-width="2" clip-path="url(#clipPath2)"/>
      <path fill="none" d="M1147 587 L1147 770" stroke-width="2" clip-path="url(#clipPath2)"/>
      <path fill="none" d="M1132 785 L915 785" stroke-width="2" clip-path="url(#clipPath2)"/>
      <path fill="none" d="M914.0732 577.1909 L1007.9268 611.8091" stroke-width="2" clip-path="url(#clipPath2)"/>
      <path fill="none" d="M1036.1133 611.9192 L1132.8867 577.0808" stroke-width="2" clip-path="url(#clipPath2)"/>
      <path fill="none" d="M1039.3843 897.1757 L1136.6157 795.8243" stroke-width="2" clip-path="url(#clipPath2)"/>
      <path fill="none" d="M1018.1439 897.6489 L910.8561 795.3511" stroke-width="2" clip-path="url(#clipPath2)"/>
      <path fill="none" d="M1043.1183 902.933 L1062.2212 896.0769 L1091.9962 882.9436 L1118.3251 868.6 L1141.2078 853.0461 L1160.6443 836.282 L1176.6346 818.3077 L1189.179 799.1231 L1198.277 778.7282 L1203.929 757.1231 L1206.1346 734.3077 L1204.8943 710.282 L1200.2078 685.0461 L1192.0751 658.6 L1180.4962 630.9436 L1165.4712 602.0769 L1154.8499 584.782" stroke-width="2" clip-path="url(#clipPath2)"/>
      <path fill="none" d="M1014.67 903.5669 L994.2448 897.2481 L963.0486 885.1298 L935.4114 871.6451 L911.3333 856.7939 L890.8141 840.5764 L873.8541 822.9924 L860.4531 804.042 L850.611 783.7252 L844.3281 762.042 L841.6041 738.9924 L842.4391 714.5764 L846.8333 688.7939 L854.7864 661.6451 L866.2986 633.1298 L881.3698 603.2481 L892.3185 584.8839" stroke-width="2" clip-path="url(#clipPath2)"/>
    </g>
  </g>
</svg>
