<?xml version="1.0" encoding="UTF-8"?><svg xmlns="http://www.w3.org/2000/svg" xmlns:xlink="http://www.w3.org/1999/xlink" fill-opacity="1" color-rendering="auto" color-interpolation="auto" text-rendering="auto" stroke="black" stroke-linecap="square" width="380" stroke-miterlimit="10" shape-rendering="auto" stroke-opacity="1" fill="black" stroke-dasharray="none" font-weight="normal" stroke-width="1" height="396" font-family="'Dialog'" font-style="normal" stroke-linejoin="miter" font-size="12px" stroke-dashoffset="0" image-rendering="auto">
  <!--Generated by ySVG 2.6-->
  <defs id="genericDefs"/>
  <g>
    <defs id="defs1">
      <clipPath clipPathUnits="userSpaceOnUse" id="clipPath1">
        <path d="M0 0 L380 0 L380 396 L0 396 L0 0 Z"/>
      </clipPath>
      <clipPath clipPathUnits="userSpaceOnUse" id="clipPath2">
        <path d="M870 542 L1250 542 L1250 938 L870 938 L870 542 Z"/>
      </clipPath>
    </defs>
    <g fill="white" text-rendering="geometricPrecision" shape-rendering="geometricPrecision" transform="translate(-870,-542)" stroke="white">
      <rect x="870" width="380" height="396" y="542" clip-path="url(#clipPath2)" stroke="none"/>
    </g>
    <g text-rendering="geometricPrecision" stroke-miterlimit="1.45" shape-rendering="geometricPrecision" transform="matrix(1,0,0,1,-870,-542)" stroke-linecap="butt">
      <circle fill="none" r="15" clip-path="url(#clipPath2)" cx="975" cy="715"/>
      <circle fill="none" r="15" clip-path="url(#clipPath2)" cx="900" cy="572"/>
      <circle fill="none" r="15" clip-path="url(#clipPath2)" cx="1220" cy="795"/>
      <circle fill="none" r="15" clip-path="url(#clipPath2)" cx="1070" cy="802"/>
      <circle fill="none" r="15" clip-path="url(#clipPath2)" cx="1052" cy="732"/>
      <circle fill="none" r="15" clip-path="url(#clipPath2)" cx="1029" cy="908"/>
      <path fill="none" d="M968.033 701.7162 L906.967 585.2838" stroke-width="2" clip-path="url(#clipPath2)"/>
      <path fill="none" d="M912.3065 580.5761 L1207.6935 786.4239" stroke-width="2" clip-path="url(#clipPath2)"/>
      <path fill="none" d="M1205.0164 795.6992 L1084.9836 801.3008" stroke-width="2" clip-path="url(#clipPath2)"/>
      <path fill="none" d="M1058.9379 791.8694 L986.0621 725.1306" stroke-width="2" clip-path="url(#clipPath2)"/>
      <path fill="none" d="M910.3312 582.875 L1041.6687 721.125" stroke-width="2" clip-path="url(#clipPath2)"/>
      <path fill="none" d="M1066.0449 737.2668 L1205.9551 789.7332" stroke-width="2" clip-path="url(#clipPath2)"/>
      <path fill="none" d="M1034.4113 894.0101 L1064.5887 815.9899" stroke-width="2" clip-path="url(#clipPath2)"/>
      <path fill="none" d="M1024.9584 893.5547 L979.0417 729.4453" stroke-width="2" clip-path="url(#clipPath2)"/>
      <path fill="none" d="M1043.8389 910.1928 L1046.6598 910.6097 L1063.5566 911.9298 L1079.6904 911.9602 L1095.0614 910.701 L1109.6693 908.1522 L1123.5142 904.3138 L1136.5962 899.1857 L1148.9152 892.7681 L1160.4712 885.0607 L1171.2642 876.0638 L1181.2943 865.7772 L1190.5614 854.201 L1199.0654 841.3352 L1206.8066 827.1798 L1213.7848 811.7347 L1214.7776 809.0615" stroke-width="2" clip-path="url(#clipPath2)"/>
      <path fill="none" d="M1017.9424 897.8644 L1010.473 891.0176 L993.3412 873.4996 L977.6047 855.4459 L963.2635 836.8564 L950.3176 817.7313 L938.7669 798.0706 L928.6115 777.8741 L919.8514 757.1419 L912.4865 735.8741 L906.5169 714.0706 L901.9426 691.7313 L898.7635 668.8564 L896.9797 645.4459 L896.5912 621.4996 L897.598 597.0176 L898.5664 586.9313" stroke-width="2" clip-path="url(#clipPath2)"/>
    </g>
  </g>
</svg>
