<?xml version="1.0" encoding="UTF-8"?>
<svg xmlns="http://www.w3.org/2000/svg" xmlns:xlink="http://www.w3.org/1999/xlink" width="854" height="480" viewBox="0 0 854 480">
<path fill="none" stroke-width="0.04" stroke-linecap="butt" stroke-linejoin="miter" stroke="rgb(5.490196%, 41.176471%, 25.882353%)" stroke-opacity="1" stroke-miterlimit="10" d="M -3.699974 -1.5 C -3.699974 -1.421484 -3.732305 -1.343424 -3.787861 -1.287891 C -3.843417 -1.232357 -3.921481 -1.2 -4 -1.2 C -4.078519 -1.2 -4.156583 -1.232357 -4.212139 -1.287891 C -4.267695 -1.343424 -4.300026 -1.421484 -4.300026 -1.5 C -4.300026 -1.578516 -4.267695 -1.656576 -4.212139 -1.712109 C -4.156583 -1.767643 -4.078519 -1.8 -4 -1.8 C -3.921481 -1.8 -3.843417 -1.767643 -3.787861 -1.712109 C -3.732305 -1.656576 -3.699974 -1.578516 -3.699974 -1.5 Z M -3.699974 -1.5 " transform="matrix(60.046875, 0, 0, -60, 427, 240)"/>
<path fill="none" stroke-width="0.04" stroke-linecap="butt" stroke-linejoin="miter" stroke="rgb(5.490196%, 41.176471%, 25.882353%)" stroke-opacity="1" stroke-miterlimit="10" d="M -3.699974 -0.5 C -3.699974 -0.421484 -3.732305 -0.343424 -3.787861 -0.287891 C -3.843417 -0.232357 -3.921481 -0.2 -4 -0.2 C -4.078519 -0.2 -4.156583 -0.232357 -4.212139 -0.287891 C -4.267695 -0.343424 -4.300026 -0.421484 -4.300026 -0.5 C -4.300026 -0.578516 -4.267695 -0.656576 -4.212139 -0.712109 C -4.156583 -0.767643 -4.078519 -0.8 -4 -0.8 C -3.921481 -0.8 -3.843417 -0.767643 -3.787861 -0.712109 C -3.732305 -0.656576 -3.699974 -0.578516 -3.699974 -0.5 Z M -3.699974 -0.5 " transform="matrix(60.046875, 0, 0, -60, 427, 240)"/>
<path fill="none" stroke-width="0.04" stroke-linecap="butt" stroke-linejoin="miter" stroke="rgb(5.490196%, 41.176471%, 25.882353%)" stroke-opacity="1" stroke-miterlimit="10" d="M -3.699974 0.5 C -3.699974 0.578516 -3.732305 0.656576 -3.787861 0.712109 C -3.843417 0.767643 -3.921481 0.8 -4 0.8 C -4.078519 0.8 -4.156583 0.767643 -4.212139 0.712109 C -4.267695 0.656576 -4.300026 0.578516 -4.300026 0.5 C -4.300026 0.421484 -4.267695 0.343424 -4.212139 0.287891 C -4.156583 0.232357 -4.078519 0.2 -4 0.2 C -3.921481 0.2 -3.843417 0.232357 -3.787861 0.287891 C -3.732305 0.343424 -3.699974 0.421484 -3.699974 0.5 Z M -3.699974 0.5 " transform="matrix(60.046875, 0, 0, -60, 427, 240)"/>
<path fill-rule="nonzero" fill="rgb(5.490196%, 41.176471%, 25.882353%)" fill-opacity="1" d="M 189.816406 165 C 189.816406 164.214844 189.492188 163.433594 188.933594 162.878906 C 188.378906 162.324219 187.597656 162 186.8125 162 C 186.027344 162 185.246094 162.324219 184.691406 162.878906 C 184.132812 163.433594 183.808594 164.214844 183.808594 165 C 183.808594 165.785156 184.132812 166.566406 184.691406 167.121094 C 185.246094 167.675781 186.027344 168 186.8125 168 C 187.597656 168 188.378906 167.675781 188.933594 167.121094 C 189.492188 166.566406 189.816406 165.785156 189.816406 165 Z M 189.816406 165 "/>
<path fill-rule="nonzero" fill="rgb(5.490196%, 41.176471%, 25.882353%)" fill-opacity="1" d="M 189.816406 150 C 189.816406 149.214844 189.492188 148.433594 188.933594 147.878906 C 188.378906 147.324219 187.597656 147 186.8125 147 C 186.027344 147 185.246094 147.324219 184.691406 147.878906 C 184.132812 148.433594 183.808594 149.214844 183.808594 150 C 183.808594 150.785156 184.132812 151.566406 184.691406 152.121094 C 185.246094 152.675781 186.027344 153 186.8125 153 C 187.597656 153 188.378906 152.675781 188.933594 152.121094 C 189.492188 151.566406 189.816406 150.785156 189.816406 150 Z M 189.816406 150 "/>
<path fill-rule="nonzero" fill="rgb(5.490196%, 41.176471%, 25.882353%)" fill-opacity="1" d="M 189.816406 135 C 189.816406 134.214844 189.492188 133.433594 188.933594 132.878906 C 188.378906 132.324219 187.597656 132 186.8125 132 C 186.027344 132 185.246094 132.324219 184.691406 132.878906 C 184.132812 133.433594 183.808594 134.214844 183.808594 135 C 183.808594 135.785156 184.132812 136.566406 184.691406 137.121094 C 185.246094 137.675781 186.027344 138 186.8125 138 C 187.597656 138 188.378906 137.675781 188.933594 137.121094 C 189.492188 136.566406 189.816406 135.785156 189.816406 135 Z M 189.816406 135 "/>
<path fill-rule="nonzero" fill="rgb(5.490196%, 41.176471%, 25.882353%)" fill-opacity="1" d="M 189.816406 375 C 189.816406 374.214844 189.492188 373.433594 188.933594 372.878906 C 188.378906 372.324219 187.597656 372 186.8125 372 C 186.027344 372 185.246094 372.324219 184.691406 372.878906 C 184.132812 373.433594 183.808594 374.214844 183.808594 375 C 183.808594 375.785156 184.132812 376.566406 184.691406 377.121094 C 185.246094 377.675781 186.027344 378 186.8125 378 C 187.597656 378 188.378906 377.675781 188.933594 377.121094 C 189.492188 376.566406 189.816406 375.785156 189.816406 375 Z M 189.816406 375 "/>
<path fill-rule="nonzero" fill="rgb(5.490196%, 41.176471%, 25.882353%)" fill-opacity="1" d="M 189.816406 390 C 189.816406 389.214844 189.492188 388.433594 188.933594 387.878906 C 188.378906 387.324219 187.597656 387 186.8125 387 C 186.027344 387 185.246094 387.324219 184.691406 387.878906 C 184.132812 388.433594 183.808594 389.214844 183.808594 390 C 183.808594 390.785156 184.132812 391.566406 184.691406 392.121094 C 185.246094 392.675781 186.027344 393 186.8125 393 C 187.597656 393 188.378906 392.675781 188.933594 392.121094 C 189.492188 391.566406 189.816406 390.785156 189.816406 390 Z M 189.816406 390 "/>
<path fill-rule="nonzero" fill="rgb(5.490196%, 41.176471%, 25.882353%)" fill-opacity="1" d="M 189.816406 405 C 189.816406 404.214844 189.492188 403.433594 188.933594 402.878906 C 188.378906 402.324219 187.597656 402 186.8125 402 C 186.027344 402 185.246094 402.324219 184.691406 402.878906 C 184.132812 403.433594 183.808594 404.214844 183.808594 405 C 183.808594 405.785156 184.132812 406.566406 184.691406 407.121094 C 185.246094 407.675781 186.027344 408 186.8125 408 C 187.597656 408 188.378906 407.675781 188.933594 407.121094 C 189.492188 406.566406 189.816406 405.785156 189.816406 405 Z M 189.816406 405 "/>
<path fill="none" stroke-width="0.04" stroke-linecap="butt" stroke-linejoin="miter" stroke="rgb(5.490196%, 41.176471%, 25.882353%)" stroke-opacity="1" stroke-miterlimit="10" d="M -1.699974 -2 C -1.699974 -1.921484 -1.732305 -1.843424 -1.787861 -1.787891 C -1.843417 -1.732357 -1.921481 -1.7 -2 -1.7 C -2.078519 -1.7 -2.156583 -1.732357 -2.212139 -1.787891 C -2.267695 -1.843424 -2.300026 -1.921484 -2.300026 -2 C -2.300026 -2.078516 -2.267695 -2.156576 -2.212139 -2.212109 C -2.156583 -2.267643 -2.078519 -2.3 -2 -2.3 C -1.921481 -2.3 -1.843417 -2.267643 -1.787861 -2.212109 C -1.732305 -2.156576 -1.699974 -2.078516 -1.699974 -2 Z M -1.699974 -2 " transform="matrix(60.046875, 0, 0, -60, 427, 240)"/>
<path fill="none" stroke-width="0.04" stroke-linecap="butt" stroke-linejoin="miter" stroke="rgb(5.490196%, 41.176471%, 25.882353%)" stroke-opacity="1" stroke-miterlimit="10" d="M -1.699974 -1 C -1.699974 -0.921484 -1.732305 -0.843424 -1.787861 -0.787891 C -1.843417 -0.732357 -1.921481 -0.7 -2 -0.7 C -2.078519 -0.7 -2.156583 -0.732357 -2.212139 -0.787891 C -2.267695 -0.843424 -2.300026 -0.921484 -2.300026 -1 C -2.300026 -1.078516 -2.267695 -1.156576 -2.212139 -1.212109 C -2.156583 -1.267643 -2.078519 -1.3 -2 -1.3 C -1.921481 -1.3 -1.843417 -1.267643 -1.787861 -1.212109 C -1.732305 -1.156576 -1.699974 -1.078516 -1.699974 -1 Z M -1.699974 -1 " transform="matrix(60.046875, 0, 0, -60, 427, 240)"/>
<path fill="none" stroke-width="0.04" stroke-linecap="butt" stroke-linejoin="miter" stroke="rgb(5.490196%, 41.176471%, 25.882353%)" stroke-opacity="1" stroke-miterlimit="10" d="M -1.699974 0 C -1.699974 0.0785156 -1.732305 0.156576 -1.787861 0.212109 C -1.843417 0.267643 -1.921481 0.3 -2 0.3 C -2.078519 0.3 -2.156583 0.267643 -2.212139 0.212109 C -2.267695 0.156576 -2.300026 0.0785156 -2.300026 0 C -2.300026 -0.0785156 -2.267695 -0.156576 -2.212139 -0.212109 C -2.156583 -0.267643 -2.078519 -0.3 -2 -0.3 C -1.921481 -0.3 -1.843417 -0.267643 -1.787861 -0.212109 C -1.732305 -0.156576 -1.699974 -0.0785156 -1.699974 0 Z M -1.699974 0 " transform="matrix(60.046875, 0, 0, -60, 427, 240)"/>
<path fill="none" stroke-width="0.04" stroke-linecap="butt" stroke-linejoin="miter" stroke="rgb(5.490196%, 41.176471%, 25.882353%)" stroke-opacity="1" stroke-miterlimit="10" d="M -1.699974 1 C -1.699974 1.078516 -1.732305 1.156576 -1.787861 1.212109 C -1.843417 1.267643 -1.921481 1.3 -2 1.3 C -2.078519 1.3 -2.156583 1.267643 -2.212139 1.212109 C -2.267695 1.156576 -2.300026 1.078516 -2.300026 1 C -2.300026 0.921484 -2.267695 0.843424 -2.212139 0.787891 C -2.156583 0.732357 -2.078519 0.7 -2 0.7 C -1.921481 0.7 -1.843417 0.732357 -1.787861 0.787891 C -1.732305 0.843424 -1.699974 0.921484 -1.699974 1 Z M -1.699974 1 " transform="matrix(60.046875, 0, 0, -60, 427, 240)"/>
<path fill="none" stroke-width="0.04" stroke-linecap="butt" stroke-linejoin="miter" stroke="rgb(5.490196%, 41.176471%, 25.882353%)" stroke-opacity="1" stroke-miterlimit="10" d="M 0.300026 -2 C 0.300026 -1.921484 0.267695 -1.843424 0.212139 -1.787891 C 0.156583 -1.732357 0.0785194 -1.7 0 -1.7 C -0.0785194 -1.7 -0.156583 -1.732357 -0.212139 -1.787891 C -0.267695 -1.843424 -0.300026 -1.921484 -0.300026 -2 C -0.300026 -2.078516 -0.267695 -2.156576 -0.212139 -2.212109 C -0.156583 -2.267643 -0.0785194 -2.3 0 -2.3 C 0.0785194 -2.3 0.156583 -2.267643 0.212139 -2.212109 C 0.267695 -2.156576 0.300026 -2.078516 0.300026 -2 Z M 0.300026 -2 " transform="matrix(60.046875, 0, 0, -60, 427, 240)"/>
<path fill="none" stroke-width="0.04" stroke-linecap="butt" stroke-linejoin="miter" stroke="rgb(5.490196%, 41.176471%, 25.882353%)" stroke-opacity="1" stroke-miterlimit="10" d="M 0.300026 -1 C 0.300026 -0.921484 0.267695 -0.843424 0.212139 -0.787891 C 0.156583 -0.732357 0.0785194 -0.7 0 -0.7 C -0.0785194 -0.7 -0.156583 -0.732357 -0.212139 -0.787891 C -0.267695 -0.843424 -0.300026 -0.921484 -0.300026 -1 C -0.300026 -1.078516 -0.267695 -1.156576 -0.212139 -1.212109 C -0.156583 -1.267643 -0.0785194 -1.3 0 -1.3 C 0.0785194 -1.3 0.156583 -1.267643 0.212139 -1.212109 C 0.267695 -1.156576 0.300026 -1.078516 0.300026 -1 Z M 0.300026 -1 " transform="matrix(60.046875, 0, 0, -60, 427, 240)"/>
<path fill="none" stroke-width="0.04" stroke-linecap="butt" stroke-linejoin="miter" stroke="rgb(5.490196%, 41.176471%, 25.882353%)" stroke-opacity="1" stroke-miterlimit="10" d="M 0.300026 0 C 0.300026 0.0785156 0.267695 0.156576 0.212139 0.212109 C 0.156583 0.267643 0.0785194 0.3 0 0.3 C -0.0785194 0.3 -0.156583 0.267643 -0.212139 0.212109 C -0.267695 0.156576 -0.300026 0.0785156 -0.300026 0 C -0.300026 -0.0785156 -0.267695 -0.156576 -0.212139 -0.212109 C -0.156583 -0.267643 -0.0785194 -0.3 0 -0.3 C 0.0785194 -0.3 0.156583 -0.267643 0.212139 -0.212109 C 0.267695 -0.156576 0.300026 -0.0785156 0.300026 0 Z M 0.300026 0 " transform="matrix(60.046875, 0, 0, -60, 427, 240)"/>
<path fill="none" stroke-width="0.04" stroke-linecap="butt" stroke-linejoin="miter" stroke="rgb(5.490196%, 41.176471%, 25.882353%)" stroke-opacity="1" stroke-miterlimit="10" d="M 0.300026 1 C 0.300026 1.078516 0.267695 1.156576 0.212139 1.212109 C 0.156583 1.267643 0.0785194 1.3 0 1.3 C -0.0785194 1.3 -0.156583 1.267643 -0.212139 1.212109 C -0.267695 1.156576 -0.300026 1.078516 -0.300026 1 C -0.300026 0.921484 -0.267695 0.843424 -0.212139 0.787891 C -0.156583 0.732357 -0.0785194 0.7 0 0.7 C 0.0785194 0.7 0.156583 0.732357 0.212139 0.787891 C 0.267695 0.843424 0.300026 0.921484 0.300026 1 Z M 0.300026 1 " transform="matrix(60.046875, 0, 0, -60, 427, 240)"/>
<path fill="none" stroke-width="0.04" stroke-linecap="butt" stroke-linejoin="miter" stroke="rgb(5.490196%, 41.176471%, 25.882353%)" stroke-opacity="1" stroke-miterlimit="10" d="M 2.300026 -3.5 C 2.300026 -3.421484 2.267695 -3.343424 2.212139 -3.287891 C 2.156583 -3.232357 2.078519 -3.2 2 -3.2 C 1.921481 -3.2 1.843417 -3.232357 1.787861 -3.287891 C 1.732305 -3.343424 1.699974 -3.421484 1.699974 -3.5 C 1.699974 -3.578516 1.732305 -3.656576 1.787861 -3.712109 C 1.843417 -3.767643 1.921481 -3.8 2 -3.8 C 2.078519 -3.8 2.156583 -3.767643 2.212139 -3.712109 C 2.267695 -3.656576 2.300026 -3.578516 2.300026 -3.5 Z M 2.300026 -3.5 " transform="matrix(60.046875, 0, 0, -60, 427, 240)"/>
<path fill="none" stroke-width="0.04" stroke-linecap="butt" stroke-linejoin="miter" stroke="rgb(5.490196%, 41.176471%, 25.882353%)" stroke-opacity="1" stroke-miterlimit="10" d="M 2.300026 -2.5 C 2.300026 -2.421484 2.267695 -2.343424 2.212139 -2.287891 C 2.156583 -2.232357 2.078519 -2.2 2 -2.2 C 1.921481 -2.2 1.843417 -2.232357 1.787861 -2.287891 C 1.732305 -2.343424 1.699974 -2.421484 1.699974 -2.5 C 1.699974 -2.578516 1.732305 -2.656576 1.787861 -2.712109 C 1.843417 -2.767643 1.921481 -2.8 2 -2.8 C 2.078519 -2.8 2.156583 -2.767643 2.212139 -2.712109 C 2.267695 -2.656576 2.300026 -2.578516 2.300026 -2.5 Z M 2.300026 -2.5 " transform="matrix(60.046875, 0, 0, -60, 427, 240)"/>
<path fill="none" stroke-width="0.04" stroke-linecap="butt" stroke-linejoin="miter" stroke="rgb(5.490196%, 41.176471%, 25.882353%)" stroke-opacity="1" stroke-miterlimit="10" d="M 2.300026 -1.5 C 2.300026 -1.421484 2.267695 -1.343424 2.212139 -1.287891 C 2.156583 -1.232357 2.078519 -1.2 2 -1.2 C 1.921481 -1.2 1.843417 -1.232357 1.787861 -1.287891 C 1.732305 -1.343424 1.699974 -1.421484 1.699974 -1.5 C 1.699974 -1.578516 1.732305 -1.656576 1.787861 -1.712109 C 1.843417 -1.767643 1.921481 -1.8 2 -1.8 C 2.078519 -1.8 2.156583 -1.767643 2.212139 -1.712109 C 2.267695 -1.656576 2.300026 -1.578516 2.300026 -1.5 Z M 2.300026 -1.5 " transform="matrix(60.046875, 0, 0, -60, 427, 240)"/>
<path fill="none" stroke-width="0.04" stroke-linecap="butt" stroke-linejoin="miter" stroke="rgb(5.490196%, 41.176471%, 25.882353%)" stroke-opacity="1" stroke-miterlimit="10" d="M 2.300026 -0.5 C 2.300026 -0.421484 2.267695 -0.343424 2.212139 -0.287891 C 2.156583 -0.232357 2.078519 -0.2 2 -0.2 C 1.921481 -0.2 1.843417 -0.232357 1.787861 -0.287891 C 1.732305 -0.343424 1.699974 -0.421484 1.699974 -0.5 C 1.699974 -0.578516 1.732305 -0.656576 1.787861 -0.712109 C 1.843417 -0.767643 1.921481 -0.8 2 -0.8 C 2.078519 -0.8 2.156583 -0.767643 2.212139 -0.712109 C 2.267695 -0.656576 2.300026 -0.578516 2.300026 -0.5 Z M 2.300026 -0.5 " transform="matrix(60.046875, 0, 0, -60, 427, 240)"/>
<path fill="none" stroke-width="0.04" stroke-linecap="butt" stroke-linejoin="miter" stroke="rgb(5.490196%, 41.176471%, 25.882353%)" stroke-opacity="1" stroke-miterlimit="10" d="M 2.300026 0.5 C 2.300026 0.578516 2.267695 0.656576 2.212139 0.712109 C 2.156583 0.767643 2.078519 0.8 2 0.8 C 1.921481 0.8 1.843417 0.767643 1.787861 0.712109 C 1.732305 0.656576 1.699974 0.578516 1.699974 0.5 C 1.699974 0.421484 1.732305 0.343424 1.787861 0.287891 C 1.843417 0.232357 1.921481 0.2 2 0.2 C 2.078519 0.2 2.156583 0.232357 2.212139 0.287891 C 2.267695 0.343424 2.300026 0.421484 2.300026 0.5 Z M 2.300026 0.5 " transform="matrix(60.046875, 0, 0, -60, 427, 240)"/>
<path fill="none" stroke-width="0.04" stroke-linecap="butt" stroke-linejoin="miter" stroke="rgb(5.490196%, 41.176471%, 25.882353%)" stroke-opacity="1" stroke-miterlimit="10" d="M 2.300026 1.5 C 2.300026 1.578516 2.267695 1.656576 2.212139 1.712109 C 2.156583 1.767643 2.078519 1.8 2 1.8 C 1.921481 1.8 1.843417 1.767643 1.787861 1.712109 C 1.732305 1.656576 1.699974 1.578516 1.699974 1.5 C 1.699974 1.421484 1.732305 1.343424 1.787861 1.287891 C 1.843417 1.232357 1.921481 1.2 2 1.2 C 2.078519 1.2 2.156583 1.232357 2.212139 1.287891 C 2.267695 1.343424 2.300026 1.421484 2.300026 1.5 Z M 2.300026 1.5 " transform="matrix(60.046875, 0, 0, -60, 427, 240)"/>
<path fill="none" stroke-width="0.04" stroke-linecap="butt" stroke-linejoin="miter" stroke="rgb(5.490196%, 41.176471%, 25.882353%)" stroke-opacity="1" stroke-miterlimit="10" d="M 2.300026 2.5 C 2.300026 2.578516 2.267695 2.656576 2.212139 2.712109 C 2.156583 2.767643 2.078519 2.8 2 2.8 C 1.921481 2.8 1.843417 2.767643 1.787861 2.712109 C 1.732305 2.656576 1.699974 2.578516 1.699974 2.5 C 1.699974 2.421484 1.732305 2.343424 1.787861 2.287891 C 1.843417 2.232357 1.921481 2.2 2 2.2 C 2.078519 2.2 2.156583 2.232357 2.212139 2.287891 C 2.267695 2.343424 2.300026 2.421484 2.300026 2.5 Z M 2.300026 2.5 " transform="matrix(60.046875, 0, 0, -60, 427, 240)"/>
<path fill="none" stroke-width="0.01" stroke-linecap="butt" stroke-linejoin="miter" stroke="rgb(0%, 0%, 0%)" stroke-opacity="1" stroke-miterlimit="10" d="M -4 -1.5 C -3.333333 -1.666667 -2.666667 -1.833333 -2 -2 " transform="matrix(60.046875, 0, 0, -60, 427, 240)"/>
<path fill="none" stroke-width="0.01" stroke-linecap="butt" stroke-linejoin="miter" stroke="rgb(0%, 0%, 0%)" stroke-opacity="1" stroke-miterlimit="10" d="M -4 -1.5 C -3.333333 -1.333333 -2.666667 -1.166667 -2 -1 " transform="matrix(60.046875, 0, 0, -60, 427, 240)"/>
<path fill="none" stroke-width="0.01" stroke-linecap="butt" stroke-linejoin="miter" stroke="rgb(0%, 0%, 0%)" stroke-opacity="1" stroke-miterlimit="10" d="M -4 -1.5 C -3.333333 -1 -2.666667 -0.5 -2 0 " transform="matrix(60.046875, 0, 0, -60, 427, 240)"/>
<path fill="none" stroke-width="0.01" stroke-linecap="butt" stroke-linejoin="miter" stroke="rgb(0%, 0%, 0%)" stroke-opacity="1" stroke-miterlimit="10" d="M -4 -1.5 C -3.333333 -0.666667 -2.666667 0.166667 -2 1 " transform="matrix(60.046875, 0, 0, -60, 427, 240)"/>
<path fill="none" stroke-width="0.01" stroke-linecap="butt" stroke-linejoin="miter" stroke="rgb(0%, 0%, 0%)" stroke-opacity="1" stroke-miterlimit="10" d="M -4 -0.5 C -3.333333 -1 -2.666667 -1.5 -2 -2 " transform="matrix(60.046875, 0, 0, -60, 427, 240)"/>
<path fill="none" stroke-width="0.01" stroke-linecap="butt" stroke-linejoin="miter" stroke="rgb(0%, 0%, 0%)" stroke-opacity="1" stroke-miterlimit="10" d="M -4 -0.5 C -3.333333 -0.666667 -2.666667 -0.833333 -2 -1 " transform="matrix(60.046875, 0, 0, -60, 427, 240)"/>
<path fill="none" stroke-width="0.01" stroke-linecap="butt" stroke-linejoin="miter" stroke="rgb(0%, 0%, 0%)" stroke-opacity="1" stroke-miterlimit="10" d="M -4 -0.5 C -3.333333 -0.333333 -2.666667 -0.166667 -2 0 " transform="matrix(60.046875, 0, 0, -60, 427, 240)"/>
<path fill="none" stroke-width="0.01" stroke-linecap="butt" stroke-linejoin="miter" stroke="rgb(0%, 0%, 0%)" stroke-opacity="1" stroke-miterlimit="10" d="M -4 -0.5 C -3.333333 0 -2.666667 0.5 -2 1 " transform="matrix(60.046875, 0, 0, -60, 427, 240)"/>
<path fill="none" stroke-width="0.01" stroke-linecap="butt" stroke-linejoin="miter" stroke="rgb(0%, 0%, 0%)" stroke-opacity="1" stroke-miterlimit="10" d="M -4 0.5 C -3.333333 -0.333333 -2.666667 -1.166667 -2 -2 " transform="matrix(60.046875, 0, 0, -60, 427, 240)"/>
<path fill="none" stroke-width="0.01" stroke-linecap="butt" stroke-linejoin="miter" stroke="rgb(0%, 0%, 0%)" stroke-opacity="1" stroke-miterlimit="10" d="M -4 0.5 C -3.333333 0 -2.666667 -0.5 -2 -1 " transform="matrix(60.046875, 0, 0, -60, 427, 240)"/>
<path fill="none" stroke-width="0.01" stroke-linecap="butt" stroke-linejoin="miter" stroke="rgb(0%, 0%, 0%)" stroke-opacity="1" stroke-miterlimit="10" d="M -4 0.5 C -3.333333 0.333333 -2.666667 0.166667 -2 0 " transform="matrix(60.046875, 0, 0, -60, 427, 240)"/>
<path fill="none" stroke-width="0.01" stroke-linecap="butt" stroke-linejoin="miter" stroke="rgb(0%, 0%, 0%)" stroke-opacity="1" stroke-miterlimit="10" d="M -4 0.5 C -3.333333 0.666667 -2.666667 0.833333 -2 1 " transform="matrix(60.046875, 0, 0, -60, 427, 240)"/>
<path fill="none" stroke-width="0.01" stroke-linecap="butt" stroke-linejoin="miter" stroke="rgb(0%, 0%, 0%)" stroke-opacity="1" stroke-miterlimit="10" d="M -2 -2 C -1.333333 -2 -0.666667 -2 0 -2 " transform="matrix(60.046875, 0, 0, -60, 427, 240)"/>
<path fill="none" stroke-width="0.01" stroke-linecap="butt" stroke-linejoin="miter" stroke="rgb(0%, 0%, 0%)" stroke-opacity="1" stroke-miterlimit="10" d="M -2 -2 C -1.333333 -1.666667 -0.666667 -1.333333 0 -1 " transform="matrix(60.046875, 0, 0, -60, 427, 240)"/>
<path fill="none" stroke-width="0.01" stroke-linecap="butt" stroke-linejoin="miter" stroke="rgb(0%, 0%, 0%)" stroke-opacity="1" stroke-miterlimit="10" d="M -2 -2 C -1.333333 -1.333333 -0.666667 -0.666667 0 0 " transform="matrix(60.046875, 0, 0, -60, 427, 240)"/>
<path fill="none" stroke-width="0.01" stroke-linecap="butt" stroke-linejoin="miter" stroke="rgb(0%, 0%, 0%)" stroke-opacity="1" stroke-miterlimit="10" d="M -2 -2 C -1.333333 -1 -0.666667 0 0 1 " transform="matrix(60.046875, 0, 0, -60, 427, 240)"/>
<path fill="none" stroke-width="0.01" stroke-linecap="butt" stroke-linejoin="miter" stroke="rgb(0%, 0%, 0%)" stroke-opacity="1" stroke-miterlimit="10" d="M -2 -1 C -1.333333 -1.333333 -0.666667 -1.666667 0 -2 " transform="matrix(60.046875, 0, 0, -60, 427, 240)"/>
<path fill="none" stroke-width="0.01" stroke-linecap="butt" stroke-linejoin="miter" stroke="rgb(0%, 0%, 0%)" stroke-opacity="1" stroke-miterlimit="10" d="M -2 -1 C -1.333333 -1 -0.666667 -1 0 -1 " transform="matrix(60.046875, 0, 0, -60, 427, 240)"/>
<path fill="none" stroke-width="0.01" stroke-linecap="butt" stroke-linejoin="miter" stroke="rgb(0%, 0%, 0%)" stroke-opacity="1" stroke-miterlimit="10" d="M -2 -1 C -1.333333 -0.666667 -0.666667 -0.333333 0 0 " transform="matrix(60.046875, 0, 0, -60, 427, 240)"/>
<path fill="none" stroke-width="0.01" stroke-linecap="butt" stroke-linejoin="miter" stroke="rgb(0%, 0%, 0%)" stroke-opacity="1" stroke-miterlimit="10" d="M -2 -1 C -1.333333 -0.333333 -0.666667 0.333333 0 1 " transform="matrix(60.046875, 0, 0, -60, 427, 240)"/>
<path fill="none" stroke-width="0.01" stroke-linecap="butt" stroke-linejoin="miter" stroke="rgb(0%, 0%, 0%)" stroke-opacity="1" stroke-miterlimit="10" d="M -2 0 C -1.333333 -0.666667 -0.666667 -1.333333 0 -2 " transform="matrix(60.046875, 0, 0, -60, 427, 240)"/>
<path fill="none" stroke-width="0.01" stroke-linecap="butt" stroke-linejoin="miter" stroke="rgb(0%, 0%, 0%)" stroke-opacity="1" stroke-miterlimit="10" d="M -2 0 C -1.333333 -0.333333 -0.666667 -0.666667 0 -1 " transform="matrix(60.046875, 0, 0, -60, 427, 240)"/>
<path fill="none" stroke-width="0.01" stroke-linecap="butt" stroke-linejoin="miter" stroke="rgb(0%, 0%, 0%)" stroke-opacity="1" stroke-miterlimit="10" d="M -2 0 C -1.333333 0 -0.666667 0 0 0 " transform="matrix(60.046875, 0, 0, -60, 427, 240)"/>
<path fill="none" stroke-width="0.01" stroke-linecap="butt" stroke-linejoin="miter" stroke="rgb(0%, 0%, 0%)" stroke-opacity="1" stroke-miterlimit="10" d="M -2 0 C -1.333333 0.333333 -0.666667 0.666667 0 1 " transform="matrix(60.046875, 0, 0, -60, 427, 240)"/>
<path fill="none" stroke-width="0.01" stroke-linecap="butt" stroke-linejoin="miter" stroke="rgb(0%, 0%, 0%)" stroke-opacity="1" stroke-miterlimit="10" d="M -2 1 C -1.333333 0 -0.666667 -1 0 -2 " transform="matrix(60.046875, 0, 0, -60, 427, 240)"/>
<path fill="none" stroke-width="0.01" stroke-linecap="butt" stroke-linejoin="miter" stroke="rgb(0%, 0%, 0%)" stroke-opacity="1" stroke-miterlimit="10" d="M -2 1 C -1.333333 0.333333 -0.666667 -0.333333 0 -1 " transform="matrix(60.046875, 0, 0, -60, 427, 240)"/>
<path fill="none" stroke-width="0.01" stroke-linecap="butt" stroke-linejoin="miter" stroke="rgb(0%, 0%, 0%)" stroke-opacity="1" stroke-miterlimit="10" d="M -2 1 C -1.333333 0.666667 -0.666667 0.333333 0 0 " transform="matrix(60.046875, 0, 0, -60, 427, 240)"/>
<path fill="none" stroke-width="0.01" stroke-linecap="butt" stroke-linejoin="miter" stroke="rgb(0%, 0%, 0%)" stroke-opacity="1" stroke-miterlimit="10" d="M -2 1 C -1.333333 1 -0.666667 1 0 1 " transform="matrix(60.046875, 0, 0, -60, 427, 240)"/>
<path fill="none" stroke-width="0.01" stroke-linecap="butt" stroke-linejoin="miter" stroke="rgb(0%, 0%, 0%)" stroke-opacity="1" stroke-miterlimit="10" d="M 0 -2 C 0.666667 -2.5 1.333333 -3 2 -3.5 " transform="matrix(60.046875, 0, 0, -60, 427, 240)"/>
<path fill="none" stroke-width="0.01" stroke-linecap="butt" stroke-linejoin="miter" stroke="rgb(0%, 0%, 0%)" stroke-opacity="1" stroke-miterlimit="10" d="M 0 -2 C 0.666667 -2.166667 1.333333 -2.333333 2 -2.5 " transform="matrix(60.046875, 0, 0, -60, 427, 240)"/>
<path fill="none" stroke-width="0.01" stroke-linecap="butt" stroke-linejoin="miter" stroke="rgb(0%, 0%, 0%)" stroke-opacity="1" stroke-miterlimit="10" d="M 0 -2 C 0.666667 -1.833333 1.333333 -1.666667 2 -1.5 " transform="matrix(60.046875, 0, 0, -60, 427, 240)"/>
<path fill="none" stroke-width="0.01" stroke-linecap="butt" stroke-linejoin="miter" stroke="rgb(0%, 0%, 0%)" stroke-opacity="1" stroke-miterlimit="10" d="M 0 -2 C 0.666667 -1.5 1.333333 -1 2 -0.5 " transform="matrix(60.046875, 0, 0, -60, 427, 240)"/>
<path fill="none" stroke-width="0.01" stroke-linecap="butt" stroke-linejoin="miter" stroke="rgb(0%, 0%, 0%)" stroke-opacity="1" stroke-miterlimit="10" d="M 0 -2 C 0.666667 -1.166667 1.333333 -0.333333 2 0.5 " transform="matrix(60.046875, 0, 0, -60, 427, 240)"/>
<path fill="none" stroke-width="0.01" stroke-linecap="butt" stroke-linejoin="miter" stroke="rgb(0%, 0%, 0%)" stroke-opacity="1" stroke-miterlimit="10" d="M 0 -2 C 0.666667 -0.833333 1.333333 0.333333 2 1.5 " transform="matrix(60.046875, 0, 0, -60, 427, 240)"/>
<path fill="none" stroke-width="0.01" stroke-linecap="butt" stroke-linejoin="miter" stroke="rgb(0%, 0%, 0%)" stroke-opacity="1" stroke-miterlimit="10" d="M 0 -2 C 0.666667 -0.5 1.333333 1 2 2.5 " transform="matrix(60.046875, 0, 0, -60, 427, 240)"/>
<path fill="none" stroke-width="0.01" stroke-linecap="butt" stroke-linejoin="miter" stroke="rgb(0%, 0%, 0%)" stroke-opacity="1" stroke-miterlimit="10" d="M 0 -1 C 0.666667 -1.833333 1.333333 -2.666667 2 -3.5 " transform="matrix(60.046875, 0, 0, -60, 427, 240)"/>
<path fill="none" stroke-width="0.01" stroke-linecap="butt" stroke-linejoin="miter" stroke="rgb(0%, 0%, 0%)" stroke-opacity="1" stroke-miterlimit="10" d="M 0 -1 C 0.666667 -1.5 1.333333 -2 2 -2.5 " transform="matrix(60.046875, 0, 0, -60, 427, 240)"/>
<path fill="none" stroke-width="0.01" stroke-linecap="butt" stroke-linejoin="miter" stroke="rgb(0%, 0%, 0%)" stroke-opacity="1" stroke-miterlimit="10" d="M 0 -1 C 0.666667 -1.166667 1.333333 -1.333333 2 -1.5 " transform="matrix(60.046875, 0, 0, -60, 427, 240)"/>
<path fill="none" stroke-width="0.01" stroke-linecap="butt" stroke-linejoin="miter" stroke="rgb(0%, 0%, 0%)" stroke-opacity="1" stroke-miterlimit="10" d="M 0 -1 C 0.666667 -0.833333 1.333333 -0.666667 2 -0.5 " transform="matrix(60.046875, 0, 0, -60, 427, 240)"/>
<path fill="none" stroke-width="0.01" stroke-linecap="butt" stroke-linejoin="miter" stroke="rgb(0%, 0%, 0%)" stroke-opacity="1" stroke-miterlimit="10" d="M 0 -1 C 0.666667 -0.5 1.333333 0 2 0.5 " transform="matrix(60.046875, 0, 0, -60, 427, 240)"/>
<path fill="none" stroke-width="0.01" stroke-linecap="butt" stroke-linejoin="miter" stroke="rgb(0%, 0%, 0%)" stroke-opacity="1" stroke-miterlimit="10" d="M 0 -1 C 0.666667 -0.166667 1.333333 0.666667 2 1.5 " transform="matrix(60.046875, 0, 0, -60, 427, 240)"/>
<path fill="none" stroke-width="0.01" stroke-linecap="butt" stroke-linejoin="miter" stroke="rgb(0%, 0%, 0%)" stroke-opacity="1" stroke-miterlimit="10" d="M 0 -1 C 0.666667 0.166667 1.333333 1.333333 2 2.5 " transform="matrix(60.046875, 0, 0, -60, 427, 240)"/>
<path fill="none" stroke-width="0.01" stroke-linecap="butt" stroke-linejoin="miter" stroke="rgb(0%, 0%, 0%)" stroke-opacity="1" stroke-miterlimit="10" d="M 0 0 C 0.666667 -1.166667 1.333333 -2.333333 2 -3.5 " transform="matrix(60.046875, 0, 0, -60, 427, 240)"/>
<path fill="none" stroke-width="0.01" stroke-linecap="butt" stroke-linejoin="miter" stroke="rgb(0%, 0%, 0%)" stroke-opacity="1" stroke-miterlimit="10" d="M 0 0 C 0.666667 -0.833333 1.333333 -1.666667 2 -2.5 " transform="matrix(60.046875, 0, 0, -60, 427, 240)"/>
<path fill="none" stroke-width="0.01" stroke-linecap="butt" stroke-linejoin="miter" stroke="rgb(0%, 0%, 0%)" stroke-opacity="1" stroke-miterlimit="10" d="M 0 0 C 0.666667 -0.5 1.333333 -1 2 -1.5 " transform="matrix(60.046875, 0, 0, -60, 427, 240)"/>
<path fill="none" stroke-width="0.01" stroke-linecap="butt" stroke-linejoin="miter" stroke="rgb(0%, 0%, 0%)" stroke-opacity="1" stroke-miterlimit="10" d="M 0 0 C 0.666667 -0.166667 1.333333 -0.333333 2 -0.5 " transform="matrix(60.046875, 0, 0, -60, 427, 240)"/>
<path fill="none" stroke-width="0.01" stroke-linecap="butt" stroke-linejoin="miter" stroke="rgb(0%, 0%, 0%)" stroke-opacity="1" stroke-miterlimit="10" d="M 0 0 C 0.666667 0.166667 1.333333 0.333333 2 0.5 " transform="matrix(60.046875, 0, 0, -60, 427, 240)"/>
<path fill="none" stroke-width="0.01" stroke-linecap="butt" stroke-linejoin="miter" stroke="rgb(0%, 0%, 0%)" stroke-opacity="1" stroke-miterlimit="10" d="M 0 0 C 0.666667 0.5 1.333333 1 2 1.5 " transform="matrix(60.046875, 0, 0, -60, 427, 240)"/>
<path fill="none" stroke-width="0.01" stroke-linecap="butt" stroke-linejoin="miter" stroke="rgb(0%, 0%, 0%)" stroke-opacity="1" stroke-miterlimit="10" d="M 0 0 C 0.666667 0.833333 1.333333 1.666667 2 2.5 " transform="matrix(60.046875, 0, 0, -60, 427, 240)"/>
<path fill="none" stroke-width="0.01" stroke-linecap="butt" stroke-linejoin="miter" stroke="rgb(0%, 0%, 0%)" stroke-opacity="1" stroke-miterlimit="10" d="M 0 1 C 0.666667 -0.5 1.333333 -2 2 -3.5 " transform="matrix(60.046875, 0, 0, -60, 427, 240)"/>
<path fill="none" stroke-width="0.01" stroke-linecap="butt" stroke-linejoin="miter" stroke="rgb(0%, 0%, 0%)" stroke-opacity="1" stroke-miterlimit="10" d="M 0 1 C 0.666667 -0.166667 1.333333 -1.333333 2 -2.5 " transform="matrix(60.046875, 0, 0, -60, 427, 240)"/>
<path fill="none" stroke-width="0.01" stroke-linecap="butt" stroke-linejoin="miter" stroke="rgb(0%, 0%, 0%)" stroke-opacity="1" stroke-miterlimit="10" d="M 0 1 C 0.666667 0.166667 1.333333 -0.666667 2 -1.5 " transform="matrix(60.046875, 0, 0, -60, 427, 240)"/>
<path fill="none" stroke-width="0.01" stroke-linecap="butt" stroke-linejoin="miter" stroke="rgb(0%, 0%, 0%)" stroke-opacity="1" stroke-miterlimit="10" d="M 0 1 C 0.666667 0.5 1.333333 0 2 -0.5 " transform="matrix(60.046875, 0, 0, -60, 427, 240)"/>
<path fill="none" stroke-width="0.01" stroke-linecap="butt" stroke-linejoin="miter" stroke="rgb(0%, 0%, 0%)" stroke-opacity="1" stroke-miterlimit="10" d="M 0 1 C 0.666667 0.833333 1.333333 0.666667 2 0.5 " transform="matrix(60.046875, 0, 0, -60, 427, 240)"/>
<path fill="none" stroke-width="0.01" stroke-linecap="butt" stroke-linejoin="miter" stroke="rgb(0%, 0%, 0%)" stroke-opacity="1" stroke-miterlimit="10" d="M 0 1 C 0.666667 1.166667 1.333333 1.333333 2 1.5 " transform="matrix(60.046875, 0, 0, -60, 427, 240)"/>
<path fill="none" stroke-width="0.01" stroke-linecap="butt" stroke-linejoin="miter" stroke="rgb(0%, 0%, 0%)" stroke-opacity="1" stroke-miterlimit="10" d="M 0 1 C 0.666667 1.5 1.333333 2 2 2.5 " transform="matrix(60.046875, 0, 0, -60, 427, 240)"/>
<path fill-rule="nonzero" fill="rgb(0%, 0%, 0%)" fill-opacity="1" d="M 590.976562 458.933594 C 590.011719 458.933594 589.042969 458.933594 588.078125 458.933594 C 586.449219 456.828125 584.816406 454.722656 583.1875 452.621094 C 582.898438 452.902344 582.609375 453.183594 582.320312 453.464844 C 582.320312 455.285156 582.320312 457.109375 582.320312 458.933594 C 581.585938 458.933594 580.855469 458.933594 580.121094 458.933594 C 580.121094 452.855469 580.121094 446.777344 580.121094 440.703125 C 580.855469 440.703125 581.585938 440.703125 582.320312 440.703125 C 582.320312 444.257812 582.320312 447.816406 582.320312 451.375 C 584.050781 449.53125 585.78125 447.683594 587.507812 445.839844 C 588.421875 445.839844 589.335938 445.839844 590.253906 445.839844 C 588.457031 447.667969 586.664062 449.492188 584.871094 451.316406 C 586.90625 453.855469 588.941406 456.394531 590.976562 458.933594 Z M 590.976562 458.933594 "/>
<path fill-rule="nonzero" fill="rgb(0%, 0%, 0%)" fill-opacity="1" d="M 599.667969 448.210938 C 599.628906 448.210938 599.59375 448.210938 599.554688 448.210938 C 599.386719 448.160156 599.21875 448.132812 599.027344 448.125 C 598.84375 448.113281 598.625 448.105469 598.367188 448.105469 C 597.773438 448.105469 597.183594 448.230469 596.597656 448.492188 C 596.007812 448.75 595.453125 449.132812 594.933594 449.636719 C 594.933594 452.738281 594.933594 455.835938 594.933594 458.933594 C 594.199219 458.933594 593.464844 458.933594 592.730469 458.933594 C 592.730469 454.570312 592.730469 450.203125 592.730469 445.839844 C 593.464844 445.839844 594.199219 445.839844 594.933594 445.839844 C 594.933594 446.488281 594.933594 447.140625 594.933594 447.789062 C 595.734375 447.078125 596.4375 446.578125 597.035156 446.285156 C 597.632812 445.988281 598.21875 445.839844 598.78125 445.839844 C 599.007812 445.839844 599.175781 445.847656 599.289062 445.863281 C 599.398438 445.875 599.527344 445.890625 599.667969 445.910156 C 599.667969 446.675781 599.667969 447.445312 599.667969 448.210938 Z M 599.667969 448.210938 "/>
<path fill-rule="nonzero" fill="rgb(0%, 0%, 0%)" fill-opacity="1" d="M 608.851562 455.714844 C 608.851562 454.5 608.851562 453.289062 608.851562 452.078125 C 608.324219 452.125 607.660156 452.191406 606.859375 452.273438 C 606.058594 452.351562 605.410156 452.472656 604.917969 452.621094 C 604.332031 452.796875 603.847656 453.070312 603.46875 453.441406 C 603.082031 453.8125 602.890625 454.335938 602.890625 454.996094 C 602.890625 455.75 603.101562 456.3125 603.523438 456.695312 C 603.945312 457.078125 604.566406 457.265625 605.375 457.265625 C 606.070312 457.265625 606.703125 457.121094 607.265625 456.816406 C 607.832031 456.515625 608.359375 456.148438 608.851562 455.714844 Z M 608.851562 457.539062 C 608.667969 457.675781 608.429688 457.859375 608.125 458.097656 C 607.824219 458.335938 607.535156 458.527344 607.253906 458.664062 C 606.859375 458.871094 606.484375 459.023438 606.121094 459.128906 C 605.753906 459.242188 605.246094 459.296875 604.59375 459.296875 C 604.050781 459.296875 603.539062 459.191406 603.050781 458.988281 C 602.566406 458.785156 602.144531 458.503906 601.777344 458.140625 C 601.425781 457.78125 601.144531 457.335938 600.933594 456.808594 C 600.722656 456.28125 600.617188 455.71875 600.617188 455.136719 C 600.617188 454.230469 600.808594 453.457031 601.1875 452.824219 C 601.574219 452.183594 602.179688 451.675781 603.011719 451.304688 C 603.742188 450.96875 604.605469 450.734375 605.613281 450.609375 C 606.613281 450.480469 607.691406 450.382812 608.851562 450.320312 C 608.851562 450.179688 608.851562 450.039062 608.851562 449.898438 C 608.851562 449.382812 608.773438 448.96875 608.609375 448.652344 C 608.457031 448.335938 608.238281 448.089844 607.957031 447.914062 C 607.675781 447.738281 607.332031 447.621094 606.921875 447.5625 C 606.519531 447.5 606.097656 447.472656 605.671875 447.472656 C 605.164062 447.472656 604.566406 447.550781 603.875 447.703125 C 603.1875 447.851562 602.496094 448.078125 601.8125 448.363281 C 601.769531 448.363281 601.726562 448.363281 601.679688 448.363281 C 601.679688 447.617188 601.679688 446.871094 601.679688 446.121094 C 602.089844 446.007812 602.671875 445.875 603.433594 445.734375 C 604.183594 445.59375 604.9375 445.523438 605.683594 445.523438 C 606.578125 445.523438 607.335938 445.59375 607.957031 445.734375 C 608.574219 445.875 609.132812 446.128906 609.625 446.5 C 610.097656 446.859375 610.453125 447.324219 610.6875 447.894531 C 610.925781 448.464844 611.039062 449.160156 611.039062 449.984375 C 611.039062 452.964844 611.039062 455.949219 611.039062 458.933594 C 610.308594 458.933594 609.578125 458.933594 608.851562 458.933594 C 608.851562 458.46875 608.851562 458.003906 608.851562 457.539062 Z M 608.851562 457.539062 "/>
<path fill-rule="nonzero" fill="rgb(0%, 0%, 0%)" fill-opacity="1" d="M 624.640625 458.933594 C 623.90625 458.933594 623.171875 458.933594 622.4375 458.933594 C 622.4375 456.449219 622.4375 453.964844 622.4375 451.480469 C 622.4375 450.875 622.402344 450.320312 622.347656 449.800781 C 622.289062 449.28125 622.179688 448.863281 622.015625 448.546875 C 621.832031 448.222656 621.585938 447.976562 621.261719 447.816406 C 620.941406 447.65625 620.503906 447.578125 619.949219 447.578125 C 619.40625 447.578125 618.835938 447.726562 618.25 448.019531 C 617.675781 448.308594 617.105469 448.6875 616.546875 449.160156 C 616.546875 452.417969 616.546875 455.675781 616.546875 458.933594 C 615.816406 458.933594 615.082031 458.933594 614.347656 458.933594 C 614.347656 454.570312 614.347656 450.203125 614.347656 445.839844 C 615.082031 445.839844 615.816406 445.839844 616.546875 445.839844 C 616.546875 446.324219 616.546875 446.8125 616.546875 447.296875 C 617.203125 446.714844 617.859375 446.261719 618.496094 445.945312 C 619.136719 445.636719 619.8125 445.484375 620.523438 445.484375 C 621.8125 445.484375 622.824219 445.90625 623.550781 446.753906 C 624.273438 447.597656 624.640625 448.828125 624.640625 450.4375 C 624.640625 453.269531 624.640625 456.101562 624.640625 458.933594 Z M 624.640625 458.933594 "/>
<path fill-rule="nonzero" fill="rgb(0%, 0%, 0%)" fill-opacity="1" d="M 630.917969 459.191406 C 629.714844 459.191406 628.777344 458.847656 628.101562 458.167969 C 627.425781 457.484375 627.097656 456.402344 627.097656 454.925781 C 627.097656 452.507812 627.097656 450.089844 627.097656 447.667969 C 626.597656 447.667969 626.101562 447.667969 625.605469 447.667969 C 625.605469 447.058594 625.605469 446.449219 625.605469 445.839844 C 626.101562 445.839844 626.597656 445.839844 627.097656 445.839844 C 627.097656 444.585938 627.097656 443.332031 627.097656 442.078125 C 627.832031 442.078125 628.566406 442.078125 629.300781 442.078125 C 629.300781 443.332031 629.300781 444.585938 629.300781 445.839844 C 630.652344 445.839844 632.007812 445.839844 633.359375 445.839844 C 633.359375 446.449219 633.359375 447.058594 633.359375 447.667969 C 632.007812 447.667969 630.652344 447.667969 629.300781 447.667969 C 629.300781 449.742188 629.300781 451.816406 629.300781 453.890625 C 629.300781 454.558594 629.3125 455.074219 629.335938 455.433594 C 629.355469 455.789062 629.445312 456.128906 629.601562 456.4375 C 629.734375 456.710938 629.953125 456.914062 630.25 457.046875 C 630.542969 457.1875 630.945312 457.257812 631.460938 457.257812 C 631.820312 457.257812 632.164062 457.203125 632.5 457.097656 C 632.839844 456.992188 633.078125 456.90625 633.226562 456.839844 C 633.269531 456.839844 633.316406 456.839844 633.359375 456.839844 C 633.359375 457.496094 633.359375 458.15625 633.359375 458.8125 C 632.945312 458.933594 632.523438 459.023438 632.09375 459.085938 C 631.671875 459.15625 631.277344 459.191406 630.917969 459.191406 Z M 630.917969 459.191406 "/>
<path fill-rule="nonzero" fill="rgb(0%, 0%, 0%)" fill-opacity="1" d="M 591.960938 393.757812 C 591.960938 394.628906 591.800781 395.398438 591.46875 396.058594 C 591.140625 396.71875 590.703125 397.265625 590.148438 397.695312 C 589.484375 398.214844 588.78125 398.582031 588.035156 398.792969 C 587.28125 399.011719 586.3125 399.117188 585.121094 399.117188 C 583.453125 399.117188 581.789062 399.117188 580.121094 399.117188 C 580.121094 393.300781 580.121094 387.480469 580.121094 381.664062 C 581.664062 381.664062 583.207031 381.664062 584.75 381.664062 C 585.996094 381.664062 586.925781 381.707031 587.542969 381.789062 C 588.167969 381.875 588.769531 382.066406 589.335938 382.367188 C 589.964844 382.703125 590.421875 383.148438 590.710938 383.691406 C 591 384.230469 591.140625 384.871094 591.140625 385.601562 C 591.140625 386.425781 590.921875 387.15625 590.492188 387.808594 C 590.054688 388.457031 589.457031 388.960938 588.691406 389.328125 C 588.691406 389.363281 588.691406 389.394531 588.691406 389.425781 C 589.730469 389.707031 590.535156 390.222656 591.105469 390.964844 C 591.675781 391.710938 591.960938 392.640625 591.960938 393.757812 Z M 588.726562 385.933594 C 588.726562 385.511719 588.65625 385.144531 588.515625 384.835938 C 588.375 384.527344 588.148438 384.289062 587.832031 384.105469 C 587.457031 383.894531 587.042969 383.765625 586.578125 383.71875 C 586.113281 383.667969 585.480469 383.648438 584.664062 383.648438 C 583.925781 383.648438 583.183594 383.648438 582.441406 383.648438 C 582.441406 385.351562 582.441406 387.054688 582.441406 388.757812 C 583.320312 388.757812 584.199219 388.757812 585.082031 388.757812 C 585.804688 388.757812 586.339844 388.714844 586.683594 388.648438 C 587.03125 388.570312 587.382812 388.414062 587.753906 388.183594 C 588.105469 387.957031 588.351562 387.664062 588.5 387.289062 C 588.648438 386.921875 588.726562 386.472656 588.726562 385.933594 Z M 589.546875 393.855469 C 589.546875 393.195312 589.449219 392.652344 589.265625 392.230469 C 589.078125 391.804688 588.699219 391.445312 588.128906 391.148438 C 587.761719 390.953125 587.359375 390.824219 586.925781 390.769531 C 586.496094 390.722656 585.875 390.691406 585.082031 390.691406 C 584.199219 390.691406 583.320312 390.691406 582.441406 390.691406 C 582.441406 392.839844 582.441406 394.988281 582.441406 397.132812 C 583.070312 397.132812 583.699219 397.132812 584.328125 397.132812 C 585.339844 397.132812 586.144531 397.089844 586.734375 396.992188 C 587.316406 396.902344 587.832031 396.703125 588.28125 396.394531 C 588.71875 396.09375 589.035156 395.746094 589.238281 395.359375 C 589.441406 394.976562 589.546875 394.46875 589.546875 393.855469 Z M 589.546875 393.855469 "/>
<path fill-rule="nonzero" fill="rgb(0%, 0%, 0%)" fill-opacity="1" d="M 596.675781 399.117188 C 595.941406 399.117188 595.203125 399.117188 594.46875 399.117188 C 594.46875 393.039062 594.46875 386.960938 594.46875 380.882812 C 595.203125 380.882812 595.941406 380.882812 596.675781 380.882812 C 596.675781 386.960938 596.675781 393.039062 596.675781 399.117188 Z M 596.675781 399.117188 "/>
<path fill-rule="nonzero" fill="rgb(0%, 0%, 0%)" fill-opacity="1" d="M 602.023438 399.117188 C 601.285156 399.117188 600.550781 399.117188 599.8125 399.117188 C 599.8125 394.75 599.8125 390.386719 599.8125 386.023438 C 600.550781 386.023438 601.285156 386.023438 602.023438 386.023438 C 602.023438 390.386719 602.023438 394.75 602.023438 399.117188 Z M 602.171875 383.835938 C 601.335938 383.835938 600.5 383.835938 599.664062 383.835938 C 599.664062 383.074219 599.664062 382.3125 599.664062 381.550781 C 600.5 381.550781 601.335938 381.550781 602.171875 381.550781 C 602.171875 382.3125 602.171875 383.074219 602.171875 383.835938 Z M 602.171875 383.835938 "/>
<path fill-rule="nonzero" fill="rgb(0%, 0%, 0%)" fill-opacity="1" d="M 616.019531 399.117188 C 615.054688 399.117188 614.089844 399.117188 613.121094 399.117188 C 611.492188 397.011719 609.863281 394.90625 608.230469 392.800781 C 607.941406 393.082031 607.65625 393.363281 607.367188 393.644531 C 607.367188 395.46875 607.367188 397.292969 607.367188 399.117188 C 606.632812 399.117188 605.898438 399.117188 605.164062 399.117188 C 605.164062 393.039062 605.164062 386.960938 605.164062 380.882812 C 605.898438 380.882812 606.632812 380.882812 607.367188 380.882812 C 607.367188 384.441406 607.367188 388 607.367188 391.558594 C 609.09375 389.710938 610.824219 387.867188 612.550781 386.023438 C 613.464844 386.023438 614.382812 386.023438 615.296875 386.023438 C 613.5 387.847656 611.707031 389.675781 609.914062 391.5 C 611.949219 394.039062 613.984375 396.578125 616.019531 399.117188 Z M 616.019531 399.117188 "/>
<path fill-rule="nonzero" fill="rgb(0%, 0%, 0%)" fill-opacity="1" d="M 590.570312 323.574219 C 587.859375 323.574219 585.152344 323.574219 582.441406 323.574219 C 582.441406 325.214844 582.441406 326.855469 582.441406 328.496094 C 585.035156 328.496094 587.628906 328.496094 590.222656 328.496094 C 590.222656 329.183594 590.222656 329.867188 590.222656 330.554688 C 587.628906 330.554688 585.035156 330.554688 582.441406 330.554688 C 582.441406 333.355469 582.441406 336.15625 582.441406 338.957031 C 581.667969 338.957031 580.894531 338.957031 580.121094 338.957031 C 580.121094 333.140625 580.121094 327.324219 580.121094 321.507812 C 583.601562 321.507812 587.085938 321.507812 590.570312 321.507812 C 590.570312 322.195312 590.570312 322.882812 590.570312 323.574219 Z M 590.570312 323.574219 "/>
<path fill-rule="nonzero" fill="rgb(0%, 0%, 0%)" fill-opacity="1" d="M 594.804688 338.957031 C 594.070312 338.957031 593.332031 338.957031 592.59375 338.957031 C 592.59375 332.878906 592.59375 326.804688 592.59375 320.726562 C 593.332031 320.726562 594.070312 320.726562 594.804688 320.726562 C 594.804688 326.804688 594.804688 332.878906 594.804688 338.957031 Z M 594.804688 338.957031 "/>
<path fill-rule="nonzero" fill="rgb(0%, 0%, 0%)" fill-opacity="1" d="M 603.644531 339.261719 C 601.554688 339.261719 599.933594 338.675781 598.78125 337.503906 C 597.625 336.320312 597.050781 334.65625 597.050781 332.488281 C 597.050781 330.359375 597.613281 328.65625 598.730469 327.398438 C 599.851562 326.132812 601.308594 325.507812 603.117188 325.507812 C 603.933594 325.507812 604.648438 325.621094 605.277344 325.859375 C 605.902344 326.089844 606.445312 326.457031 606.914062 326.957031 C 607.386719 327.453125 607.746094 328.066406 607.992188 328.789062 C 608.246094 329.515625 608.371094 330.402344 608.371094 331.449219 C 608.371094 331.847656 608.371094 332.246094 608.371094 332.644531 C 605.347656 332.644531 602.320312 332.644531 599.292969 332.644531 C 599.292969 334.164062 599.675781 335.328125 600.441406 336.132812 C 601.207031 336.941406 602.265625 337.339844 603.621094 337.339844 C 604.109375 337.339844 604.578125 337.285156 605.042969 337.179688 C 605.507812 337.066406 605.929688 336.925781 606.304688 336.757812 C 606.703125 336.574219 607.042969 336.398438 607.316406 336.238281 C 607.589844 336.066406 607.816406 335.90625 607.992188 335.757812 C 608.035156 335.757812 608.082031 335.757812 608.125 335.757812 C 608.125 336.558594 608.125 337.363281 608.125 338.164062 C 607.867188 338.261719 607.542969 338.386719 607.160156 338.542969 C 606.78125 338.691406 606.4375 338.808594 606.128906 338.902344 C 605.699219 339.015625 605.3125 339.105469 604.960938 339.167969 C 604.613281 339.230469 604.179688 339.261719 603.644531 339.261719 Z M 606.226562 330.957031 C 606.203125 330.359375 606.132812 329.84375 606.015625 329.417969 C 605.886719 328.988281 605.707031 328.628906 605.472656 328.328125 C 605.210938 328.003906 604.882812 327.75 604.480469 327.582031 C 604.078125 327.40625 603.578125 327.320312 602.988281 327.320312 C 602.398438 327.320312 601.898438 327.414062 601.488281 327.589844 C 601.082031 327.765625 600.710938 328.015625 600.371094 328.355469 C 600.039062 328.699219 599.792969 329.078125 599.617188 329.492188 C 599.449219 329.914062 599.335938 330.402344 599.292969 330.957031 C 601.605469 330.957031 603.914062 330.957031 606.226562 330.957031 Z M 606.226562 330.957031 "/>
<path fill-rule="nonzero" fill="rgb(0%, 0%, 0%)" fill-opacity="1" d="M 614.105469 339.273438 C 613.234375 339.273438 612.410156 339.15625 611.652344 338.921875 C 610.882812 338.691406 610.257812 338.4375 609.757812 338.171875 C 609.757812 337.347656 609.757812 336.523438 609.757812 335.703125 C 609.796875 335.703125 609.832031 335.703125 609.871094 335.703125 C 610.0625 335.851562 610.277344 336.011719 610.53125 336.195312 C 610.792969 336.371094 611.128906 336.558594 611.550781 336.757812 C 611.925781 336.925781 612.339844 337.082031 612.785156 337.214844 C 613.234375 337.347656 613.707031 337.410156 614.191406 337.410156 C 614.542969 337.410156 614.917969 337.367188 615.316406 337.292969 C 615.710938 337.207031 616.015625 337.101562 616.203125 336.976562 C 616.476562 336.800781 616.675781 336.609375 616.796875 336.40625 C 616.921875 336.203125 616.976562 335.890625 616.976562 335.492188 C 616.976562 334.964844 616.835938 334.570312 616.554688 334.304688 C 616.265625 334.042969 615.761719 333.816406 615.035156 333.636719 C 614.753906 333.566406 614.382812 333.488281 613.929688 333.390625 C 613.480469 333.296875 613.058594 333.199219 612.679688 333.085938 C 611.671875 332.796875 610.949219 332.347656 610.496094 331.742188 C 610.039062 331.140625 609.816406 330.40625 609.816406 329.550781 C 609.816406 328.367188 610.257812 327.40625 611.152344 326.667969 C 612.046875 325.921875 613.226562 325.550781 614.707031 325.550781 C 615.429688 325.550781 616.160156 325.640625 616.902344 325.824219 C 617.632812 326 618.25 326.222656 618.75 326.5 C 618.75 327.285156 618.75 328.070312 618.75 328.855469 C 618.710938 328.855469 618.671875 328.855469 618.632812 328.855469 C 618.070312 328.410156 617.441406 328.058594 616.753906 327.800781 C 616.054688 327.546875 615.359375 327.414062 614.65625 327.414062 C 613.929688 327.414062 613.320312 327.566406 612.820312 327.871094 C 612.320312 328.179688 612.066406 328.636719 612.066406 329.253906 C 612.066406 329.804688 612.214844 330.210938 612.507812 330.476562 C 612.8125 330.746094 613.285156 330.96875 613.945312 331.140625 C 614.269531 331.230469 614.632812 331.308594 615.035156 331.390625 C 615.445312 331.476562 615.867188 331.566406 616.308594 331.679688 C 617.28125 331.917969 618.011719 332.328125 618.496094 332.890625 C 618.992188 333.453125 619.230469 334.21875 619.230469 335.183594 C 619.230469 335.746094 619.117188 336.277344 618.898438 336.785156 C 618.675781 337.292969 618.351562 337.71875 617.921875 338.078125 C 617.449219 338.472656 616.921875 338.769531 616.332031 338.972656 C 615.738281 339.175781 615 339.273438 614.105469 339.273438 Z M 614.105469 339.273438 "/>
<path fill-rule="nonzero" fill="rgb(0%, 0%, 0%)" fill-opacity="1" d="M 589.746094 278.933594 C 586.535156 278.933594 583.328125 278.933594 580.121094 278.933594 C 580.121094 278.390625 580.121094 277.84375 580.121094 277.300781 C 582.402344 274.089844 584.683594 270.875 586.964844 267.660156 C 584.777344 267.660156 582.589844 267.660156 580.402344 267.660156 C 580.402344 267.054688 580.402344 266.449219 580.402344 265.839844 C 583.472656 265.839844 586.546875 265.839844 589.617188 265.839844 C 589.617188 266.367188 589.617188 266.890625 589.617188 267.414062 C 587.324219 270.640625 585.027344 273.867188 582.730469 277.089844 C 585.070312 277.089844 587.40625 277.089844 589.746094 277.089844 C 589.746094 277.703125 589.746094 278.320312 589.746094 278.933594 Z M 589.746094 278.933594 "/>
<path fill-rule="nonzero" fill="rgb(0%, 0%, 0%)" fill-opacity="1" d="M 599.265625 275.714844 C 599.265625 274.5 599.265625 273.289062 599.265625 272.078125 C 598.738281 272.125 598.078125 272.191406 597.273438 272.273438 C 596.472656 272.351562 595.824219 272.472656 595.332031 272.621094 C 594.75 272.796875 594.261719 273.070312 593.882812 273.441406 C 593.496094 273.8125 593.304688 274.335938 593.304688 274.996094 C 593.304688 275.75 593.515625 276.3125 593.941406 276.695312 C 594.363281 277.078125 594.980469 277.265625 595.789062 277.265625 C 596.488281 277.265625 597.121094 277.121094 597.683594 276.816406 C 598.246094 276.515625 598.773438 276.148438 599.265625 275.714844 Z M 599.265625 277.539062 C 599.082031 277.675781 598.84375 277.859375 598.542969 278.097656 C 598.238281 278.335938 597.949219 278.527344 597.667969 278.664062 C 597.273438 278.871094 596.902344 279.023438 596.535156 279.128906 C 596.171875 279.242188 595.664062 279.296875 595.007812 279.296875 C 594.46875 279.296875 593.953125 279.191406 593.46875 278.988281 C 592.984375 278.785156 592.558594 278.503906 592.195312 278.140625 C 591.84375 277.78125 591.5625 277.335938 591.351562 276.808594 C 591.140625 276.28125 591.035156 275.71875 591.035156 275.136719 C 591.035156 274.230469 591.222656 273.457031 591.601562 272.824219 C 591.992188 272.183594 592.59375 271.675781 593.425781 271.304688 C 594.15625 270.96875 595.023438 270.734375 596.03125 270.609375 C 597.027344 270.480469 598.105469 270.382812 599.265625 270.320312 C 599.265625 270.179688 599.265625 270.039062 599.265625 269.898438 C 599.265625 269.382812 599.1875 268.96875 599.027344 268.652344 C 598.871094 268.335938 598.65625 268.089844 598.371094 267.914062 C 598.089844 267.738281 597.746094 267.621094 597.339844 267.5625 C 596.9375 267.5 596.515625 267.472656 596.085938 267.472656 C 595.578125 267.472656 594.980469 267.550781 594.292969 267.703125 C 593.601562 267.851562 592.914062 268.078125 592.230469 268.363281 C 592.183594 268.363281 592.140625 268.363281 592.097656 268.363281 C 592.097656 267.617188 592.097656 266.871094 592.097656 266.121094 C 592.503906 266.007812 593.089844 265.875 593.847656 265.734375 C 594.601562 265.59375 595.355469 265.523438 596.101562 265.523438 C 596.992188 265.523438 597.753906 265.59375 598.371094 265.734375 C 598.992188 265.875 599.546875 266.128906 600.039062 266.5 C 600.511719 266.859375 600.871094 267.324219 601.101562 267.894531 C 601.34375 268.464844 601.453125 269.160156 601.453125 269.984375 C 601.453125 272.964844 601.453125 275.949219 601.453125 278.933594 C 600.726562 278.933594 599.996094 278.933594 599.265625 278.933594 C 599.265625 278.46875 599.265625 278.003906 599.265625 277.539062 Z M 599.265625 277.539062 "/>
<path fill-rule="nonzero" fill="rgb(0%, 0%, 0%)" fill-opacity="1" stroke-width="0.000000000000000004" stroke-linecap="butt" stroke-linejoin="miter" stroke="rgb(100%, 100%, 100%)" stroke-opacity="1" stroke-miterlimit="10" d="M 3.137783 -0.648893 C 3.121715 -0.648893 3.105647 -0.648893 3.089513 -0.648893 C 3.062386 -0.613802 3.035259 -0.578711 3.008067 -0.543685 C 3.003253 -0.548372 2.998504 -0.55306 2.99369 -0.557747 C 2.99369 -0.588086 2.99369 -0.61849 2.99369 -0.648893 C 2.98146 -0.648893 2.96923 -0.648893 2.957 -0.648893 C 2.957 -0.547591 2.957 -0.446289 2.957 -0.345052 C 2.96923 -0.345052 2.98146 -0.345052 2.99369 -0.345052 C 2.99369 -0.404297 2.99369 -0.463607 2.99369 -0.522917 C 3.022443 -0.492188 3.051262 -0.461393 3.080016 -0.430664 C 3.095303 -0.430664 3.110526 -0.430664 3.125748 -0.430664 C 3.095889 -0.461133 3.065964 -0.491536 3.036105 -0.52194 C 3.069997 -0.564258 3.10389 -0.606576 3.137783 -0.648893 Z M 3.137783 -0.648893 " transform="matrix(60.046875, 0, 0, -60, 427, 240)"/>
<path fill-rule="nonzero" fill="rgb(0%, 0%, 0%)" fill-opacity="1" d="M 588.273438 202.871094 C 588.234375 202.871094 588.195312 202.871094 588.15625 202.871094 C 587.957031 202.800781 587.675781 202.730469 587.3125 202.667969 C 586.945312 202.597656 586.613281 202.5625 586.324219 202.5625 C 585.398438 202.5625 584.734375 202.773438 584.335938 203.1875 C 583.941406 203.609375 583.742188 204.359375 583.742188 205.457031 C 583.742188 205.605469 583.742188 205.753906 583.742188 205.902344 C 584.960938 205.902344 586.179688 205.902344 587.394531 205.902344 C 587.394531 206.511719 587.394531 207.121094 587.394531 207.730469 C 586.203125 207.730469 585.007812 207.730469 583.8125 207.730469 C 583.8125 211.484375 583.8125 215.238281 583.8125 218.992188 C 583.078125 218.992188 582.34375 218.992188 581.609375 218.992188 C 581.609375 215.238281 581.609375 211.484375 581.609375 207.730469 C 581.113281 207.730469 580.617188 207.730469 580.121094 207.730469 C 580.121094 207.121094 580.121094 206.511719 580.121094 205.902344 C 580.617188 205.902344 581.113281 205.902344 581.609375 205.902344 C 581.609375 205.757812 581.609375 205.613281 581.609375 205.472656 C 581.609375 203.890625 581.992188 202.695312 582.75 201.871094 C 583.503906 201.050781 584.59375 200.640625 586.007812 200.640625 C 586.417969 200.640625 586.8125 200.664062 587.207031 200.703125 C 587.597656 200.746094 587.953125 200.796875 588.273438 200.851562 C 588.273438 201.523438 588.273438 202.199219 588.273438 202.871094 Z M 588.273438 202.871094 "/>
<path fill-rule="nonzero" fill="rgb(0%, 0%, 0%)" fill-opacity="1" d="M 599.242188 212.453125 C 599.242188 214.65625 598.714844 216.355469 597.652344 217.558594 C 596.589844 218.753906 595.167969 219.359375 593.402344 219.359375 C 591.578125 219.359375 590.152344 218.738281 589.109375 217.503906 C 588.058594 216.257812 587.539062 214.578125 587.539062 212.453125 C 587.539062 210.265625 588.074219 208.566406 589.152344 207.355469 C 590.226562 206.148438 591.640625 205.542969 593.402344 205.542969 C 595.167969 205.542969 596.589844 206.148438 597.652344 207.347656 C 598.714844 208.558594 599.242188 210.261719 599.242188 212.453125 Z M 596.96875 212.453125 C 596.96875 210.757812 596.660156 209.5 596.039062 208.679688 C 595.429688 207.847656 594.546875 207.441406 593.402344 207.441406 C 592.253906 207.441406 591.367188 207.847656 590.75 208.679688 C 590.121094 209.5 589.8125 210.757812 589.8125 212.453125 C 589.8125 214.09375 590.121094 215.335938 590.75 216.1875 C 591.367188 217.03125 592.253906 217.460938 593.402344 217.460938 C 594.535156 217.460938 595.414062 217.039062 596.03125 216.207031 C 596.660156 215.378906 596.96875 214.128906 596.96875 212.453125 Z M 596.96875 212.453125 "/>
<path fill-rule="nonzero" fill="rgb(0%, 0%, 0%)" fill-opacity="1" d="M 603.445312 218.992188 C 602.710938 218.992188 601.972656 218.992188 601.238281 218.992188 C 601.238281 212.914062 601.238281 206.839844 601.238281 200.761719 C 601.972656 200.761719 602.710938 200.761719 603.445312 200.761719 C 603.445312 206.839844 603.445312 212.914062 603.445312 218.992188 Z M 603.445312 218.992188 "/>
<path fill-rule="nonzero" fill="rgb(0%, 0%, 0%)" fill-opacity="1" d="M 608.863281 218.992188 C 608.125 218.992188 607.390625 218.992188 606.652344 218.992188 C 606.652344 214.628906 606.652344 210.265625 606.652344 205.902344 C 607.390625 205.902344 608.125 205.902344 608.863281 205.902344 C 608.863281 210.265625 608.863281 214.628906 608.863281 218.992188 Z M 609.011719 203.714844 C 608.175781 203.714844 607.339844 203.714844 606.503906 203.714844 C 606.503906 202.953125 606.503906 202.191406 606.503906 201.429688 C 607.339844 201.429688 608.175781 201.429688 609.011719 201.429688 C 609.011719 202.191406 609.011719 202.953125 609.011719 203.714844 Z M 609.011719 203.714844 "/>
<path fill-rule="nonzero" fill="rgb(0%, 0%, 0%)" fill-opacity="1" d="M 617.6875 219.296875 C 615.597656 219.296875 613.980469 218.710938 612.828125 217.539062 C 611.671875 216.355469 611.09375 214.691406 611.09375 212.523438 C 611.09375 210.394531 611.660156 208.691406 612.777344 207.433594 C 613.894531 206.167969 615.351562 205.542969 617.160156 205.542969 C 617.976562 205.542969 618.695312 205.65625 619.320312 205.894531 C 619.949219 206.125 620.488281 206.492188 620.960938 206.992188 C 621.433594 207.488281 621.792969 208.101562 622.039062 208.824219 C 622.289062 209.550781 622.417969 210.4375 622.417969 211.484375 C 622.417969 211.882812 622.417969 212.28125 622.417969 212.679688 C 619.390625 212.679688 616.367188 212.679688 613.339844 212.679688 C 613.339844 214.199219 613.71875 215.363281 614.488281 216.167969 C 615.253906 216.976562 616.308594 217.375 617.667969 217.375 C 618.152344 217.375 618.625 217.320312 619.089844 217.214844 C 619.554688 217.101562 619.976562 216.960938 620.347656 216.792969 C 620.75 216.609375 621.085938 216.433594 621.363281 216.273438 C 621.636719 216.101562 621.863281 215.941406 622.039062 215.792969 C 622.082031 215.792969 622.125 215.792969 622.171875 215.792969 C 622.171875 216.59375 622.171875 217.398438 622.171875 218.199219 C 621.910156 218.296875 621.585938 218.421875 621.207031 218.578125 C 620.828125 218.726562 620.480469 218.84375 620.171875 218.9375 C 619.742188 219.050781 619.355469 219.140625 619.003906 219.203125 C 618.660156 219.265625 618.222656 219.296875 617.6875 219.296875 Z M 620.269531 210.992188 C 620.25 210.394531 620.179688 209.878906 620.058594 209.453125 C 619.933594 209.023438 619.75 208.664062 619.519531 208.363281 C 619.257812 208.039062 618.925781 207.785156 618.527344 207.617188 C 618.125 207.441406 617.625 207.355469 617.035156 207.355469 C 616.441406 207.355469 615.945312 207.449219 615.535156 207.625 C 615.128906 207.800781 614.753906 208.050781 614.417969 208.390625 C 614.085938 208.734375 613.839844 209.113281 613.664062 209.527344 C 613.496094 209.949219 613.382812 210.4375 613.339844 210.992188 C 615.652344 210.992188 617.960938 210.992188 620.269531 210.992188 Z M 620.269531 210.992188 "/>
<path fill-rule="nonzero" fill="rgb(0%, 0%, 0%)" fill-opacity="1" d="M 588.273438 140.636719 C 588.234375 140.636719 588.195312 140.636719 588.15625 140.636719 C 587.957031 140.566406 587.675781 140.496094 587.3125 140.433594 C 586.945312 140.363281 586.613281 140.328125 586.324219 140.328125 C 585.398438 140.328125 584.734375 140.539062 584.335938 140.953125 C 583.941406 141.375 583.742188 142.128906 583.742188 143.226562 C 583.742188 143.371094 583.742188 143.519531 583.742188 143.667969 C 584.960938 143.667969 586.179688 143.667969 587.394531 143.667969 C 587.394531 144.277344 587.394531 144.886719 587.394531 145.496094 C 586.203125 145.496094 585.007812 145.496094 583.8125 145.496094 C 583.8125 149.25 583.8125 153.003906 583.8125 156.761719 C 583.078125 156.761719 582.34375 156.761719 581.609375 156.761719 C 581.609375 153.003906 581.609375 149.25 581.609375 145.496094 C 581.113281 145.496094 580.617188 145.496094 580.121094 145.496094 C 580.121094 144.886719 580.121094 144.277344 580.121094 143.667969 C 580.617188 143.667969 581.113281 143.667969 581.609375 143.667969 C 581.609375 143.523438 581.609375 143.382812 581.609375 143.238281 C 581.609375 141.65625 581.992188 140.460938 582.75 139.640625 C 583.503906 138.816406 584.59375 138.410156 586.007812 138.410156 C 586.417969 138.410156 586.8125 138.429688 587.207031 138.472656 C 587.597656 138.515625 587.953125 138.5625 588.273438 138.621094 C 588.273438 139.292969 588.273438 139.964844 588.273438 140.636719 Z M 588.273438 140.636719 "/>
<path fill-rule="nonzero" fill="rgb(0%, 0%, 0%)" fill-opacity="1" d="M 590.835938 156.761719 C 590.101562 156.761719 589.363281 156.761719 588.628906 156.761719 C 588.628906 150.683594 588.628906 144.605469 588.628906 138.527344 C 589.363281 138.527344 590.101562 138.527344 590.835938 138.527344 C 590.835938 144.605469 590.835938 150.683594 590.835938 156.761719 Z M 590.835938 156.761719 "/>
<path fill-rule="nonzero" fill="rgb(0%, 0%, 0%)" fill-opacity="1" d="M 604.285156 143.667969 C 601.933594 149.640625 599.582031 155.617188 597.234375 161.589844 C 596.445312 161.589844 595.660156 161.589844 594.875 161.589844 C 595.660156 159.769531 596.441406 157.949219 597.226562 156.128906 C 595.636719 151.972656 594.050781 147.820312 592.460938 143.667969 C 593.253906 143.667969 594.046875 143.667969 594.839844 143.667969 C 596.035156 146.898438 597.226562 150.132812 598.421875 153.363281 C 599.609375 150.132812 600.796875 146.898438 601.984375 143.667969 C 602.75 143.667969 603.515625 143.667969 604.285156 143.667969 Z M 604.285156 143.667969 "/>
<path fill-rule="nonzero" fill="rgb(0%, 0%, 0%)" fill-opacity="1" d="M 612.191406 157.0625 C 610.101562 157.0625 608.484375 156.480469 607.328125 155.304688 C 606.175781 154.125 605.597656 152.457031 605.597656 150.292969 C 605.597656 148.160156 606.160156 146.460938 607.28125 145.199219 C 608.398438 143.933594 609.855469 143.308594 611.664062 143.308594 C 612.480469 143.308594 613.199219 143.421875 613.824219 143.660156 C 614.449219 143.894531 614.992188 144.257812 615.464844 144.757812 C 615.933594 145.257812 616.292969 145.867188 616.539062 146.59375 C 616.792969 147.316406 616.921875 148.203125 616.921875 149.25 C 616.921875 149.648438 616.921875 150.046875 616.921875 150.445312 C 613.894531 150.445312 610.867188 150.445312 607.84375 150.445312 C 607.84375 151.964844 608.222656 153.132812 608.988281 153.933594 C 609.757812 154.742188 610.8125 155.144531 612.171875 155.144531 C 612.65625 155.144531 613.128906 155.085938 613.589844 154.980469 C 614.054688 154.867188 614.476562 154.726562 614.851562 154.558594 C 615.253906 154.375 615.589844 154.199219 615.863281 154.039062 C 616.140625 153.871094 616.363281 153.710938 616.539062 153.5625 C 616.585938 153.5625 616.628906 153.5625 616.671875 153.5625 C 616.671875 154.363281 616.671875 155.164062 616.671875 155.964844 C 616.414062 156.0625 616.089844 156.191406 615.710938 156.34375 C 615.328125 156.492188 614.984375 156.613281 614.675781 156.703125 C 614.246094 156.816406 613.859375 156.90625 613.507812 156.972656 C 613.164062 157.035156 612.726562 157.0625 612.191406 157.0625 Z M 614.773438 148.757812 C 614.753906 148.160156 614.683594 147.648438 614.5625 147.21875 C 614.4375 146.789062 614.253906 146.429688 614.019531 146.128906 C 613.761719 145.804688 613.429688 145.554688 613.027344 145.382812 C 612.628906 145.207031 612.128906 145.125 611.535156 145.125 C 610.945312 145.125 610.445312 145.214844 610.039062 145.390625 C 609.628906 145.566406 609.257812 145.820312 608.917969 146.15625 C 608.589844 146.5 608.34375 146.882812 608.167969 147.296875 C 607.996094 147.71875 607.882812 148.203125 607.84375 148.757812 C 610.152344 148.757812 612.464844 148.757812 614.773438 148.757812 Z M 614.773438 148.757812 "/>
<path fill-rule="nonzero" fill="rgb(0%, 0%, 0%)" fill-opacity="1" d="M 626.148438 146.039062 C 626.109375 146.039062 626.070312 146.039062 626.035156 146.039062 C 625.867188 145.988281 625.695312 145.960938 625.507812 145.953125 C 625.324219 145.9375 625.105469 145.933594 624.84375 145.933594 C 624.253906 145.933594 623.664062 146.058594 623.078125 146.320312 C 622.488281 146.578125 621.933594 146.960938 621.410156 147.464844 C 621.410156 150.5625 621.410156 153.660156 621.410156 156.761719 C 620.675781 156.761719 619.941406 156.761719 619.207031 156.761719 C 619.207031 152.394531 619.207031 148.03125 619.207031 143.667969 C 619.941406 143.667969 620.675781 143.667969 621.410156 143.667969 C 621.410156 144.316406 621.410156 144.964844 621.410156 145.617188 C 622.214844 144.90625 622.917969 144.40625 623.515625 144.109375 C 624.113281 143.816406 624.699219 143.667969 625.261719 143.667969 C 625.484375 143.667969 625.652344 143.675781 625.765625 143.6875 C 625.878906 143.703125 626.007812 143.71875 626.148438 143.738281 C 626.148438 144.503906 626.148438 145.269531 626.148438 146.039062 Z M 626.148438 146.039062 "/>
<path fill-rule="nonzero" fill="rgb(0%, 0%, 0%)" fill-opacity="1" d="M 591.109375 98.933594 C 590.375 98.933594 589.644531 98.933594 588.910156 98.933594 C 588.910156 98.488281 588.910156 98.042969 588.910156 97.597656 C 588.5625 97.886719 588.269531 98.125 588.015625 98.3125 C 587.761719 98.496094 587.472656 98.671875 587.136719 98.828125 C 586.824219 98.976562 586.496094 99.085938 586.164062 99.171875 C 585.828125 99.257812 585.433594 99.296875 584.988281 99.296875 C 584.277344 99.296875 583.617188 99.152344 583.011719 98.847656 C 582.40625 98.554688 581.894531 98.117188 581.46875 97.546875 C 581.042969 96.972656 580.710938 96.261719 580.472656 95.410156 C 580.238281 94.566406 580.121094 93.589844 580.121094 92.484375 C 580.121094 91.339844 580.265625 90.347656 580.570312 89.503906 C 580.867188 88.667969 581.273438 87.9375 581.800781 87.3125 C 582.273438 86.742188 582.851562 86.289062 583.523438 85.96875 C 584.207031 85.644531 584.910156 85.484375 585.65625 85.484375 C 586.3125 85.484375 586.882812 85.550781 587.367188 85.699219 C 587.851562 85.839844 588.367188 86.066406 588.910156 86.367188 C 588.910156 84.480469 588.910156 82.589844 588.910156 80.703125 C 589.644531 80.703125 590.375 80.703125 591.109375 80.703125 C 591.109375 86.777344 591.109375 92.855469 591.109375 98.933594 Z M 588.910156 95.75 C 588.910156 93.230469 588.910156 90.714844 588.910156 88.195312 C 588.359375 87.9375 587.867188 87.746094 587.4375 87.648438 C 587 87.550781 586.53125 87.492188 586.023438 87.492188 C 584.890625 87.492188 583.996094 87.921875 583.355469 88.765625 C 582.714844 89.617188 582.398438 90.839844 582.398438 92.441406 C 582.398438 93.984375 582.644531 95.15625 583.136719 95.972656 C 583.632812 96.789062 584.417969 97.195312 585.503906 97.195312 C 586.085938 97.195312 586.664062 97.070312 587.253906 96.808594 C 587.839844 96.542969 588.386719 96.191406 588.910156 95.75 Z M 588.910156 95.75 "/>
<path fill-rule="nonzero" fill="rgb(0%, 0%, 0%)" fill-opacity="1" d="M 604.410156 92.394531 C 604.410156 94.59375 603.882812 96.296875 602.820312 97.5 C 601.757812 98.695312 600.335938 99.296875 598.570312 99.296875 C 596.746094 99.296875 595.320312 98.679688 594.277344 97.441406 C 593.230469 96.199219 592.707031 94.515625 592.707031 92.394531 C 592.707031 90.207031 593.242188 88.503906 594.320312 87.296875 C 595.394531 86.085938 596.8125 85.484375 598.570312 85.484375 C 600.335938 85.484375 601.757812 86.085938 602.820312 87.289062 C 603.882812 88.5 604.410156 90.199219 604.410156 92.394531 Z M 602.136719 92.394531 C 602.136719 90.699219 601.828125 89.441406 601.207031 88.617188 C 600.597656 87.789062 599.71875 87.378906 598.570312 87.378906 C 597.421875 87.378906 596.535156 87.789062 595.917969 88.617188 C 595.289062 89.441406 594.980469 90.699219 594.980469 92.394531 C 594.980469 94.03125 595.289062 95.277344 595.917969 96.128906 C 596.535156 96.972656 597.421875 97.402344 598.570312 97.402344 C 599.703125 97.402344 600.582031 96.976562 601.203125 96.148438 C 601.828125 95.320312 602.136719 94.066406 602.136719 92.394531 Z M 602.136719 92.394531 "/>
<path fill-rule="nonzero" fill="rgb(0%, 0%, 0%)" fill-opacity="1" d="M 617.019531 92.394531 C 617.019531 94.59375 616.492188 96.296875 615.429688 97.5 C 614.367188 98.695312 612.945312 99.296875 611.179688 99.296875 C 609.355469 99.296875 607.929688 98.679688 606.886719 97.441406 C 605.839844 96.199219 605.316406 94.515625 605.316406 92.394531 C 605.316406 90.207031 605.851562 88.503906 606.929688 87.296875 C 608.007812 86.085938 609.421875 85.484375 611.179688 85.484375 C 612.945312 85.484375 614.367188 86.085938 615.429688 87.289062 C 616.492188 88.5 617.019531 90.199219 617.019531 92.394531 Z M 614.746094 92.394531 C 614.746094 90.699219 614.4375 89.441406 613.820312 88.617188 C 613.207031 87.789062 612.328125 87.378906 611.179688 87.378906 C 610.03125 87.378906 609.144531 87.789062 608.527344 88.617188 C 607.902344 89.441406 607.589844 90.699219 607.589844 92.394531 C 607.589844 94.03125 607.902344 95.277344 608.527344 96.128906 C 609.144531 96.972656 610.03125 97.402344 611.179688 97.402344 C 612.3125 97.402344 613.191406 96.976562 613.8125 96.148438 C 614.4375 95.320312 614.746094 94.066406 614.746094 92.394531 Z M 614.746094 92.394531 "/>
<path fill-rule="nonzero" fill="rgb(0%, 0%, 0%)" fill-opacity="1" d="M 622.394531 99.25 C 621.523438 99.25 620.699219 99.128906 619.941406 98.898438 C 619.171875 98.664062 618.546875 98.414062 618.046875 98.144531 C 618.046875 97.324219 618.046875 96.5 618.046875 95.675781 C 618.085938 95.675781 618.121094 95.675781 618.160156 95.675781 C 618.351562 95.824219 618.566406 95.988281 618.820312 96.171875 C 619.082031 96.34375 619.417969 96.535156 619.84375 96.734375 C 620.214844 96.902344 620.628906 97.054688 621.074219 97.1875 C 621.523438 97.324219 621.996094 97.386719 622.480469 97.386719 C 622.832031 97.386719 623.207031 97.34375 623.605469 97.265625 C 624 97.183594 624.304688 97.078125 624.492188 96.949219 C 624.769531 96.773438 624.964844 96.585938 625.085938 96.378906 C 625.210938 96.175781 625.265625 95.867188 625.265625 95.46875 C 625.265625 94.9375 625.125 94.546875 624.84375 94.277344 C 624.554688 94.019531 624.050781 93.792969 623.324219 93.609375 C 623.042969 93.539062 622.671875 93.464844 622.21875 93.363281 C 621.769531 93.273438 621.347656 93.175781 620.96875 93.0625 C 619.960938 92.773438 619.238281 92.324219 618.785156 91.71875 C 618.328125 91.113281 618.105469 90.382812 618.105469 89.527344 C 618.105469 88.34375 618.546875 87.378906 619.441406 86.640625 C 620.335938 85.898438 621.515625 85.523438 622.996094 85.523438 C 623.71875 85.523438 624.449219 85.617188 625.191406 85.796875 C 625.921875 85.972656 626.539062 86.199219 627.039062 86.472656 C 627.039062 87.257812 627.039062 88.042969 627.039062 88.828125 C 627 88.828125 626.960938 88.828125 626.921875 88.828125 C 626.359375 88.386719 625.730469 88.035156 625.042969 87.773438 C 624.34375 87.519531 623.648438 87.386719 622.945312 87.386719 C 622.21875 87.386719 621.609375 87.542969 621.109375 87.84375 C 620.609375 88.15625 620.355469 88.609375 620.355469 89.230469 C 620.355469 89.777344 620.503906 90.1875 620.800781 90.453125 C 621.101562 90.71875 621.574219 90.945312 622.234375 91.113281 C 622.558594 91.207031 622.925781 91.28125 623.324219 91.367188 C 623.734375 91.453125 624.15625 91.542969 624.597656 91.65625 C 625.570312 91.894531 626.300781 92.300781 626.789062 92.863281 C 627.28125 93.425781 627.519531 94.195312 627.519531 95.15625 C 627.519531 95.71875 627.40625 96.253906 627.1875 96.761719 C 626.964844 97.265625 626.640625 97.695312 626.210938 98.054688 C 625.738281 98.449219 625.210938 98.742188 624.621094 98.945312 C 624.027344 99.152344 623.289062 99.25 622.394531 99.25 Z M 622.394531 99.25 "/>
</svg>
