<?xml version="1.0" encoding="UTF-8" standalone="no"?>
<svg
   width="854"
   height="480"
   viewBox="0 0 854 480"
   version="1.1"
   id="svg194"
   sodipodi:docname="neural_network_with_extra_layer.svg"
   inkscape:version="1.2.2 (732a01da63, 2022-12-09)"
   xmlns:inkscape="http://www.inkscape.org/namespaces/inkscape"
   xmlns:sodipodi="http://sodipodi.sourceforge.net/DTD/sodipodi-0.dtd"
   xmlns="http://www.w3.org/2000/svg"
   xmlns:svg="http://www.w3.org/2000/svg">
  <defs
     id="defs198" />
  <sodipodi:namedview
     id="namedview196"
     pagecolor="#ffffff"
     bordercolor="#000000"
     borderopacity="0.25"
     inkscape:showpageshadow="2"
     inkscape:pageopacity="0.0"
     inkscape:pagecheckerboard="0"
     inkscape:deskcolor="#d1d1d1"
     showgrid="false"
     inkscape:zoom="1.4051522"
     inkscape:cx="350.85167"
     inkscape:cy="239.83167"
     inkscape:window-width="3440"
     inkscape:window-height="1369"
     inkscape:window-x="-8"
     inkscape:window-y="-8"
     inkscape:window-maximized="1"
     inkscape:current-layer="svg194" />
  <g
     id="g1378"
     transform="translate(-40.629747,-54.908333)">
    <path
       fill="none"
       stroke-width="0.04"
       stroke-linecap="butt"
       stroke-linejoin="miter"
       stroke="#0e6942"
       stroke-opacity="1"
       stroke-miterlimit="10"
       d="m -3.699974,-1.5 c 0,0.078516 -0.032331,0.156576 -0.087887,0.212109 C -3.843417,-1.232357 -3.921481,-1.2 -4,-1.2 -4.078519,-1.2 -4.156583,-1.232357 -4.212139,-1.287891 -4.267695,-1.343424 -4.300026,-1.421484 -4.300026,-1.5 c 0,-0.078516 0.032331,-0.156576 0.087887,-0.212109 C -4.156583,-1.767643 -4.078519,-1.8 -4,-1.8 c 0.078519,0 0.156583,0.032357 0.212139,0.087891 0.055556,0.055533 0.087887,0.133593 0.087887,0.212109 z m 0,0"
       transform="matrix(60.046875,0,0,-60,427,240)"
       id="path2" />
    <path
       fill="none"
       stroke-width="0.04"
       stroke-linecap="butt"
       stroke-linejoin="miter"
       stroke="#0e6942"
       stroke-opacity="1"
       stroke-miterlimit="10"
       d="m -3.699974,-0.5 c 0,0.078516 -0.032331,0.156576 -0.087887,0.212109 C -3.843417,-0.232357 -3.921481,-0.2 -4,-0.2 -4.078519,-0.2 -4.156583,-0.232357 -4.212139,-0.287891 -4.267695,-0.343424 -4.300026,-0.421484 -4.300026,-0.5 c 0,-0.078516 0.032331,-0.156576 0.087887,-0.212109 C -4.156583,-0.767643 -4.078519,-0.8 -4,-0.8 c 0.078519,0 0.156583,0.032357 0.212139,0.087891 0.055556,0.055533 0.087887,0.133593 0.087887,0.212109 z m 0,0"
       transform="matrix(60.046875,0,0,-60,427,240)"
       id="path4" />
    <path
       fill="none"
       stroke-width="0.04"
       stroke-linecap="butt"
       stroke-linejoin="miter"
       stroke="#0e6942"
       stroke-opacity="1"
       stroke-miterlimit="10"
       d="m -3.699974,0.5 c 0,0.078516 -0.032331,0.156576 -0.087887,0.212109 C -3.843417,0.767643 -3.921481,0.8 -4,0.8 -4.078519,0.8 -4.156583,0.767643 -4.212139,0.712109 -4.267695,0.656576 -4.300026,0.578516 -4.300026,0.5 c 0,-0.078516 0.032331,-0.156576 0.087887,-0.212109 C -4.156583,0.232357 -4.078519,0.2 -4,0.2 c 0.078519,0 0.156583,0.032357 0.212139,0.087891 0.055556,0.055533 0.087887,0.133593 0.087887,0.212109 z m 0,0"
       transform="matrix(60.046875,0,0,-60,427,240)"
       id="path6" />
    <path
       fill-rule="nonzero"
       fill="#0e6942"
       fill-opacity="1"
       stroke-width="0.04"
       stroke-linecap="butt"
       stroke-linejoin="miter"
       stroke="#0e6942"
       stroke-opacity="1"
       stroke-miterlimit="10"
       d="m -3.949974,1.25 c 0,0.013086 -0.0054,0.026107 -0.014702,0.035352 C -3.973914,1.294596 -3.986924,1.3 -4,1.3 -4.013076,1.3 -4.026086,1.294596 -4.035324,1.285352 -4.044627,1.276107 -4.050026,1.263086 -4.050026,1.25 c 0,-0.013086 0.0054,-0.026107 0.014702,-0.035352 C -4.026086,1.205404 -4.013076,1.2 -4,1.2 c 0.013076,0 0.026086,0.0054 0.035324,0.014648 0.0093,0.00924 0.014702,0.022266 0.014702,0.035352 z m 0,0"
       transform="matrix(60.046875,0,0,-60,427,240)"
       id="path8" />
    <path
       fill-rule="nonzero"
       fill="#0e6942"
       fill-opacity="1"
       stroke-width="0.04"
       stroke-linecap="butt"
       stroke-linejoin="miter"
       stroke="#0e6942"
       stroke-opacity="1"
       stroke-miterlimit="10"
       d="m -3.949974,1.5 c 0,0.013086 -0.0054,0.026107 -0.014702,0.035352 C -3.973914,1.544596 -3.986924,1.55 -4,1.55 -4.013076,1.55 -4.026086,1.544596 -4.035324,1.535352 -4.044627,1.526107 -4.050026,1.513086 -4.050026,1.5 c 0,-0.013086 0.0054,-0.026107 0.014702,-0.035352 C -4.026086,1.455404 -4.013076,1.45 -4,1.45 c 0.013076,0 0.026086,0.0054 0.035324,0.014648 0.0093,0.00924 0.014702,0.022266 0.014702,0.035352 z m 0,0"
       transform="matrix(60.046875,0,0,-60,427,240)"
       id="path10" />
    <path
       fill-rule="nonzero"
       fill="#0e6942"
       fill-opacity="1"
       stroke-width="0.04"
       stroke-linecap="butt"
       stroke-linejoin="miter"
       stroke="#0e6942"
       stroke-opacity="1"
       stroke-miterlimit="10"
       d="m -3.949974,1.75 c 0,0.013086 -0.0054,0.026107 -0.014702,0.035352 C -3.973914,1.794596 -3.986924,1.8 -4,1.8 -4.013076,1.8 -4.026086,1.794596 -4.035324,1.785352 -4.044627,1.776107 -4.050026,1.763086 -4.050026,1.75 c 0,-0.013086 0.0054,-0.026107 0.014702,-0.035352 C -4.026086,1.705404 -4.013076,1.7 -4,1.7 c 0.013076,0 0.026086,0.0054 0.035324,0.014648 0.0093,0.00924 0.014702,0.022266 0.014702,0.035352 z m 0,0"
       transform="matrix(60.046875,0,0,-60,427,240)"
       id="path12" />
    <path
       fill-rule="nonzero"
       fill="#0e6942"
       fill-opacity="1"
       stroke-width="0.04"
       stroke-linecap="butt"
       stroke-linejoin="miter"
       stroke="#0e6942"
       stroke-opacity="1"
       stroke-miterlimit="10"
       d="m -3.949974,-2.25 c 0,0.013086 -0.0054,0.026107 -0.014702,0.035352 C -3.973914,-2.205404 -3.986924,-2.2 -4,-2.2 c -0.013076,0 -0.026086,-0.0054 -0.035324,-0.014648 -0.0093,-0.00924 -0.014702,-0.022266 -0.014702,-0.035352 0,-0.013086 0.0054,-0.026107 0.014702,-0.035352 C -4.026086,-2.294596 -4.013076,-2.3 -4,-2.3 c 0.013076,0 0.026086,0.0054 0.035324,0.014648 0.0093,0.00924 0.014702,0.022266 0.014702,0.035352 z m 0,0"
       transform="matrix(60.046875,0,0,-60,427,240)"
       id="path14" />
    <path
       fill-rule="nonzero"
       fill="#0e6942"
       fill-opacity="1"
       stroke-width="0.04"
       stroke-linecap="butt"
       stroke-linejoin="miter"
       stroke="#0e6942"
       stroke-opacity="1"
       stroke-miterlimit="10"
       d="m -3.949974,-2.5 c 0,0.013086 -0.0054,0.026107 -0.014702,0.035352 C -3.973914,-2.455404 -3.986924,-2.45 -4,-2.45 c -0.013076,0 -0.026086,-0.0054 -0.035324,-0.014648 -0.0093,-0.00924 -0.014702,-0.022266 -0.014702,-0.035352 0,-0.013086 0.0054,-0.026107 0.014702,-0.035352 C -4.026086,-2.544596 -4.013076,-2.55 -4,-2.55 c 0.013076,0 0.026086,0.0054 0.035324,0.014648 0.0093,0.00924 0.014702,0.022266 0.014702,0.035352 z m 0,0"
       transform="matrix(60.046875,0,0,-60,427,240)"
       id="path16" />
    <path
       fill-rule="nonzero"
       fill="#0e6942"
       fill-opacity="1"
       stroke-width="0.04"
       stroke-linecap="butt"
       stroke-linejoin="miter"
       stroke="#0e6942"
       stroke-opacity="1"
       stroke-miterlimit="10"
       d="m -3.949974,-2.75 c 0,0.013086 -0.0054,0.026107 -0.014702,0.035352 C -3.973914,-2.705404 -3.986924,-2.7 -4,-2.7 c -0.013076,0 -0.026086,-0.0054 -0.035324,-0.014648 -0.0093,-0.00924 -0.014702,-0.022266 -0.014702,-0.035352 0,-0.013086 0.0054,-0.026107 0.014702,-0.035352 C -4.026086,-2.794596 -4.013076,-2.8 -4,-2.8 c 0.013076,0 0.026086,0.0054 0.035324,0.014648 0.0093,0.00924 0.014702,0.022266 0.014702,0.035352 z m 0,0"
       transform="matrix(60.046875,0,0,-60,427,240)"
       id="path18" />
    <path
       fill="none"
       stroke-width="0.04"
       stroke-linecap="butt"
       stroke-linejoin="miter"
       stroke="#0e6942"
       stroke-opacity="1"
       stroke-miterlimit="10"
       d="m -1.699974,-2 c 0,0.078516 -0.032331,0.156576 -0.087887,0.212109 C -1.843417,-1.732357 -1.921481,-1.7 -2,-1.7 -2.078519,-1.7 -2.156583,-1.732357 -2.212139,-1.787891 -2.267695,-1.843424 -2.300026,-1.921484 -2.300026,-2 c 0,-0.078516 0.032331,-0.156576 0.087887,-0.212109 C -2.156583,-2.267643 -2.078519,-2.3 -2,-2.3 c 0.078519,0 0.156583,0.032357 0.212139,0.087891 0.055556,0.055533 0.087887,0.133593 0.087887,0.212109 z m 0,0"
       transform="matrix(60.046875,0,0,-60,427,240)"
       id="path20" />
    <path
       fill="none"
       stroke-width="0.04"
       stroke-linecap="butt"
       stroke-linejoin="miter"
       stroke="#0e6942"
       stroke-opacity="1"
       stroke-miterlimit="10"
       d="m -1.699974,-1 c 0,0.078516 -0.032331,0.156576 -0.087887,0.212109 C -1.843417,-0.732357 -1.921481,-0.7 -2,-0.7 -2.078519,-0.7 -2.156583,-0.732357 -2.212139,-0.787891 -2.267695,-0.843424 -2.300026,-0.921484 -2.300026,-1 c 0,-0.078516 0.032331,-0.156576 0.087887,-0.212109 C -2.156583,-1.267643 -2.078519,-1.3 -2,-1.3 c 0.078519,0 0.156583,0.032357 0.212139,0.087891 0.055556,0.055533 0.087887,0.133593 0.087887,0.212109 z m 0,0"
       transform="matrix(60.046875,0,0,-60,427,240)"
       id="path22" />
    <path
       fill="none"
       stroke-width="0.04"
       stroke-linecap="butt"
       stroke-linejoin="miter"
       stroke="#0e6942"
       stroke-opacity="1"
       stroke-miterlimit="10"
       d="m -1.699974,0 c 0,0.0785156 -0.032331,0.156576 -0.087887,0.212109 C -1.843417,0.267643 -1.921481,0.3 -2,0.3 -2.078519,0.3 -2.156583,0.267643 -2.212139,0.212109 -2.267695,0.156576 -2.300026,0.0785156 -2.300026,0 c 0,-0.0785156 0.032331,-0.156576 0.087887,-0.212109 C -2.156583,-0.267643 -2.078519,-0.3 -2,-0.3 c 0.078519,0 0.156583,0.032357 0.212139,0.087891 0.055556,0.055533 0.087887,0.1335934 0.087887,0.212109 z m 0,0"
       transform="matrix(60.046875,0,0,-60,427,240)"
       id="path24" />
    <path
       fill="none"
       stroke-width="0.04"
       stroke-linecap="butt"
       stroke-linejoin="miter"
       stroke="#0e6942"
       stroke-opacity="1"
       stroke-miterlimit="10"
       d="m -1.699974,1 c 0,0.078516 -0.032331,0.156576 -0.087887,0.212109 C -1.843417,1.267643 -1.921481,1.3 -2,1.3 -2.078519,1.3 -2.156583,1.267643 -2.212139,1.212109 -2.267695,1.156576 -2.300026,1.078516 -2.300026,1 c 0,-0.078516 0.032331,-0.156576 0.087887,-0.212109 C -2.156583,0.732357 -2.078519,0.7 -2,0.7 c 0.078519,0 0.156583,0.032357 0.212139,0.087891 C -1.732305,0.843424 -1.699974,0.921484 -1.699974,1 Z m 0,0"
       transform="matrix(60.046875,0,0,-60,427,240)"
       id="path26" />
    <path
       fill="none"
       stroke-width="0.04"
       stroke-linecap="butt"
       stroke-linejoin="miter"
       stroke="#0e6942"
       stroke-opacity="1"
       stroke-miterlimit="10"
       d="m 0.300026,-2 c 0,0.078516 -0.032331,0.156576 -0.087887,0.212109 C 0.156583,-1.732357 0.0785194,-1.7 0,-1.7 -0.0785194,-1.7 -0.156583,-1.732357 -0.212139,-1.787891 -0.267695,-1.843424 -0.300026,-1.921484 -0.300026,-2 c 0,-0.078516 0.032331,-0.156576 0.087887,-0.212109 C -0.156583,-2.267643 -0.0785194,-2.3 0,-2.3 c 0.0785194,0 0.156583,0.032357 0.212139,0.087891 C 0.267695,-2.156576 0.300026,-2.078516 0.300026,-2 Z m 0,0"
       transform="matrix(60.046875,0,0,-60,427,240)"
       id="path28" />
    <path
       fill="none"
       stroke-width="0.04"
       stroke-linecap="butt"
       stroke-linejoin="miter"
       stroke="#0e6942"
       stroke-opacity="1"
       stroke-miterlimit="10"
       d="m 0.300026,-1 c 0,0.078516 -0.032331,0.156576 -0.087887,0.212109 C 0.156583,-0.732357 0.0785194,-0.7 0,-0.7 -0.0785194,-0.7 -0.156583,-0.732357 -0.212139,-0.787891 -0.267695,-0.843424 -0.300026,-0.921484 -0.300026,-1 c 0,-0.078516 0.032331,-0.156576 0.087887,-0.212109 C -0.156583,-1.267643 -0.0785194,-1.3 0,-1.3 c 0.0785194,0 0.156583,0.032357 0.212139,0.087891 C 0.267695,-1.156576 0.300026,-1.078516 0.300026,-1 Z m 0,0"
       transform="matrix(60.046875,0,0,-60,427,240)"
       id="path30" />
    <path
       fill="none"
       stroke-width="0.04"
       stroke-linecap="butt"
       stroke-linejoin="miter"
       stroke="#0e6942"
       stroke-opacity="1"
       stroke-miterlimit="10"
       d="m 0.300026,0 c 0,0.0785156 -0.032331,0.156576 -0.087887,0.212109 C 0.156583,0.267643 0.0785194,0.3 0,0.3 -0.0785194,0.3 -0.156583,0.267643 -0.212139,0.212109 -0.267695,0.156576 -0.300026,0.0785156 -0.300026,0 c 0,-0.0785156 0.032331,-0.156576 0.087887,-0.212109 C -0.156583,-0.267643 -0.0785194,-0.3 0,-0.3 c 0.0785194,0 0.156583,0.032357 0.212139,0.087891 C 0.267695,-0.156576 0.300026,-0.0785156 0.300026,0 Z m 0,0"
       transform="matrix(60.046875,0,0,-60,427,240)"
       id="path32" />
    <path
       fill="none"
       stroke-width="0.04"
       stroke-linecap="butt"
       stroke-linejoin="miter"
       stroke="#0e6942"
       stroke-opacity="1"
       stroke-miterlimit="10"
       d="m 0.300026,1 c 0,0.078516 -0.032331,0.156576 -0.087887,0.212109 C 0.156583,1.267643 0.0785194,1.3 0,1.3 -0.0785194,1.3 -0.156583,1.267643 -0.212139,1.212109 -0.267695,1.156576 -0.300026,1.078516 -0.300026,1 c 0,-0.078516 0.032331,-0.156576 0.087887,-0.212109 C -0.156583,0.732357 -0.0785194,0.7 0,0.7 0.0785194,0.7 0.156583,0.732357 0.212139,0.787891 0.267695,0.843424 0.300026,0.921484 0.300026,1 Z m 0,0"
       transform="matrix(60.046875,0,0,-60,427,240)"
       id="path34" />
    <path
       fill="none"
       stroke-width="0.04"
       stroke-linecap="butt"
       stroke-linejoin="miter"
       stroke="#0e6942"
       stroke-opacity="1"
       stroke-miterlimit="10"
       d="m 2.300026,-3.5 c 0,0.078516 -0.032331,0.156576 -0.087887,0.212109 C 2.156583,-3.232357 2.078519,-3.2 2,-3.2 1.921481,-3.2 1.843417,-3.232357 1.787861,-3.287891 1.732305,-3.343424 1.699974,-3.421484 1.699974,-3.5 c 0,-0.078516 0.032331,-0.156576 0.087887,-0.212109 C 1.843417,-3.767643 1.921481,-3.8 2,-3.8 c 0.078519,0 0.156583,0.032357 0.212139,0.087891 0.055556,0.055533 0.087887,0.133593 0.087887,0.212109 z m 0,0"
       transform="matrix(60.046875,0,0,-60,427,240)"
       id="path36" />
    <path
       fill="none"
       stroke-width="0.04"
       stroke-linecap="butt"
       stroke-linejoin="miter"
       stroke="#0e6942"
       stroke-opacity="1"
       stroke-miterlimit="10"
       d="m 2.300026,-2.5 c 0,0.078516 -0.032331,0.156576 -0.087887,0.212109 C 2.156583,-2.232357 2.078519,-2.2 2,-2.2 1.921481,-2.2 1.843417,-2.232357 1.787861,-2.287891 1.732305,-2.343424 1.699974,-2.421484 1.699974,-2.5 c 0,-0.078516 0.032331,-0.156576 0.087887,-0.212109 C 1.843417,-2.767643 1.921481,-2.8 2,-2.8 c 0.078519,0 0.156583,0.032357 0.212139,0.087891 0.055556,0.055533 0.087887,0.133593 0.087887,0.212109 z m 0,0"
       transform="matrix(60.046875,0,0,-60,427,240)"
       id="path38" />
    <path
       fill="none"
       stroke-width="0.04"
       stroke-linecap="butt"
       stroke-linejoin="miter"
       stroke="#0e6942"
       stroke-opacity="1"
       stroke-miterlimit="10"
       d="m 2.300026,-1.5 c 0,0.078516 -0.032331,0.156576 -0.087887,0.212109 C 2.156583,-1.232357 2.078519,-1.2 2,-1.2 1.921481,-1.2 1.843417,-1.232357 1.787861,-1.287891 1.732305,-1.343424 1.699974,-1.421484 1.699974,-1.5 c 0,-0.078516 0.032331,-0.156576 0.087887,-0.212109 C 1.843417,-1.767643 1.921481,-1.8 2,-1.8 c 0.078519,0 0.156583,0.032357 0.212139,0.087891 0.055556,0.055533 0.087887,0.133593 0.087887,0.212109 z m 0,0"
       transform="matrix(60.046875,0,0,-60,427,240)"
       id="path40" />
    <path
       fill="none"
       stroke-width="0.04"
       stroke-linecap="butt"
       stroke-linejoin="miter"
       stroke="#0e6942"
       stroke-opacity="1"
       stroke-miterlimit="10"
       d="m 2.300026,-0.5 c 0,0.078516 -0.032331,0.156576 -0.087887,0.212109 C 2.156583,-0.232357 2.078519,-0.2 2,-0.2 1.921481,-0.2 1.843417,-0.232357 1.787861,-0.287891 1.732305,-0.343424 1.699974,-0.421484 1.699974,-0.5 c 0,-0.078516 0.032331,-0.156576 0.087887,-0.212109 C 1.843417,-0.767643 1.921481,-0.8 2,-0.8 c 0.078519,0 0.156583,0.032357 0.212139,0.087891 0.055556,0.055533 0.087887,0.133593 0.087887,0.212109 z m 0,0"
       transform="matrix(60.046875,0,0,-60,427,240)"
       id="path42" />
    <path
       fill="none"
       stroke-width="0.04"
       stroke-linecap="butt"
       stroke-linejoin="miter"
       stroke="#0e6942"
       stroke-opacity="1"
       stroke-miterlimit="10"
       d="m 2.300026,0.5 c 0,0.078516 -0.032331,0.156576 -0.087887,0.212109 C 2.156583,0.767643 2.078519,0.8 2,0.8 1.921481,0.8 1.843417,0.767643 1.787861,0.712109 1.732305,0.656576 1.699974,0.578516 1.699974,0.5 1.699974,0.421484 1.732305,0.343424 1.787861,0.287891 1.843417,0.232357 1.921481,0.2 2,0.2 2.078519,0.2 2.156583,0.232357 2.212139,0.287891 2.267695,0.343424 2.300026,0.421484 2.300026,0.5 Z m 0,0"
       transform="matrix(60.046875,0,0,-60,427,240)"
       id="path44" />
    <path
       fill="none"
       stroke-width="0.04"
       stroke-linecap="butt"
       stroke-linejoin="miter"
       stroke="#0e6942"
       stroke-opacity="1"
       stroke-miterlimit="10"
       d="m 2.300026,1.5 c 0,0.078516 -0.032331,0.156576 -0.087887,0.212109 C 2.156583,1.767643 2.078519,1.8 2,1.8 1.921481,1.8 1.843417,1.767643 1.787861,1.712109 1.732305,1.656576 1.699974,1.578516 1.699974,1.5 1.699974,1.421484 1.732305,1.343424 1.787861,1.287891 1.843417,1.232357 1.921481,1.2 2,1.2 2.078519,1.2 2.156583,1.232357 2.212139,1.287891 2.267695,1.343424 2.300026,1.421484 2.300026,1.5 Z m 0,0"
       transform="matrix(60.046875,0,0,-60,427,240)"
       id="path46" />
    <path
       fill="none"
       stroke-width="0.04"
       stroke-linecap="butt"
       stroke-linejoin="miter"
       stroke="#0e6942"
       stroke-opacity="1"
       stroke-miterlimit="10"
       d="m 2.300026,2.5 c 0,0.078516 -0.032331,0.156576 -0.087887,0.212109 C 2.156583,2.767643 2.078519,2.8 2,2.8 1.921481,2.8 1.843417,2.767643 1.787861,2.712109 1.732305,2.656576 1.699974,2.578516 1.699974,2.5 1.699974,2.421484 1.732305,2.343424 1.787861,2.287891 1.843417,2.232357 1.921481,2.2 2,2.2 2.078519,2.2 2.156583,2.232357 2.212139,2.287891 2.267695,2.343424 2.300026,2.421484 2.300026,2.5 Z m 0,0"
       transform="matrix(60.046875,0,0,-60,427,240)"
       id="path48" />
    <path
       fill="none"
       stroke-width="0.0107421"
       stroke-linecap="butt"
       stroke-linejoin="miter"
       stroke="#000000"
       stroke-opacity="1"
       stroke-miterlimit="10"
       d="m -4,-1.5 c 0.666667,-0.166667 1.333333,-0.333333 2,-0.5"
       transform="matrix(60.046875,0,0,-60,427,240)"
       id="path50" />
    <path
       fill="none"
       stroke-width="0.0347486"
       stroke-linecap="butt"
       stroke-linejoin="miter"
       stroke="#000000"
       stroke-opacity="1"
       stroke-miterlimit="10"
       d="m -4,-1.5 c 0.666667,0.166667 1.333333,0.333333 2,0.5"
       transform="matrix(60.046875,0,0,-60,427,240)"
       id="path52" />
    <path
       fill="none"
       stroke-width="0.0173308"
       stroke-linecap="butt"
       stroke-linejoin="miter"
       stroke="#000000"
       stroke-opacity="1"
       stroke-miterlimit="10"
       d="m -4,-1.5 c 0.666667,0.5 1.333333,1 2,1.5"
       transform="matrix(60.046875,0,0,-60,427,240)"
       id="path54" />
    <path
       fill="none"
       stroke-width="0.0398517"
       stroke-linecap="butt"
       stroke-linejoin="miter"
       stroke="#000000"
       stroke-opacity="1"
       stroke-miterlimit="10"
       d="m -4,-1.5 c 0.666667,0.833333 1.333333,1.666667 2,2.5"
       transform="matrix(60.046875,0,0,-60,427,240)"
       id="path56" />
    <path
       fill="none"
       stroke-width="0.0284857"
       stroke-linecap="butt"
       stroke-linejoin="miter"
       stroke="#000000"
       stroke-opacity="1"
       stroke-miterlimit="10"
       d="m -4,-0.5 c 0.666667,-0.5 1.333333,-1 2,-1.5"
       transform="matrix(60.046875,0,0,-60,427,240)"
       id="path58" />
    <path
       fill="none"
       stroke-width="0.0365031"
       stroke-linecap="butt"
       stroke-linejoin="miter"
       stroke="#000000"
       stroke-opacity="1"
       stroke-miterlimit="10"
       d="m -4,-0.5 c 0.666667,-0.166667 1.333333,-0.333333 2,-0.5"
       transform="matrix(60.046875,0,0,-60,427,240)"
       id="path60" />
    <path
       fill="none"
       stroke-width="0.0242227"
       stroke-linecap="butt"
       stroke-linejoin="miter"
       stroke="#000000"
       stroke-opacity="1"
       stroke-miterlimit="10"
       d="m -4,-0.5 c 0.666667,0.166667 1.333333,0.333333 2,0.5"
       transform="matrix(60.046875,0,0,-60,427,240)"
       id="path62" />
    <path
       fill="none"
       stroke-width="0.0390339"
       stroke-linecap="butt"
       stroke-linejoin="miter"
       stroke="#000000"
       stroke-opacity="1"
       stroke-miterlimit="10"
       d="m -4,-0.5 c 0.666667,0.5 1.333333,1 2,1.5"
       transform="matrix(60.046875,0,0,-60,427,240)"
       id="path64" />
    <path
       fill="none"
       stroke-width="0.0165726"
       stroke-linecap="butt"
       stroke-linejoin="miter"
       stroke="#000000"
       stroke-opacity="1"
       stroke-miterlimit="10"
       d="m -4,0.5 c 0.666667,-0.833333 1.333333,-1.666667 2,-2.5"
       transform="matrix(60.046875,0,0,-60,427,240)"
       id="path66" />
    <path
       fill="none"
       stroke-width="0.0319643"
       stroke-linecap="butt"
       stroke-linejoin="miter"
       stroke="#000000"
       stroke-opacity="1"
       stroke-miterlimit="10"
       d="M -4,0.5 C -3.333333,0 -2.666667,-0.5 -2,-1"
       transform="matrix(60.046875,0,0,-60,427,240)"
       id="path68" />
    <path
       fill="none"
       stroke-width="0.0179291"
       stroke-linecap="butt"
       stroke-linejoin="miter"
       stroke="#000000"
       stroke-opacity="1"
       stroke-miterlimit="10"
       d="M -4,0.5 C -3.333333,0.333333 -2.666667,0.166667 -2,0"
       transform="matrix(60.046875,0,0,-60,427,240)"
       id="path70" />
    <path
       fill="none"
       stroke-width="0.0157744"
       stroke-linecap="butt"
       stroke-linejoin="miter"
       stroke="#000000"
       stroke-opacity="1"
       stroke-miterlimit="10"
       d="m -4,0.5 c 0.666667,0.166667 1.333333,0.333333 2,0.5"
       transform="matrix(60.046875,0,0,-60,427,240)"
       id="path72" />
    <path
       fill="none"
       stroke-width="0.025893"
       stroke-linecap="butt"
       stroke-linejoin="miter"
       stroke="#000000"
       stroke-opacity="1"
       stroke-miterlimit="10"
       d="m -2,-2 c 0.666667,0 1.333333,0 2,0"
       transform="matrix(60.046875,0,0,-60,427,240)"
       id="path74" />
    <path
       fill="none"
       stroke-width="0.0119275"
       stroke-linecap="butt"
       stroke-linejoin="miter"
       stroke="#000000"
       stroke-opacity="1"
       stroke-miterlimit="10"
       d="m -2,-2 c 0.666667,0.333333 1.333333,0.666667 2,1"
       transform="matrix(60.046875,0,0,-60,427,240)"
       id="path76" />
    <path
       fill="none"
       stroke-width="0.0120661"
       stroke-linecap="butt"
       stroke-linejoin="miter"
       stroke="#000000"
       stroke-opacity="1"
       stroke-miterlimit="10"
       d="m -2,-2 c 0.666667,0.666667 1.333333,1.333333 2,2"
       transform="matrix(60.046875,0,0,-60,427,240)"
       id="path78" />
    <path
       fill="none"
       stroke-width="0.0231355"
       stroke-linecap="butt"
       stroke-linejoin="miter"
       stroke="#000000"
       stroke-opacity="1"
       stroke-miterlimit="10"
       d="m -2,-2 c 0.666667,1 1.333333,2 2,3"
       transform="matrix(60.046875,0,0,-60,427,240)"
       id="path80" />
    <path
       fill="none"
       stroke-width="0.023257"
       stroke-linecap="butt"
       stroke-linejoin="miter"
       stroke="#000000"
       stroke-opacity="1"
       stroke-miterlimit="10"
       d="m -2,-1 c 0.666667,-0.333333 1.333333,-0.666667 2,-1"
       transform="matrix(60.046875,0,0,-60,427,240)"
       id="path82" />
    <path
       fill="none"
       stroke-width="0.0384429"
       stroke-linecap="butt"
       stroke-linejoin="miter"
       stroke="#000000"
       stroke-opacity="1"
       stroke-miterlimit="10"
       d="m -2,-1 c 0.666667,0 1.333333,0 2,0"
       transform="matrix(60.046875,0,0,-60,427,240)"
       id="path84" />
    <path
       fill="none"
       stroke-width="0.0263597"
       stroke-linecap="butt"
       stroke-linejoin="miter"
       stroke="#000000"
       stroke-opacity="1"
       stroke-miterlimit="10"
       d="m -2,-1 c 0.666667,0.333333 1.333333,0.666667 2,1"
       transform="matrix(60.046875,0,0,-60,427,240)"
       id="path86" />
    <path
       fill="none"
       stroke-width="0.0117102"
       stroke-linecap="butt"
       stroke-linejoin="miter"
       stroke="#000000"
       stroke-opacity="1"
       stroke-miterlimit="10"
       d="m -2,-1 c 0.666667,0.666667 1.333333,1.333333 2,2"
       transform="matrix(60.046875,0,0,-60,427,240)"
       id="path88" />
    <path
       fill="none"
       stroke-width="0.0324642"
       stroke-linecap="butt"
       stroke-linejoin="miter"
       stroke="#000000"
       stroke-opacity="1"
       stroke-miterlimit="10"
       d="m -2,0 c 0.666667,-0.666667 1.333333,-1.333333 2,-2"
       transform="matrix(60.046875,0,0,-60,427,240)"
       id="path90" />
    <path
       fill="none"
       stroke-width="0.0327147"
       stroke-linecap="butt"
       stroke-linejoin="miter"
       stroke="#000000"
       stroke-opacity="1"
       stroke-miterlimit="10"
       d="m -2,0 c 0.666667,-0.333333 1.333333,-0.666667 2,-1"
       transform="matrix(60.046875,0,0,-60,427,240)"
       id="path92" />
    <path
       fill="none"
       stroke-width="0.0156558"
       stroke-linecap="butt"
       stroke-linejoin="miter"
       stroke="#000000"
       stroke-opacity="1"
       stroke-miterlimit="10"
       d="m -2,0 c 0.666667,0 1.333333,0 2,0"
       transform="matrix(60.046875,0,0,-60,427,240)"
       id="path94" />
    <path
       fill="none"
       stroke-width="0.0207048"
       stroke-linecap="butt"
       stroke-linejoin="miter"
       stroke="#000000"
       stroke-opacity="1"
       stroke-miterlimit="10"
       d="m -2,0 c 0.666667,0.333333 1.333333,0.666667 2,1"
       transform="matrix(60.046875,0,0,-60,427,240)"
       id="path96" />
    <path
       fill="none"
       stroke-width="0.0210935"
       stroke-linecap="butt"
       stroke-linejoin="miter"
       stroke="#000000"
       stroke-opacity="1"
       stroke-miterlimit="10"
       d="m -2,1 c 0.666667,-1 1.333333,-2 2,-3"
       transform="matrix(60.046875,0,0,-60,427,240)"
       id="path98" />
    <path
       fill="none"
       stroke-width="0.0298748"
       stroke-linecap="butt"
       stroke-linejoin="miter"
       stroke="#000000"
       stroke-opacity="1"
       stroke-miterlimit="10"
       d="m -2,1 c 0.666667,-0.666667 1.333333,-1.333333 2,-2"
       transform="matrix(60.046875,0,0,-60,427,240)"
       id="path100" />
    <path
       fill="none"
       stroke-width="0.030035"
       stroke-linecap="butt"
       stroke-linejoin="miter"
       stroke="#000000"
       stroke-opacity="1"
       stroke-miterlimit="10"
       d="M -2,1 C -1.333333,0.666667 -0.666667,0.333333 0,0"
       transform="matrix(60.046875,0,0,-60,427,240)"
       id="path102" />
    <path
       fill="none"
       stroke-width="0.0193876"
       stroke-linecap="butt"
       stroke-linejoin="miter"
       stroke="#000000"
       stroke-opacity="1"
       stroke-miterlimit="10"
       d="m -2,1 c 0.666667,0 1.333333,0 2,0"
       transform="matrix(60.046875,0,0,-60,427,240)"
       id="path104" />
    <path
       fill="none"
       stroke-width="0.0301882"
       stroke-linecap="butt"
       stroke-linejoin="miter"
       stroke="#000000"
       stroke-opacity="1"
       stroke-miterlimit="10"
       d="M 0,-2 C 0.666667,-2.5 1.333333,-3 2,-3.5"
       transform="matrix(60.046875,0,0,-60,427,240)"
       id="path106" />
    <path
       fill="none"
       stroke-width="0.0365984"
       stroke-linecap="butt"
       stroke-linejoin="miter"
       stroke="#000000"
       stroke-opacity="1"
       stroke-miterlimit="10"
       d="M 0,-2 C 0.666667,-2.166667 1.333333,-2.333333 2,-2.5"
       transform="matrix(60.046875,0,0,-60,427,240)"
       id="path108" />
    <path
       fill="none"
       stroke-width="0.0276415"
       stroke-linecap="butt"
       stroke-linejoin="miter"
       stroke="#000000"
       stroke-opacity="1"
       stroke-miterlimit="10"
       d="m 0,-2 c 0.666667,0.166667 1.333333,0.333333 2,0.5"
       transform="matrix(60.046875,0,0,-60,427,240)"
       id="path110" />
    <path
       fill="none"
       stroke-width="0.0321159"
       stroke-linecap="butt"
       stroke-linejoin="miter"
       stroke="#000000"
       stroke-opacity="1"
       stroke-miterlimit="10"
       d="m 0,-2 c 0.666667,0.5 1.333333,1 2,1.5"
       transform="matrix(60.046875,0,0,-60,427,240)"
       id="path112" />
    <path
       fill="none"
       stroke-width="0.0118083"
       stroke-linecap="butt"
       stroke-linejoin="miter"
       stroke="#000000"
       stroke-opacity="1"
       stroke-miterlimit="10"
       d="m 0,-2 c 0.666667,0.833333 1.333333,1.666667 2,2.5"
       transform="matrix(60.046875,0,0,-60,427,240)"
       id="path114" />
    <path
       fill="none"
       stroke-width="0.0395225"
       stroke-linecap="butt"
       stroke-linejoin="miter"
       stroke="#000000"
       stroke-opacity="1"
       stroke-miterlimit="10"
       d="m 0,-2 c 0.666667,1.166667 1.333333,2.333333 2,3.5"
       transform="matrix(60.046875,0,0,-60,427,240)"
       id="path116" />
    <path
       fill="none"
       stroke-width="0.0272276"
       stroke-linecap="butt"
       stroke-linejoin="miter"
       stroke="#000000"
       stroke-opacity="1"
       stroke-miterlimit="10"
       d="m 0,-2 c 0.666667,1.5 1.333333,3 2,4.5"
       transform="matrix(60.046875,0,0,-60,427,240)"
       id="path118" />
    <path
       fill="none"
       stroke-width="0.010392"
       stroke-linecap="butt"
       stroke-linejoin="miter"
       stroke="#000000"
       stroke-opacity="1"
       stroke-miterlimit="10"
       d="M 0,-1 C 0.666667,-1.833333 1.333333,-2.666667 2,-3.5"
       transform="matrix(60.046875,0,0,-60,427,240)"
       id="path120" />
    <path
       fill="none"
       stroke-width="0.0114891"
       stroke-linecap="butt"
       stroke-linejoin="miter"
       stroke="#000000"
       stroke-opacity="1"
       stroke-miterlimit="10"
       d="M 0,-1 C 0.666667,-1.5 1.333333,-2 2,-2.5"
       transform="matrix(60.046875,0,0,-60,427,240)"
       id="path122" />
    <path
       fill="none"
       stroke-width="0.0297195"
       stroke-linecap="butt"
       stroke-linejoin="miter"
       stroke="#000000"
       stroke-opacity="1"
       stroke-miterlimit="10"
       d="M 0,-1 C 0.666667,-1.166667 1.333333,-1.333333 2,-1.5"
       transform="matrix(60.046875,0,0,-60,427,240)"
       id="path124" />
    <path
       fill="none"
       stroke-width="0.0342401"
       stroke-linecap="butt"
       stroke-linejoin="miter"
       stroke="#000000"
       stroke-opacity="1"
       stroke-miterlimit="10"
       d="m 0,-1 c 0.666667,0.166667 1.333333,0.333333 2,0.5"
       transform="matrix(60.046875,0,0,-60,427,240)"
       id="path126" />
    <path
       fill="none"
       stroke-width="0.0259158"
       stroke-linecap="butt"
       stroke-linejoin="miter"
       stroke="#000000"
       stroke-opacity="1"
       stroke-miterlimit="10"
       d="m 0,-1 c 0.666667,0.5 1.333333,1 2,1.5"
       transform="matrix(60.046875,0,0,-60,427,240)"
       id="path128" />
    <path
       fill="none"
       stroke-width="0.0397008"
       stroke-linecap="butt"
       stroke-linejoin="miter"
       stroke="#000000"
       stroke-opacity="1"
       stroke-miterlimit="10"
       d="m 0,-1 c 0.666667,0.833333 1.333333,1.666667 2,2.5"
       transform="matrix(60.046875,0,0,-60,427,240)"
       id="path130" />
    <path
       fill="none"
       stroke-width="0.0357598"
       stroke-linecap="butt"
       stroke-linejoin="miter"
       stroke="#000000"
       stroke-opacity="1"
       stroke-miterlimit="10"
       d="M 0,-1 C 0.666667,0.166667 1.333333,1.333333 2,2.5"
       transform="matrix(60.046875,0,0,-60,427,240)"
       id="path132" />
    <path
       fill="none"
       stroke-width="0.0314247"
       stroke-linecap="butt"
       stroke-linejoin="miter"
       stroke="#000000"
       stroke-opacity="1"
       stroke-miterlimit="10"
       d="M 0,0 C 0.666667,-1.166667 1.333333,-2.333333 2,-3.5"
       transform="matrix(60.046875,0,0,-60,427,240)"
       id="path134" />
    <path
       fill="none"
       stroke-width="0.0261718"
       stroke-linecap="butt"
       stroke-linejoin="miter"
       stroke="#000000"
       stroke-opacity="1"
       stroke-miterlimit="10"
       d="M 0,0 C 0.666667,-0.833333 1.333333,-1.666667 2,-2.5"
       transform="matrix(60.046875,0,0,-60,427,240)"
       id="path136" />
    <path
       fill="none"
       stroke-width="0.039264"
       stroke-linecap="butt"
       stroke-linejoin="miter"
       stroke="#000000"
       stroke-opacity="1"
       stroke-miterlimit="10"
       d="M 0,0 C 0.666667,-0.5 1.333333,-1 2,-1.5"
       transform="matrix(60.046875,0,0,-60,427,240)"
       id="path138" />
    <path
       fill="none"
       stroke-width="0.0381795"
       stroke-linecap="butt"
       stroke-linejoin="miter"
       stroke="#000000"
       stroke-opacity="1"
       stroke-miterlimit="10"
       d="M 0,0 C 0.666667,-0.166667 1.333333,-0.333333 2,-0.5"
       transform="matrix(60.046875,0,0,-60,427,240)"
       id="path140" />
    <path
       fill="none"
       stroke-width="0.0123893"
       stroke-linecap="butt"
       stroke-linejoin="miter"
       stroke="#000000"
       stroke-opacity="1"
       stroke-miterlimit="10"
       d="M 0,0 C 0.666667,0.166667 1.333333,0.333333 2,0.5"
       transform="matrix(60.046875,0,0,-60,427,240)"
       id="path142" />
    <path
       fill="none"
       stroke-width="0.0265744"
       stroke-linecap="butt"
       stroke-linejoin="miter"
       stroke="#000000"
       stroke-opacity="1"
       stroke-miterlimit="10"
       d="M 0,0 C 0.666667,0.5 1.333333,1 2,1.5"
       transform="matrix(60.046875,0,0,-60,427,240)"
       id="path144" />
    <path
       fill="none"
       stroke-width="0.0290767"
       stroke-linecap="butt"
       stroke-linejoin="miter"
       stroke="#000000"
       stroke-opacity="1"
       stroke-miterlimit="10"
       d="M 0,0 C 0.666667,0.833333 1.333333,1.666667 2,2.5"
       transform="matrix(60.046875,0,0,-60,427,240)"
       id="path146" />
    <path
       fill="none"
       stroke-width="0.0396111"
       stroke-linecap="butt"
       stroke-linejoin="miter"
       stroke="#000000"
       stroke-opacity="1"
       stroke-miterlimit="10"
       d="M 0,1 C 0.666667,-0.5 1.333333,-2 2,-3.5"
       transform="matrix(60.046875,0,0,-60,427,240)"
       id="path148" />
    <path
       fill="none"
       stroke-width="0.0260207"
       stroke-linecap="butt"
       stroke-linejoin="miter"
       stroke="#000000"
       stroke-opacity="1"
       stroke-miterlimit="10"
       d="M 0,1 C 0.666667,-0.166667 1.333333,-1.333333 2,-2.5"
       transform="matrix(60.046875,0,0,-60,427,240)"
       id="path150" />
    <path
       fill="none"
       stroke-width="0.0389506"
       stroke-linecap="butt"
       stroke-linejoin="miter"
       stroke="#000000"
       stroke-opacity="1"
       stroke-miterlimit="10"
       d="M 0,1 C 0.666667,0.166667 1.333333,-0.666667 2,-1.5"
       transform="matrix(60.046875,0,0,-60,427,240)"
       id="path152" />
    <path
       fill="none"
       stroke-width="0.0146742"
       stroke-linecap="butt"
       stroke-linejoin="miter"
       stroke="#000000"
       stroke-opacity="1"
       stroke-miterlimit="10"
       d="M 0,1 C 0.666667,0.5 1.333333,0 2,-0.5"
       transform="matrix(60.046875,0,0,-60,427,240)"
       id="path154" />
    <path
       fill="none"
       stroke-width="0.0210468"
       stroke-linecap="butt"
       stroke-linejoin="miter"
       stroke="#000000"
       stroke-opacity="1"
       stroke-miterlimit="10"
       d="M 0,1 C 0.666667,0.833333 1.333333,0.666667 2,0.5"
       transform="matrix(60.046875,0,0,-60,427,240)"
       id="path156" />
    <path
       fill="none"
       stroke-width="0.021038"
       stroke-linecap="butt"
       stroke-linejoin="miter"
       stroke="#000000"
       stroke-opacity="1"
       stroke-miterlimit="10"
       d="M 0,1 C 0.666667,1.166667 1.333333,1.333333 2,1.5"
       transform="matrix(60.046875,0,0,-60,427,240)"
       id="path158" />
    <path
       fill="none"
       stroke-width="0.0179864"
       stroke-linecap="butt"
       stroke-linejoin="miter"
       stroke="#000000"
       stroke-opacity="1"
       stroke-miterlimit="10"
       d="M 0,1 C 0.666667,1.5 1.333333,2 2,2.5"
       transform="matrix(60.046875,0,0,-60,427,240)"
       id="path160" />
    <path
       fill="none"
       stroke-width="0.04"
       stroke-linecap="butt"
       stroke-linejoin="miter"
       stroke="#fab63c"
       stroke-opacity="1"
       stroke-miterlimit="10"
       d="m 4.300026,-1 c 0,0.078516 -0.032331,0.156576 -0.087887,0.212109 C 4.156583,-0.732357 4.078519,-0.7 4,-0.7 3.921481,-0.7 3.843417,-0.732357 3.787861,-0.787891 3.732305,-0.843424 3.699974,-0.921484 3.699974,-1 c 0,-0.078516 0.032331,-0.156576 0.087887,-0.212109 C 3.843417,-1.267643 3.921481,-1.3 4,-1.3 c 0.078519,0 0.156583,0.032357 0.212139,0.087891 C 4.267695,-1.156576 4.300026,-1.078516 4.300026,-1 Z m 0,0"
       transform="matrix(60.046875,0,0,-60,427,240)"
       id="path162" />
    <path
       fill="none"
       stroke-width="0.04"
       stroke-linecap="butt"
       stroke-linejoin="miter"
       stroke="#fab63c"
       stroke-opacity="1"
       stroke-miterlimit="10"
       d="m 4.300026,0 c 0,0.0785156 -0.032331,0.156576 -0.087887,0.212109 C 4.156583,0.267643 4.078519,0.3 4,0.3 3.921481,0.3 3.843417,0.267643 3.787861,0.212109 3.732305,0.156576 3.699974,0.0785156 3.699974,0 c 0,-0.0785156 0.032331,-0.156576 0.087887,-0.212109 C 3.843417,-0.267643 3.921481,-0.3 4,-0.3 c 0.078519,0 0.156583,0.032357 0.212139,0.087891 C 4.267695,-0.156576 4.300026,-0.0785156 4.300026,0 Z m 0,0"
       transform="matrix(60.046875,0,0,-60,427,240)"
       id="path164" />
    <path
       fill="none"
       stroke-width="0.01"
       stroke-linecap="butt"
       stroke-linejoin="miter"
       stroke="#0e6942"
       stroke-opacity="1"
       stroke-miterlimit="10"
       d="m 2,-3.5 c 0.666667,0.833333 1.333333,1.666667 2,2.5"
       transform="matrix(60.046875,0,0,-60,427,240)"
       id="path166" />
    <path
       fill="none"
       stroke-width="0.01"
       stroke-linecap="butt"
       stroke-linejoin="miter"
       stroke="#0e6942"
       stroke-opacity="1"
       stroke-miterlimit="10"
       d="M 2,-3.5 C 2.666667,-2.333333 3.333333,-1.166667 4,0"
       transform="matrix(60.046875,0,0,-60,427,240)"
       id="path168" />
    <path
       fill="none"
       stroke-width="0.01"
       stroke-linecap="butt"
       stroke-linejoin="miter"
       stroke="#0e6942"
       stroke-opacity="1"
       stroke-miterlimit="10"
       d="m 2,-2.5 c 0.666667,0.5 1.333333,1 2,1.5"
       transform="matrix(60.046875,0,0,-60,427,240)"
       id="path170" />
    <path
       fill="none"
       stroke-width="0.01"
       stroke-linecap="butt"
       stroke-linejoin="miter"
       stroke="#0e6942"
       stroke-opacity="1"
       stroke-miterlimit="10"
       d="M 2,-2.5 C 2.666667,-1.666667 3.333333,-0.833333 4,0"
       transform="matrix(60.046875,0,0,-60,427,240)"
       id="path172" />
    <path
       fill="none"
       stroke-width="0.01"
       stroke-linecap="butt"
       stroke-linejoin="miter"
       stroke="#0e6942"
       stroke-opacity="1"
       stroke-miterlimit="10"
       d="m 2,-1.5 c 0.666667,0.166667 1.333333,0.333333 2,0.5"
       transform="matrix(60.046875,0,0,-60,427,240)"
       id="path174" />
    <path
       fill="none"
       stroke-width="0.01"
       stroke-linecap="butt"
       stroke-linejoin="miter"
       stroke="#0e6942"
       stroke-opacity="1"
       stroke-miterlimit="10"
       d="M 2,-1.5 C 2.666667,-1 3.333333,-0.5 4,0"
       transform="matrix(60.046875,0,0,-60,427,240)"
       id="path176" />
    <path
       fill="none"
       stroke-width="0.01"
       stroke-linecap="butt"
       stroke-linejoin="miter"
       stroke="#0e6942"
       stroke-opacity="1"
       stroke-miterlimit="10"
       d="M 2,-0.5 C 2.666667,-0.666667 3.333333,-0.833333 4,-1"
       transform="matrix(60.046875,0,0,-60,427,240)"
       id="path178" />
    <path
       fill="none"
       stroke-width="0.01"
       stroke-linecap="butt"
       stroke-linejoin="miter"
       stroke="#0e6942"
       stroke-opacity="1"
       stroke-miterlimit="10"
       d="M 2,-0.5 C 2.666667,-0.333333 3.333333,-0.166667 4,0"
       transform="matrix(60.046875,0,0,-60,427,240)"
       id="path180" />
    <path
       fill="none"
       stroke-width="0.01"
       stroke-linecap="butt"
       stroke-linejoin="miter"
       stroke="#0e6942"
       stroke-opacity="1"
       stroke-miterlimit="10"
       d="M 2,0.5 C 2.666667,0 3.333333,-0.5 4,-1"
       transform="matrix(60.046875,0,0,-60,427,240)"
       id="path182" />
    <path
       fill="none"
       stroke-width="0.01"
       stroke-linecap="butt"
       stroke-linejoin="miter"
       stroke="#0e6942"
       stroke-opacity="1"
       stroke-miterlimit="10"
       d="M 2,0.5 C 2.666667,0.333333 3.333333,0.166667 4,0"
       transform="matrix(60.046875,0,0,-60,427,240)"
       id="path184" />
    <path
       fill="none"
       stroke-width="0.01"
       stroke-linecap="butt"
       stroke-linejoin="miter"
       stroke="#0e6942"
       stroke-opacity="1"
       stroke-miterlimit="10"
       d="M 2,1.5 C 2.666667,0.666667 3.333333,-0.166667 4,-1"
       transform="matrix(60.046875,0,0,-60,427,240)"
       id="path186" />
    <path
       fill="none"
       stroke-width="0.01"
       stroke-linecap="butt"
       stroke-linejoin="miter"
       stroke="#0e6942"
       stroke-opacity="1"
       stroke-miterlimit="10"
       d="M 2,1.5 C 2.666667,1 3.333333,0.5 4,0"
       transform="matrix(60.046875,0,0,-60,427,240)"
       id="path188" />
    <path
       fill="none"
       stroke-width="0.01"
       stroke-linecap="butt"
       stroke-linejoin="miter"
       stroke="#0e6942"
       stroke-opacity="1"
       stroke-miterlimit="10"
       d="M 2,2.5 C 2.666667,1.333333 3.333333,0.166667 4,-1"
       transform="matrix(60.046875,0,0,-60,427,240)"
       id="path190" />
    <path
       fill="none"
       stroke-width="0.01"
       stroke-linecap="butt"
       stroke-linejoin="miter"
       stroke="#0e6942"
       stroke-opacity="1"
       stroke-miterlimit="10"
       d="M 2,2.5 C 2.666667,1.666667 3.333333,0.833333 4,0"
       transform="matrix(60.046875,0,0,-60,427,240)"
       id="path192" />
    <text
       xml:space="preserve"
       style="font-size:26.6667px;font-family:Roboto;-inkscape-font-specification:Roboto;text-align:center;text-anchor:middle;fill:#0b75bb;stroke:#0b75bb;stroke-width:2;stroke-linecap:round;stroke-linejoin:round"
       x="738.71002"
       y="246.75221"
       id="text488"><tspan
         sodipodi:role="line"
         id="tspan486"
         x="738.71002"
         y="246.75221"
         style="font-size:26.6667px;fill:#000000;fill-opacity:1;stroke:none">Papier</tspan></text>
    <text
       xml:space="preserve"
       style="font-size:26.6667px;font-family:Roboto;-inkscape-font-specification:Roboto;text-align:center;text-anchor:middle;fill:#0b75bb;stroke:#0b75bb;stroke-width:2;stroke-linecap:round;stroke-linejoin:round"
       x="739.30249"
       y="309.62802"
       id="text488-6"><tspan
         sodipodi:role="line"
         id="tspan486-8"
         x="739.30249"
         y="309.62802"
         style="font-size:26.6667px;fill:#000000;fill-opacity:1;stroke:none">PMD</tspan></text>
  </g>
  <text
     xml:space="preserve"
     style="font-size:123.301px;font-family:Roboto;-inkscape-font-specification:Roboto;text-align:center;text-anchor:middle;fill:#0b75bb;fill-opacity:1;stroke:none;stroke-width:1.84951;stroke-linecap:round;stroke-linejoin:round"
     x="537.57593"
     y="-417.54642"
     id="text1382"
     transform="matrix(0,0.79847581,-1.2523861,0,0,0)"><tspan
       sodipodi:role="line"
       id="tspan1380"
       x="537.57593"
       y="-417.54642"
       style="font-style:normal;font-variant:normal;font-weight:100;font-stretch:normal;font-size:123.301px;font-family:Roboto;-inkscape-font-specification:'Roboto Thin';stroke-width:1.84951;fill:#0b75bb">}</tspan></text>
  <text
     xml:space="preserve"
     style="font-style:normal;font-variant:normal;font-weight:100;font-stretch:normal;font-size:24px;font-family:Roboto;-inkscape-font-specification:'Roboto Thin';text-align:center;text-anchor:middle;fill:#0b75bb;fill-opacity:1;stroke:none;stroke-width:2;stroke-linecap:round;stroke-linejoin:round"
     x="567.07263"
     y="464.64413"
     id="text1440"><tspan
       sodipodi:role="line"
       id="tspan1438"
       x="567.07263"
       y="464.64413"
       style="font-style:normal;font-variant:normal;font-weight:normal;font-stretch:normal;font-size:24px;font-family:Roboto;-inkscape-font-specification:Roboto;stroke:none">Nieuwe laag</tspan></text>
</svg>
