<?xml version="1.0" encoding="UTF-8"?><svg xmlns="http://www.w3.org/2000/svg" xmlns:xlink="http://www.w3.org/1999/xlink" fill-opacity="1" color-rendering="auto" color-interpolation="auto" text-rendering="auto" stroke="black" stroke-linecap="square" width="939" stroke-miterlimit="10" shape-rendering="auto" stroke-opacity="1" fill="black" stroke-dasharray="none" font-weight="normal" stroke-width="1" height="1018" font-family="'Dialog'" font-style="normal" stroke-linejoin="miter" font-size="12px" stroke-dashoffset="0" image-rendering="auto">
  <!--Generated by ySVG 2.6-->
  <defs id="genericDefs"/>
  <g>
    <defs id="defs1">
      <clipPath clipPathUnits="userSpaceOnUse" id="clipPath1">
        <path d="M0 0 L939 0 L939 1018 L0 1018 L0 0 Z"/>
      </clipPath>
      <clipPath clipPathUnits="userSpaceOnUse" id="clipPath2">
        <path d="M290 249 L916 249 L916 927.6667 L290 927.6667 L290 249 Z"/>
      </clipPath>
    </defs>
    <g fill="white" text-rendering="geometricPrecision" shape-rendering="geometricPrecision" transform="scale(1.5,1.5) translate(-290,-249)" stroke="white">
      <rect x="290" width="626" height="679" y="249" clip-path="url(#clipPath2)" stroke="none"/>
    </g>
    <g text-rendering="geometricPrecision" stroke-miterlimit="1.45" shape-rendering="geometricPrecision" transform="matrix(1.5,0,0,1.5,-435,-373.5)" stroke-linecap="butt">
      <circle fill="none" r="40" clip-path="url(#clipPath2)" cx="376" cy="498"/>
      <text x="359.4897" font-size="18px" y="505.0708" clip-path="url(#clipPath2)" font-family="sans-serif" stroke="none" xml:space="preserve">Noa</text>
      <circle fill="none" r="40" clip-path="url(#clipPath2)" cx="544" cy="603"/>
      <text x="527.4897" font-size="18px" y="610.0708" clip-path="url(#clipPath2)" font-family="sans-serif" stroke="none" xml:space="preserve">Ren</text>
      <circle fill="none" r="40" clip-path="url(#clipPath2)" cx="769" cy="692"/>
      <text x="747.981" font-size="18px" y="699.0708" clip-path="url(#clipPath2)" font-family="sans-serif" stroke="none" xml:space="preserve">Eden</text>
      <circle fill="none" r="40" clip-path="url(#clipPath2)" cx="340" cy="674"/>
      <text x="320.4927" font-size="18px" y="681.0708" clip-path="url(#clipPath2)" font-family="sans-serif" stroke="none" xml:space="preserve">Alexi</text>
      <circle fill="none" r="40" clip-path="url(#clipPath2)" cx="617" cy="731"/>
      <text x="593.4849" font-size="18px" y="738.0708" clip-path="url(#clipPath2)" font-family="sans-serif" stroke="none" xml:space="preserve">Robin</text>
      <circle fill="none" r="40" clip-path="url(#clipPath2)" cx="708" cy="436"/>
      <text x="679.9849" font-size="18px" y="443.0708" clip-path="url(#clipPath2)" font-family="sans-serif" stroke="none" xml:space="preserve">Rowan</text>
      <circle fill="none" r="40" clip-path="url(#clipPath2)" cx="808" cy="849"/>
      <text x="777.9897" font-size="18px" y="856.0708" clip-path="url(#clipPath2)" font-family="sans-serif" stroke="none" xml:space="preserve">Yasmin</text>
      <circle fill="none" r="40" clip-path="url(#clipPath2)" cx="663" cy="878"/>
      <text x="642.4951" font-size="18px" y="885.0708" clip-path="url(#clipPath2)" font-family="sans-serif" stroke="none" xml:space="preserve">Sami</text>
      <circle fill="none" r="40" clip-path="url(#clipPath2)" cx="701" cy="299"/>
      <text x="687.4956" font-size="18px" y="306.0708" clip-path="url(#clipPath2)" font-family="sans-serif" stroke="none" xml:space="preserve">Cai</text>
      <circle fill="none" r="40" clip-path="url(#clipPath2)" cx="866" cy="429"/>
      <text x="844.9897" font-size="18px" y="436.0708" clip-path="url(#clipPath2)" font-family="sans-serif" stroke="none" xml:space="preserve">Jules</text>
      <path fill="none" d="M409.9199 519.2 L510.0801 581.8" clip-path="url(#clipPath2)"/>
      <path fill="none" d="M581.1958 617.713 L731.8042 677.287" clip-path="url(#clipPath2)"/>
      <path fill="none" d="M377.7774 660.852 L506.2226 616.148" clip-path="url(#clipPath2)"/>
      <path fill="none" d="M348.0158 634.8114 L367.9842 537.1886" clip-path="url(#clipPath2)"/>
      <path fill="none" d="M597.1837 696.2536 L563.8163 637.7464" clip-path="url(#clipPath2)"/>
      <path fill="none" d="M655.745 721.0588 L730.255 701.9412" clip-path="url(#clipPath2)"/>
      <path fill="none" d="M572.0268 574.4606 L679.9732 464.5395" clip-path="url(#clipPath2)"/>
      <path fill="none" d="M651.0296 752.0235 L773.9704 827.9765" clip-path="url(#clipPath2)"/>
      <path fill="none" d="M778.6432 730.8202 L798.3568 810.1798" clip-path="url(#clipPath2)"/>
      <path fill="none" d="M628.9458 769.1746 L651.0542 839.8254" clip-path="url(#clipPath2)"/>
      <path fill="none" d="M702.2232 870.1553 L768.7768 856.8447" clip-path="url(#clipPath2)"/>
      <path fill="none" d="M682.8053 843.2473 L749.1947 726.7527" clip-path="url(#clipPath2)"/>
      <path fill="none" d="M703.0411 338.9479 L705.9589 396.0521" clip-path="url(#clipPath2)"/>
      <path fill="none" d="M747.9608 434.2296 L826.0392 430.7704" clip-path="url(#clipPath2)"/>
    </g>
  </g>
</svg>
