<?xml version="1.0" encoding="UTF-8"?><svg xmlns="http://www.w3.org/2000/svg" xmlns:xlink="http://www.w3.org/1999/xlink" fill-opacity="1" color-rendering="auto" color-interpolation="auto" text-rendering="auto" stroke="black" stroke-linecap="square" width="447" stroke-miterlimit="10" shape-rendering="auto" stroke-opacity="1" fill="black" stroke-dasharray="none" font-weight="normal" stroke-width="1" height="441" font-family="'Dialog'" font-style="normal" stroke-linejoin="miter" font-size="12px" stroke-dashoffset="0" image-rendering="auto">
  <!--Generated by ySVG 2.6-->
  <defs id="genericDefs"/>
  <g>
    <defs id="defs1">
      <clipPath clipPathUnits="userSpaceOnUse" id="clipPath1">
        <path d="M0 0 L447 0 L447 441 L0 441 L0 0 Z"/>
      </clipPath>
      <clipPath clipPathUnits="userSpaceOnUse" id="clipPath2">
        <path d="M487 243 L934 243 L934 684 L487 684 L487 243 Z"/>
      </clipPath>
    </defs>
    <g fill="white" text-rendering="geometricPrecision" shape-rendering="geometricPrecision" transform="translate(-487,-243)" stroke="white">
      <rect x="487" width="447" height="441" y="243" clip-path="url(#clipPath2)" stroke="none"/>
    </g>
    <g text-rendering="geometricPrecision" shape-rendering="geometricPrecision" transform="matrix(1,0,0,1,-487,-243)">
      <circle r="1" clip-path="url(#clipPath2)" cx="504" cy="666.25" stroke="none"/>
      <circle stroke-linecap="butt" clip-path="url(#clipPath2)" fill="none" r="1" cx="504" cy="666.25" stroke-miterlimit="1.45"/>
      <circle r="1" clip-path="url(#clipPath2)" cx="656.5" cy="666.25" stroke="none"/>
      <circle stroke-linecap="butt" clip-path="url(#clipPath2)" fill="none" r="1" cx="656.5" cy="666.25" stroke-miterlimit="1.45"/>
      <circle r="1" clip-path="url(#clipPath2)" cx="504" cy="562.5" stroke="none"/>
      <circle stroke-linecap="butt" clip-path="url(#clipPath2)" fill="none" r="1" cx="504" cy="562.5" stroke-miterlimit="1.45"/>
      <circle r="1" clip-path="url(#clipPath2)" cx="656.5" cy="562.5" stroke="none"/>
      <circle stroke-linecap="butt" clip-path="url(#clipPath2)" fill="none" r="1" cx="656.5" cy="562.5" stroke-miterlimit="1.45"/>
      <circle r="1" clip-path="url(#clipPath2)" cx="504" cy="356.25" stroke="none"/>
      <circle stroke-linecap="butt" clip-path="url(#clipPath2)" fill="none" r="1" cx="504" cy="356.25" stroke-miterlimit="1.45"/>
      <circle r="1" clip-path="url(#clipPath2)" cx="656.5" cy="356.25" stroke="none"/>
      <circle stroke-linecap="butt" clip-path="url(#clipPath2)" fill="none" r="1" cx="656.5" cy="356.25" stroke-miterlimit="1.45"/>
      <circle r="1" clip-path="url(#clipPath2)" cx="656.5" cy="260" stroke="none"/>
      <circle stroke-linecap="butt" clip-path="url(#clipPath2)" fill="none" r="1" cx="656.5" cy="260" stroke-miterlimit="1.45"/>
      <circle r="1" clip-path="url(#clipPath2)" cx="764" cy="260" stroke="none"/>
      <circle stroke-linecap="butt" clip-path="url(#clipPath2)" fill="none" r="1" cx="764" cy="260" stroke-miterlimit="1.45"/>
      <circle r="1" clip-path="url(#clipPath2)" cx="764" cy="666.25" stroke="none"/>
      <circle stroke-linecap="butt" clip-path="url(#clipPath2)" fill="none" r="1" cx="764" cy="666.25" stroke-miterlimit="1.45"/>
      <circle r="1" clip-path="url(#clipPath2)" cx="916.5" cy="666.25" stroke="none"/>
      <circle stroke-linecap="butt" clip-path="url(#clipPath2)" fill="none" r="1" cx="916.5" cy="666.25" stroke-miterlimit="1.45"/>
      <circle r="1" clip-path="url(#clipPath2)" cx="764" cy="562.5" stroke="none"/>
      <circle stroke-linecap="butt" clip-path="url(#clipPath2)" fill="none" r="1" cx="764" cy="562.5" stroke-miterlimit="1.45"/>
      <circle r="1" clip-path="url(#clipPath2)" cx="916.5" cy="562.5" stroke="none"/>
      <circle stroke-linecap="butt" clip-path="url(#clipPath2)" fill="none" r="1" cx="916.5" cy="562.5" stroke-miterlimit="1.45"/>
      <circle r="1" clip-path="url(#clipPath2)" cx="764" cy="356.25" stroke="none"/>
      <circle stroke-linecap="butt" clip-path="url(#clipPath2)" fill="none" r="1" cx="764" cy="356.25" stroke-miterlimit="1.45"/>
      <circle r="1" clip-path="url(#clipPath2)" cx="916.5" cy="356.25" stroke="none"/>
      <circle stroke-linecap="butt" clip-path="url(#clipPath2)" fill="none" r="1" cx="916.5" cy="356.25" stroke-miterlimit="1.45"/>
      <path fill="none" stroke-miterlimit="1.45" d="M505 666.25 L655.5 666.25" stroke-width="2" clip-path="url(#clipPath2)" stroke-linecap="butt"/>
      <path fill="none" stroke-miterlimit="1.45" d="M504 563.5 L504 665.25" stroke-width="2" clip-path="url(#clipPath2)" stroke-linecap="butt"/>
      <path fill="none" stroke-miterlimit="1.45" d="M656.5 665.25 L656.5 563.5" stroke-width="2" clip-path="url(#clipPath2)" stroke-linecap="butt"/>
      <path fill="none" stroke-miterlimit="1.45" d="M655.5 562.5 L505 562.5" stroke-width="2" clip-path="url(#clipPath2)" stroke-linecap="butt"/>
      <path fill="none" stroke-miterlimit="1.45" d="M504 561.5 L504 357.25" stroke-width="2" clip-path="url(#clipPath2)" stroke-linecap="butt"/>
      <path fill="none" stroke-miterlimit="1.45" d="M505 356.25 L655.5 356.25" stroke-width="2" clip-path="url(#clipPath2)" stroke-linecap="butt"/>
      <path fill="none" stroke-miterlimit="1.45" d="M656.5 357.25 L656.5 561.5" stroke-width="2" clip-path="url(#clipPath2)" stroke-linecap="butt"/>
      <path fill="none" stroke-miterlimit="1.45" d="M656.5 355.25 L656.5 261" stroke-width="2" clip-path="url(#clipPath2)" stroke-linecap="butt"/>
      <path fill="none" stroke-miterlimit="1.45" d="M657.5 260 L763 260" stroke-width="2" clip-path="url(#clipPath2)" stroke-linecap="butt"/>
      <path fill="none" stroke-miterlimit="1.45" d="M915.5 666.25 L765 666.25" stroke-width="2" clip-path="url(#clipPath2)" stroke-linecap="butt"/>
      <path fill="none" stroke-miterlimit="1.45" d="M657.5 562.5 L763 562.5" stroke-width="2" clip-path="url(#clipPath2)" stroke-linecap="butt"/>
      <path fill="none" stroke-miterlimit="1.45" d="M764 563.5 L764 665.25" stroke-width="2" clip-path="url(#clipPath2)" stroke-linecap="butt"/>
      <path fill="none" stroke-miterlimit="1.45" d="M765 562.5 L915.5 562.5" stroke-width="2" clip-path="url(#clipPath2)" stroke-linecap="butt"/>
      <path fill="none" stroke-miterlimit="1.45" d="M916.5 563.5 L916.5 665.25" stroke-width="2" clip-path="url(#clipPath2)" stroke-linecap="butt"/>
      <path fill="none" stroke-miterlimit="1.45" d="M764 261 L764 355.25" stroke-width="2" clip-path="url(#clipPath2)" stroke-linecap="butt"/>
      <path fill="none" stroke-miterlimit="1.45" d="M764 357.25 L764 561.5" stroke-width="2" clip-path="url(#clipPath2)" stroke-linecap="butt"/>
      <path fill="none" stroke-miterlimit="1.45" d="M916.5 561.5 L916.5 357.25" stroke-width="2" clip-path="url(#clipPath2)" stroke-linecap="butt"/>
      <path fill="none" stroke-miterlimit="1.45" d="M915.5 356.25 L765 356.25" stroke-width="2" clip-path="url(#clipPath2)" stroke-linecap="butt"/>
    </g>
  </g>
</svg>
