<?xml version="1.0" encoding="UTF-8"?><svg xmlns="http://www.w3.org/2000/svg" xmlns:xlink="http://www.w3.org/1999/xlink" fill-opacity="1" color-rendering="auto" color-interpolation="auto" text-rendering="auto" stroke="black" stroke-linecap="square" width="473" stroke-miterlimit="10" shape-rendering="auto" stroke-opacity="1" fill="black" stroke-dasharray="none" font-weight="normal" stroke-width="1" height="467" font-family="'Dialog'" font-style="normal" stroke-linejoin="miter" font-size="12px" stroke-dashoffset="0" image-rendering="auto">
  <!--Generated by ySVG 2.6-->
  <defs id="genericDefs"/>
  <g>
    <defs id="defs1">
      <clipPath clipPathUnits="userSpaceOnUse" id="clipPath1">
        <path d="M0 0 L473 0 L473 467 L0 467 L0 0 Z"/>
      </clipPath>
      <clipPath clipPathUnits="userSpaceOnUse" id="clipPath2">
        <path d="M474 230 L947 230 L947 697 L474 697 L474 230 Z"/>
      </clipPath>
    </defs>
    <g fill="white" text-rendering="geometricPrecision" shape-rendering="geometricPrecision" transform="translate(-474,-230)" stroke="white">
      <rect x="474" width="473" height="467" y="230" clip-path="url(#clipPath2)" stroke="none"/>
    </g>
    <g text-rendering="geometricPrecision" stroke-miterlimit="1.45" shape-rendering="geometricPrecision" transform="matrix(1,0,0,1,-474,-230)" stroke-linecap="butt">
      <circle fill="none" r="15" clip-path="url(#clipPath2)" cx="504" cy="666.25"/>
      <circle fill="none" r="15" clip-path="url(#clipPath2)" cx="656.5" cy="666.25"/>
      <circle fill="none" r="15" clip-path="url(#clipPath2)" cx="504" cy="562.5"/>
      <circle fill="none" r="15" clip-path="url(#clipPath2)" cx="656.5" cy="562.5"/>
      <circle fill="none" r="15" clip-path="url(#clipPath2)" cx="504" cy="356.25"/>
      <circle fill="none" r="15" clip-path="url(#clipPath2)" cx="656.5" cy="356.25"/>
      <circle fill="none" r="15" clip-path="url(#clipPath2)" cx="656.5" cy="260"/>
      <circle fill="none" r="15" clip-path="url(#clipPath2)" cx="764" cy="260"/>
      <circle fill="none" r="15" clip-path="url(#clipPath2)" cx="764" cy="666.25"/>
      <circle fill="none" r="15" clip-path="url(#clipPath2)" cx="916.5" cy="666.25"/>
      <circle fill="none" r="15" clip-path="url(#clipPath2)" cx="764" cy="562.5"/>
      <circle fill="none" r="15" clip-path="url(#clipPath2)" cx="916.5" cy="562.5"/>
      <circle fill="none" r="15" clip-path="url(#clipPath2)" cx="764" cy="356.25"/>
      <circle fill="none" r="15" clip-path="url(#clipPath2)" cx="916.5" cy="356.25"/>
      <path fill="none" d="M519 666.25 L641.5 666.25" stroke-width="2" clip-path="url(#clipPath2)"/>
      <path fill="none" d="M504 577.5 L504 651.25" stroke-width="2" clip-path="url(#clipPath2)"/>
      <path fill="none" d="M656.5 651.25 L656.5 577.5" stroke-width="2" clip-path="url(#clipPath2)"/>
      <path fill="none" d="M641.5 562.5 L519 562.5" stroke-width="2" clip-path="url(#clipPath2)"/>
      <path fill="none" d="M504 547.5 L504 371.25" stroke-width="2" clip-path="url(#clipPath2)"/>
      <path fill="none" d="M519 356.25 L641.5 356.25" stroke-width="2" clip-path="url(#clipPath2)"/>
      <path fill="none" d="M656.5 371.25 L656.5 547.5" stroke-width="2" clip-path="url(#clipPath2)"/>
      <path fill="none" d="M656.5 341.25 L656.5 275" stroke-width="2" clip-path="url(#clipPath2)"/>
      <path fill="none" d="M671.5 260 L749 260" stroke-width="2" clip-path="url(#clipPath2)"/>
      <path fill="none" d="M901.5 666.25 L779 666.25" stroke-width="2" clip-path="url(#clipPath2)"/>
      <path fill="none" d="M671.5 562.5 L749 562.5" stroke-width="2" clip-path="url(#clipPath2)"/>
      <path fill="none" d="M764 577.5 L764 651.25" stroke-width="2" clip-path="url(#clipPath2)"/>
      <path fill="none" d="M779 562.5 L901.5 562.5" stroke-width="2" clip-path="url(#clipPath2)"/>
      <path fill="none" d="M916.5 577.5 L916.5 651.25" stroke-width="2" clip-path="url(#clipPath2)"/>
      <path fill="none" d="M764 275 L764 341.25" stroke-width="2" clip-path="url(#clipPath2)"/>
      <path fill="none" d="M764 371.25 L764 547.5" stroke-width="2" clip-path="url(#clipPath2)"/>
      <path fill="none" d="M916.5 547.5 L916.5 371.25" stroke-width="2" clip-path="url(#clipPath2)"/>
      <path fill="none" d="M901.5 356.25 L779 356.25" stroke-width="2" clip-path="url(#clipPath2)"/>
    </g>
  </g>
</svg>
