<?xml version="1.0" encoding="UTF-8"?><svg xmlns="http://www.w3.org/2000/svg" xmlns:xlink="http://www.w3.org/1999/xlink" fill-opacity="1" color-rendering="auto" color-interpolation="auto" text-rendering="auto" stroke="black" stroke-linecap="square" width="457" stroke-miterlimit="10" shape-rendering="auto" stroke-opacity="1" fill="black" stroke-dasharray="none" font-weight="normal" stroke-width="1" height="450" font-family="'Dialog'" font-style="normal" stroke-linejoin="miter" font-size="12px" stroke-dashoffset="0" image-rendering="auto">
  <!--Generated by ySVG 2.6-->
  <defs id="genericDefs"/>
  <g>
    <defs id="defs1">
      <clipPath clipPathUnits="userSpaceOnUse" id="clipPath1">
        <path d="M0 0 L457 0 L457 450 L0 450 L0 0 Z"/>
      </clipPath>
      <clipPath clipPathUnits="userSpaceOnUse" id="clipPath2">
        <path d="M1003 271 L1460 271 L1460 721 L1003 721 L1003 271 Z"/>
      </clipPath>
    </defs>
    <g fill="white" text-rendering="geometricPrecision" shape-rendering="geometricPrecision" transform="translate(-1003,-271)" stroke="white">
      <rect x="1003" width="457" height="450" y="271" clip-path="url(#clipPath2)" stroke="none"/>
    </g>
    <g text-rendering="geometricPrecision" stroke-miterlimit="1.45" shape-rendering="geometricPrecision" transform="matrix(1,0,0,1,-1003,-271)" stroke-linecap="butt">
      <circle fill="none" r="15" clip-path="url(#clipPath2)" cx="1033" cy="301"/>
      <circle fill="none" r="15" clip-path="url(#clipPath2)" cx="1173" cy="301"/>
      <circle fill="none" r="15" clip-path="url(#clipPath2)" cx="1033" cy="425"/>
      <circle fill="none" r="15" clip-path="url(#clipPath2)" cx="1173" cy="425"/>
      <circle fill="none" r="15" clip-path="url(#clipPath2)" cx="1103" cy="363"/>
      <circle fill="none" r="15" clip-path="url(#clipPath2)" cx="1103" cy="631"/>
      <circle fill="none" r="15" clip-path="url(#clipPath2)" cx="1370" cy="363"/>
      <circle fill="none" r="15" clip-path="url(#clipPath2)" cx="1370" cy="631"/>
      <circle fill="none" r="15" clip-path="url(#clipPath2)" cx="1310" cy="571"/>
      <circle fill="none" r="15" clip-path="url(#clipPath2)" cx="1310" cy="691"/>
      <circle fill="none" r="15" clip-path="url(#clipPath2)" cx="1430" cy="571"/>
      <circle fill="none" r="15" clip-path="url(#clipPath2)" cx="1430" cy="691"/>
      <circle fill="none" r="15" clip-path="url(#clipPath2)" cx="1103" cy="425"/>
      <circle fill="none" r="15" clip-path="url(#clipPath2)" cx="1173" cy="363"/>
      <circle fill="none" r="15" clip-path="url(#clipPath2)" cx="1310" cy="631"/>
      <circle fill="none" r="15" clip-path="url(#clipPath2)" cx="1370" cy="571"/>
      <path fill="none" d="M1158 301 L1048 301" stroke-width="2" clip-path="url(#clipPath2)"/>
      <path fill="none" d="M1033 316 L1033 410" stroke-width="2" clip-path="url(#clipPath2)"/>
      <path fill="none" d="M1325 691 L1415 691" stroke-width="2" clip-path="url(#clipPath2)"/>
      <path fill="none" d="M1430 676 L1430 586" stroke-width="2" clip-path="url(#clipPath2)"/>
      <path fill="none" d="M1103 378 L1103 410" stroke-width="2" clip-path="url(#clipPath2)"/>
      <path fill="none" d="M1048 425 L1088 425" stroke-width="2" clip-path="url(#clipPath2)"/>
      <path fill="none" d="M1103 440 L1103 616" stroke-width="2" clip-path="url(#clipPath2)"/>
      <path fill="none" d="M1118 425 L1158 425" stroke-width="2" clip-path="url(#clipPath2)"/>
      <path fill="none" d="M1355 363 L1188 363" stroke-width="2" clip-path="url(#clipPath2)"/>
      <path fill="none" d="M1173 410 L1173 378" stroke-width="2" clip-path="url(#clipPath2)"/>
      <path fill="none" d="M1158 363 L1118 363" stroke-width="2" clip-path="url(#clipPath2)"/>
      <path fill="none" d="M1173 348 L1173 316" stroke-width="2" clip-path="url(#clipPath2)"/>
      <path fill="none" d="M1310 586 L1310 616" stroke-width="2" clip-path="url(#clipPath2)"/>
      <path fill="none" d="M1118 631 L1295 631" stroke-width="2" clip-path="url(#clipPath2)"/>
      <path fill="none" d="M1310 646 L1310 676" stroke-width="2" clip-path="url(#clipPath2)"/>
      <path fill="none" d="M1325 631 L1355 631" stroke-width="2" clip-path="url(#clipPath2)"/>
      <path fill="none" d="M1415 571 L1385 571" stroke-width="2" clip-path="url(#clipPath2)"/>
      <path fill="none" d="M1370 616 L1370 586" stroke-width="2" clip-path="url(#clipPath2)"/>
      <path fill="none" d="M1355 571 L1325 571" stroke-width="2" clip-path="url(#clipPath2)"/>
      <path fill="none" d="M1370 556 L1370 378" stroke-width="2" clip-path="url(#clipPath2)"/>
    </g>
  </g>
</svg>
