<?xml version="1.0" encoding="UTF-8"?><svg xmlns="http://www.w3.org/2000/svg" xmlns:xlink="http://www.w3.org/1999/xlink" fill-opacity="1" color-rendering="auto" color-interpolation="auto" text-rendering="auto" stroke="black" stroke-linecap="square" width="307" stroke-miterlimit="10" shape-rendering="auto" stroke-opacity="1" fill="black" stroke-dasharray="none" font-weight="normal" stroke-width="1" height="407" font-family="'Dialog'" font-style="normal" stroke-linejoin="miter" font-size="12px" stroke-dashoffset="0" image-rendering="auto">
  <!--Generated by ySVG 2.6-->
  <defs id="genericDefs"/>
  <g>
    <defs id="defs1">
      <clipPath clipPathUnits="userSpaceOnUse" id="clipPath1">
        <path d="M0 0 L307 0 L307 407 L0 407 L0 0 Z"/>
      </clipPath>
      <clipPath clipPathUnits="userSpaceOnUse" id="clipPath2">
        <path d="M870 408 L1177 408 L1177 815 L870 815 L870 408 Z"/>
      </clipPath>
    </defs>
    <g fill="white" text-rendering="geometricPrecision" shape-rendering="geometricPrecision" transform="translate(-870,-408)" stroke="white">
      <rect x="870" width="307" height="407" y="408" clip-path="url(#clipPath2)" stroke="none"/>
    </g>
    <g text-rendering="geometricPrecision" stroke-miterlimit="1.45" shape-rendering="geometricPrecision" transform="matrix(1,0,0,1,-870,-408)" stroke-linecap="butt">
      <circle fill="none" r="15" clip-path="url(#clipPath2)" cx="900" cy="785"/>
      <circle fill="none" r="15" clip-path="url(#clipPath2)" cx="900" cy="572"/>
      <circle fill="none" r="15" clip-path="url(#clipPath2)" cx="1147" cy="572"/>
      <circle fill="none" r="15" clip-path="url(#clipPath2)" cx="1147" cy="785"/>
      <circle fill="none" r="15" clip-path="url(#clipPath2)" cx="1022" cy="438"/>
      <circle fill="none" r="15" clip-path="url(#clipPath2)" cx="1022" cy="677"/>
      <path fill="none" d="M900 770 L900 587" stroke-width="2" clip-path="url(#clipPath2)"/>
      <path fill="none" d="M915 572 L1132 572" stroke-width="2" clip-path="url(#clipPath2)"/>
      <path fill="none" d="M1147 587 L1147 770" stroke-width="2" clip-path="url(#clipPath2)"/>
      <path fill="none" d="M1132 785 L915 785" stroke-width="2" clip-path="url(#clipPath2)"/>
      <path fill="none" d="M910.0983 560.9084 L1011.9017 449.0916" stroke-width="2" clip-path="url(#clipPath2)"/>
      <path fill="none" d="M1032.2318 448.9685 L1136.7682 561.0314" stroke-width="2" clip-path="url(#clipPath2)"/>
      <path fill="none" d="M911.3691 581.7849 L1010.6309 667.2151" stroke-width="2" clip-path="url(#clipPath2)"/>
      <path fill="none" d="M1033.3503 686.8066 L1135.6497 775.1934" stroke-width="2" clip-path="url(#clipPath2)"/>
      <path fill="none" d="M1033.4856 667.3521 L1135.5144 581.6479" stroke-width="2" clip-path="url(#clipPath2)"/>
      <path fill="none" d="M1010.7686 686.9426 L911.2314 775.0574" stroke-width="2" clip-path="url(#clipPath2)"/>
    </g>
  </g>
</svg>
