<?xml version="1.0" encoding="UTF-8"?><svg xmlns="http://www.w3.org/2000/svg" xmlns:xlink="http://www.w3.org/1999/xlink" fill-opacity="1" color-rendering="auto" color-interpolation="auto" text-rendering="auto" stroke="black" stroke-linecap="square" width="552" stroke-miterlimit="10" shape-rendering="auto" stroke-opacity="1" fill="black" stroke-dasharray="none" font-weight="normal" stroke-width="1" height="456" font-family="'Dialog'" font-style="normal" stroke-linejoin="miter" font-size="12px" stroke-dashoffset="0" image-rendering="auto">
  <!--Generated by ySVG 2.6-->
  <defs id="genericDefs"/>
  <g>
    <defs id="defs1">
      <clipPath clipPathUnits="userSpaceOnUse" id="clipPath1">
        <path d="M0 0 L552 0 L552 456 L0 456 L0 0 Z"/>
      </clipPath>
      <clipPath clipPathUnits="userSpaceOnUse" id="clipPath2">
        <path d="M467 450 L743 450 L743 678 L467 678 L467 450 Z"/>
      </clipPath>
    </defs>
    <g fill="white" text-rendering="geometricPrecision" shape-rendering="geometricPrecision" transform="scale(2,2) translate(-467,-450)" stroke="white">
      <rect x="467" width="276" height="228" y="450" clip-path="url(#clipPath2)" stroke="none"/>
    </g>
    <g text-rendering="geometricPrecision" stroke-miterlimit="1.45" shape-rendering="geometricPrecision" transform="matrix(2,0,0,2,-934,-900)" stroke-linecap="butt">
      <circle fill="none" r="30.5648" clip-path="url(#clipPath2)" cx="506.432" cy="564.816"/>
      <text x="482.4086" xml:space="preserve" y="569.5298" clip-path="url(#clipPath2)" font-family="sans-serif" stroke="none">Beneden</text>
      <circle fill="none" r="30.5648" clip-path="url(#clipPath2)" cx="704.2688" cy="577.7792"/>
      <text x="687.2561" xml:space="preserve" y="582.493" clip-path="url(#clipPath2)" font-family="sans-serif" stroke="none">Boven</text>
      <path fill="none" d="M524.145 539.8967 L533.6913 527.8297 L547.0499 513.473 L560.2278 501.8739 L573.225 493.0324 L586.0416 486.9486 L598.6774 483.6224 L611.1326 483.0538 L623.407 485.2428 L635.5008 490.1894 L647.4139 497.8936 L659.1462 508.3555 L670.6979 521.575 L682.0689 537.5521 L685.8566 543.8934" clip-path="url(#clipPath2)"/>
      <path d="M689.9589 550.7615 L688.098 537.8954 L685.3438 543.0349 L679.5128 543.0234 Z" clip-path="url(#clipPath2)" stroke="none"/>
      <text x="571.4901" xml:space="preserve" y="472.7129" clip-path="url(#clipPath2)" font-family="sans-serif" stroke="none">Op de ladder</text>
      <path fill="none" d="M681.9376 556.9531 L680.8588 556.0204 L669.0123 547.2987 L657.0717 540.0154 L645.0367 534.1707 L632.9076 529.7643 L620.6842 526.7964 L608.3665 525.267 L595.9546 525.1761 L583.4484 526.5236 L570.848 529.3094 L558.1533 533.5339 L545.3644 539.1967 L538.2415 543.1229 L538.158 543.1779" clip-path="url(#clipPath2)"/>
      <path d="M531.2031 547.1313 L544.1063 545.5479 L539.0273 542.6837 L539.1645 536.8543 Z" clip-path="url(#clipPath2)" stroke="none"/>
      <text x="566.8159" xml:space="preserve" y="519.8033" clip-path="url(#clipPath2)" font-family="sans-serif" stroke="none">Van de ladder</text>
      <path fill="none" d="M685.1235 601.6091 L677.2938 610.4274 L664.0468 623.0798 L650.9603 633.2845 L638.0341 641.0415 L625.2683 646.3507 L612.663 649.2122 L600.218 649.6259 L587.9333 647.5917 L575.8091 643.1099 L563.8453 636.1803 L552.0419 626.803 L540.3988 614.9778 L528.9161 600.705 L526.7897 597.5646" clip-path="url(#clipPath2)"/>
      <path d="M522.3041 590.9404 L524.8923 603.6802 L527.3503 598.3926 L533.1725 598.0733 Z" clip-path="url(#clipPath2)" stroke="none"/>
      <text x="565.3748" xml:space="preserve" y="665.1436" clip-path="url(#clipPath2)" font-family="sans-serif" stroke="none">Van de glijbaan</text>
    </g>
  </g>
</svg>
