<?xml version="1.0" encoding="UTF-8"?>
<svg xmlns="http://www.w3.org/2000/svg" xmlns:xlink="http://www.w3.org/1999/xlink" width="854" height="480" viewBox="0 0 854 480">
<path fill="none" stroke-width="0.04" stroke-linecap="butt" stroke-linejoin="miter" stroke="rgb(5.490196%, 41.176471%, 25.882353%)" stroke-opacity="1" stroke-miterlimit="10" d="M -3.699974 -1.5 C -3.699974 -1.421484 -3.732305 -1.343424 -3.787861 -1.287891 C -3.843417 -1.232357 -3.921481 -1.2 -4 -1.2 C -4.078519 -1.2 -4.156583 -1.232357 -4.212139 -1.287891 C -4.267695 -1.343424 -4.300026 -1.421484 -4.300026 -1.5 C -4.300026 -1.578516 -4.267695 -1.656576 -4.212139 -1.712109 C -4.156583 -1.767643 -4.078519 -1.8 -4 -1.8 C -3.921481 -1.8 -3.843417 -1.767643 -3.787861 -1.712109 C -3.732305 -1.656576 -3.699974 -1.578516 -3.699974 -1.5 Z M -3.699974 -1.5 " transform="matrix(60.046875, 0, 0, -60, 427, 240)"/>
<path fill="none" stroke-width="0.04" stroke-linecap="butt" stroke-linejoin="miter" stroke="rgb(5.490196%, 41.176471%, 25.882353%)" stroke-opacity="1" stroke-miterlimit="10" d="M -3.699974 -0.5 C -3.699974 -0.421484 -3.732305 -0.343424 -3.787861 -0.287891 C -3.843417 -0.232357 -3.921481 -0.2 -4 -0.2 C -4.078519 -0.2 -4.156583 -0.232357 -4.212139 -0.287891 C -4.267695 -0.343424 -4.300026 -0.421484 -4.300026 -0.5 C -4.300026 -0.578516 -4.267695 -0.656576 -4.212139 -0.712109 C -4.156583 -0.767643 -4.078519 -0.8 -4 -0.8 C -3.921481 -0.8 -3.843417 -0.767643 -3.787861 -0.712109 C -3.732305 -0.656576 -3.699974 -0.578516 -3.699974 -0.5 Z M -3.699974 -0.5 " transform="matrix(60.046875, 0, 0, -60, 427, 240)"/>
<path fill="none" stroke-width="0.04" stroke-linecap="butt" stroke-linejoin="miter" stroke="rgb(5.490196%, 41.176471%, 25.882353%)" stroke-opacity="1" stroke-miterlimit="10" d="M -3.699974 0.5 C -3.699974 0.578516 -3.732305 0.656576 -3.787861 0.712109 C -3.843417 0.767643 -3.921481 0.8 -4 0.8 C -4.078519 0.8 -4.156583 0.767643 -4.212139 0.712109 C -4.267695 0.656576 -4.300026 0.578516 -4.300026 0.5 C -4.300026 0.421484 -4.267695 0.343424 -4.212139 0.287891 C -4.156583 0.232357 -4.078519 0.2 -4 0.2 C -3.921481 0.2 -3.843417 0.232357 -3.787861 0.287891 C -3.732305 0.343424 -3.699974 0.421484 -3.699974 0.5 Z M -3.699974 0.5 " transform="matrix(60.046875, 0, 0, -60, 427, 240)"/>
<path fill-rule="nonzero" fill="rgb(5.490196%, 41.176471%, 25.882353%)" fill-opacity="1" stroke-width="0.04" stroke-linecap="butt" stroke-linejoin="miter" stroke="rgb(5.490196%, 41.176471%, 25.882353%)" stroke-opacity="1" stroke-miterlimit="10" d="M -3.949974 1.25 C -3.949974 1.263086 -3.955373 1.276107 -3.964676 1.285352 C -3.973914 1.294596 -3.986924 1.3 -4 1.3 C -4.013076 1.3 -4.026086 1.294596 -4.035324 1.285352 C -4.044627 1.276107 -4.050026 1.263086 -4.050026 1.25 C -4.050026 1.236914 -4.044627 1.223893 -4.035324 1.214648 C -4.026086 1.205404 -4.013076 1.2 -4 1.2 C -3.986924 1.2 -3.973914 1.205404 -3.964676 1.214648 C -3.955373 1.223893 -3.949974 1.236914 -3.949974 1.25 Z M -3.949974 1.25 " transform="matrix(60.046875, 0, 0, -60, 427, 240)"/>
<path fill-rule="nonzero" fill="rgb(5.490196%, 41.176471%, 25.882353%)" fill-opacity="1" stroke-width="0.04" stroke-linecap="butt" stroke-linejoin="miter" stroke="rgb(5.490196%, 41.176471%, 25.882353%)" stroke-opacity="1" stroke-miterlimit="10" d="M -3.949974 1.5 C -3.949974 1.513086 -3.955373 1.526107 -3.964676 1.535352 C -3.973914 1.544596 -3.986924 1.55 -4 1.55 C -4.013076 1.55 -4.026086 1.544596 -4.035324 1.535352 C -4.044627 1.526107 -4.050026 1.513086 -4.050026 1.5 C -4.050026 1.486914 -4.044627 1.473893 -4.035324 1.464648 C -4.026086 1.455404 -4.013076 1.45 -4 1.45 C -3.986924 1.45 -3.973914 1.455404 -3.964676 1.464648 C -3.955373 1.473893 -3.949974 1.486914 -3.949974 1.5 Z M -3.949974 1.5 " transform="matrix(60.046875, 0, 0, -60, 427, 240)"/>
<path fill-rule="nonzero" fill="rgb(5.490196%, 41.176471%, 25.882353%)" fill-opacity="1" stroke-width="0.04" stroke-linecap="butt" stroke-linejoin="miter" stroke="rgb(5.490196%, 41.176471%, 25.882353%)" stroke-opacity="1" stroke-miterlimit="10" d="M -3.949974 1.75 C -3.949974 1.763086 -3.955373 1.776107 -3.964676 1.785352 C -3.973914 1.794596 -3.986924 1.8 -4 1.8 C -4.013076 1.8 -4.026086 1.794596 -4.035324 1.785352 C -4.044627 1.776107 -4.050026 1.763086 -4.050026 1.75 C -4.050026 1.736914 -4.044627 1.723893 -4.035324 1.714648 C -4.026086 1.705404 -4.013076 1.7 -4 1.7 C -3.986924 1.7 -3.973914 1.705404 -3.964676 1.714648 C -3.955373 1.723893 -3.949974 1.736914 -3.949974 1.75 Z M -3.949974 1.75 " transform="matrix(60.046875, 0, 0, -60, 427, 240)"/>
<path fill-rule="nonzero" fill="rgb(5.490196%, 41.176471%, 25.882353%)" fill-opacity="1" stroke-width="0.04" stroke-linecap="butt" stroke-linejoin="miter" stroke="rgb(5.490196%, 41.176471%, 25.882353%)" stroke-opacity="1" stroke-miterlimit="10" d="M -3.949974 -2.25 C -3.949974 -2.236914 -3.955373 -2.223893 -3.964676 -2.214648 C -3.973914 -2.205404 -3.986924 -2.2 -4 -2.2 C -4.013076 -2.2 -4.026086 -2.205404 -4.035324 -2.214648 C -4.044627 -2.223893 -4.050026 -2.236914 -4.050026 -2.25 C -4.050026 -2.263086 -4.044627 -2.276107 -4.035324 -2.285352 C -4.026086 -2.294596 -4.013076 -2.3 -4 -2.3 C -3.986924 -2.3 -3.973914 -2.294596 -3.964676 -2.285352 C -3.955373 -2.276107 -3.949974 -2.263086 -3.949974 -2.25 Z M -3.949974 -2.25 " transform="matrix(60.046875, 0, 0, -60, 427, 240)"/>
<path fill-rule="nonzero" fill="rgb(5.490196%, 41.176471%, 25.882353%)" fill-opacity="1" stroke-width="0.04" stroke-linecap="butt" stroke-linejoin="miter" stroke="rgb(5.490196%, 41.176471%, 25.882353%)" stroke-opacity="1" stroke-miterlimit="10" d="M -3.949974 -2.5 C -3.949974 -2.486914 -3.955373 -2.473893 -3.964676 -2.464648 C -3.973914 -2.455404 -3.986924 -2.45 -4 -2.45 C -4.013076 -2.45 -4.026086 -2.455404 -4.035324 -2.464648 C -4.044627 -2.473893 -4.050026 -2.486914 -4.050026 -2.5 C -4.050026 -2.513086 -4.044627 -2.526107 -4.035324 -2.535352 C -4.026086 -2.544596 -4.013076 -2.55 -4 -2.55 C -3.986924 -2.55 -3.973914 -2.544596 -3.964676 -2.535352 C -3.955373 -2.526107 -3.949974 -2.513086 -3.949974 -2.5 Z M -3.949974 -2.5 " transform="matrix(60.046875, 0, 0, -60, 427, 240)"/>
<path fill-rule="nonzero" fill="rgb(5.490196%, 41.176471%, 25.882353%)" fill-opacity="1" stroke-width="0.04" stroke-linecap="butt" stroke-linejoin="miter" stroke="rgb(5.490196%, 41.176471%, 25.882353%)" stroke-opacity="1" stroke-miterlimit="10" d="M -3.949974 -2.75 C -3.949974 -2.736914 -3.955373 -2.723893 -3.964676 -2.714648 C -3.973914 -2.705404 -3.986924 -2.7 -4 -2.7 C -4.013076 -2.7 -4.026086 -2.705404 -4.035324 -2.714648 C -4.044627 -2.723893 -4.050026 -2.736914 -4.050026 -2.75 C -4.050026 -2.763086 -4.044627 -2.776107 -4.035324 -2.785352 C -4.026086 -2.794596 -4.013076 -2.8 -4 -2.8 C -3.986924 -2.8 -3.973914 -2.794596 -3.964676 -2.785352 C -3.955373 -2.776107 -3.949974 -2.763086 -3.949974 -2.75 Z M -3.949974 -2.75 " transform="matrix(60.046875, 0, 0, -60, 427, 240)"/>
<path fill="none" stroke-width="0.04" stroke-linecap="butt" stroke-linejoin="miter" stroke="rgb(5.490196%, 41.176471%, 25.882353%)" stroke-opacity="1" stroke-miterlimit="10" d="M -1.699974 -2 C -1.699974 -1.921484 -1.732305 -1.843424 -1.787861 -1.787891 C -1.843417 -1.732357 -1.921481 -1.7 -2 -1.7 C -2.078519 -1.7 -2.156583 -1.732357 -2.212139 -1.787891 C -2.267695 -1.843424 -2.300026 -1.921484 -2.300026 -2 C -2.300026 -2.078516 -2.267695 -2.156576 -2.212139 -2.212109 C -2.156583 -2.267643 -2.078519 -2.3 -2 -2.3 C -1.921481 -2.3 -1.843417 -2.267643 -1.787861 -2.212109 C -1.732305 -2.156576 -1.699974 -2.078516 -1.699974 -2 Z M -1.699974 -2 " transform="matrix(60.046875, 0, 0, -60, 427, 240)"/>
<path fill="none" stroke-width="0.04" stroke-linecap="butt" stroke-linejoin="miter" stroke="rgb(5.490196%, 41.176471%, 25.882353%)" stroke-opacity="1" stroke-miterlimit="10" d="M -1.699974 -1 C -1.699974 -0.921484 -1.732305 -0.843424 -1.787861 -0.787891 C -1.843417 -0.732357 -1.921481 -0.7 -2 -0.7 C -2.078519 -0.7 -2.156583 -0.732357 -2.212139 -0.787891 C -2.267695 -0.843424 -2.300026 -0.921484 -2.300026 -1 C -2.300026 -1.078516 -2.267695 -1.156576 -2.212139 -1.212109 C -2.156583 -1.267643 -2.078519 -1.3 -2 -1.3 C -1.921481 -1.3 -1.843417 -1.267643 -1.787861 -1.212109 C -1.732305 -1.156576 -1.699974 -1.078516 -1.699974 -1 Z M -1.699974 -1 " transform="matrix(60.046875, 0, 0, -60, 427, 240)"/>
<path fill="none" stroke-width="0.04" stroke-linecap="butt" stroke-linejoin="miter" stroke="rgb(5.490196%, 41.176471%, 25.882353%)" stroke-opacity="1" stroke-miterlimit="10" d="M -1.699974 0 C -1.699974 0.0785156 -1.732305 0.156576 -1.787861 0.212109 C -1.843417 0.267643 -1.921481 0.3 -2 0.3 C -2.078519 0.3 -2.156583 0.267643 -2.212139 0.212109 C -2.267695 0.156576 -2.300026 0.0785156 -2.300026 0 C -2.300026 -0.0785156 -2.267695 -0.156576 -2.212139 -0.212109 C -2.156583 -0.267643 -2.078519 -0.3 -2 -0.3 C -1.921481 -0.3 -1.843417 -0.267643 -1.787861 -0.212109 C -1.732305 -0.156576 -1.699974 -0.0785156 -1.699974 0 Z M -1.699974 0 " transform="matrix(60.046875, 0, 0, -60, 427, 240)"/>
<path fill="none" stroke-width="0.04" stroke-linecap="butt" stroke-linejoin="miter" stroke="rgb(5.490196%, 41.176471%, 25.882353%)" stroke-opacity="1" stroke-miterlimit="10" d="M -1.699974 1 C -1.699974 1.078516 -1.732305 1.156576 -1.787861 1.212109 C -1.843417 1.267643 -1.921481 1.3 -2 1.3 C -2.078519 1.3 -2.156583 1.267643 -2.212139 1.212109 C -2.267695 1.156576 -2.300026 1.078516 -2.300026 1 C -2.300026 0.921484 -2.267695 0.843424 -2.212139 0.787891 C -2.156583 0.732357 -2.078519 0.7 -2 0.7 C -1.921481 0.7 -1.843417 0.732357 -1.787861 0.787891 C -1.732305 0.843424 -1.699974 0.921484 -1.699974 1 Z M -1.699974 1 " transform="matrix(60.046875, 0, 0, -60, 427, 240)"/>
<path fill="none" stroke-width="0.04" stroke-linecap="butt" stroke-linejoin="miter" stroke="rgb(5.490196%, 41.176471%, 25.882353%)" stroke-opacity="1" stroke-miterlimit="10" d="M 0.300026 -2 C 0.300026 -1.921484 0.267695 -1.843424 0.212139 -1.787891 C 0.156583 -1.732357 0.0785194 -1.7 0 -1.7 C -0.0785194 -1.7 -0.156583 -1.732357 -0.212139 -1.787891 C -0.267695 -1.843424 -0.300026 -1.921484 -0.300026 -2 C -0.300026 -2.078516 -0.267695 -2.156576 -0.212139 -2.212109 C -0.156583 -2.267643 -0.0785194 -2.3 0 -2.3 C 0.0785194 -2.3 0.156583 -2.267643 0.212139 -2.212109 C 0.267695 -2.156576 0.300026 -2.078516 0.300026 -2 Z M 0.300026 -2 " transform="matrix(60.046875, 0, 0, -60, 427, 240)"/>
<path fill="none" stroke-width="0.04" stroke-linecap="butt" stroke-linejoin="miter" stroke="rgb(5.490196%, 41.176471%, 25.882353%)" stroke-opacity="1" stroke-miterlimit="10" d="M 0.300026 -1 C 0.300026 -0.921484 0.267695 -0.843424 0.212139 -0.787891 C 0.156583 -0.732357 0.0785194 -0.7 0 -0.7 C -0.0785194 -0.7 -0.156583 -0.732357 -0.212139 -0.787891 C -0.267695 -0.843424 -0.300026 -0.921484 -0.300026 -1 C -0.300026 -1.078516 -0.267695 -1.156576 -0.212139 -1.212109 C -0.156583 -1.267643 -0.0785194 -1.3 0 -1.3 C 0.0785194 -1.3 0.156583 -1.267643 0.212139 -1.212109 C 0.267695 -1.156576 0.300026 -1.078516 0.300026 -1 Z M 0.300026 -1 " transform="matrix(60.046875, 0, 0, -60, 427, 240)"/>
<path fill="none" stroke-width="0.04" stroke-linecap="butt" stroke-linejoin="miter" stroke="rgb(5.490196%, 41.176471%, 25.882353%)" stroke-opacity="1" stroke-miterlimit="10" d="M 0.300026 0 C 0.300026 0.0785156 0.267695 0.156576 0.212139 0.212109 C 0.156583 0.267643 0.0785194 0.3 0 0.3 C -0.0785194 0.3 -0.156583 0.267643 -0.212139 0.212109 C -0.267695 0.156576 -0.300026 0.0785156 -0.300026 0 C -0.300026 -0.0785156 -0.267695 -0.156576 -0.212139 -0.212109 C -0.156583 -0.267643 -0.0785194 -0.3 0 -0.3 C 0.0785194 -0.3 0.156583 -0.267643 0.212139 -0.212109 C 0.267695 -0.156576 0.300026 -0.0785156 0.300026 0 Z M 0.300026 0 " transform="matrix(60.046875, 0, 0, -60, 427, 240)"/>
<path fill="none" stroke-width="0.04" stroke-linecap="butt" stroke-linejoin="miter" stroke="rgb(5.490196%, 41.176471%, 25.882353%)" stroke-opacity="1" stroke-miterlimit="10" d="M 0.300026 1 C 0.300026 1.078516 0.267695 1.156576 0.212139 1.212109 C 0.156583 1.267643 0.0785194 1.3 0 1.3 C -0.0785194 1.3 -0.156583 1.267643 -0.212139 1.212109 C -0.267695 1.156576 -0.300026 1.078516 -0.300026 1 C -0.300026 0.921484 -0.267695 0.843424 -0.212139 0.787891 C -0.156583 0.732357 -0.0785194 0.7 0 0.7 C 0.0785194 0.7 0.156583 0.732357 0.212139 0.787891 C 0.267695 0.843424 0.300026 0.921484 0.300026 1 Z M 0.300026 1 " transform="matrix(60.046875, 0, 0, -60, 427, 240)"/>
<path fill="none" stroke-width="0.04" stroke-linecap="butt" stroke-linejoin="miter" stroke="rgb(5.490196%, 41.176471%, 25.882353%)" stroke-opacity="1" stroke-miterlimit="10" d="M 2.300026 -3.5 C 2.300026 -3.421484 2.267695 -3.343424 2.212139 -3.287891 C 2.156583 -3.232357 2.078519 -3.2 2 -3.2 C 1.921481 -3.2 1.843417 -3.232357 1.787861 -3.287891 C 1.732305 -3.343424 1.699974 -3.421484 1.699974 -3.5 C 1.699974 -3.578516 1.732305 -3.656576 1.787861 -3.712109 C 1.843417 -3.767643 1.921481 -3.8 2 -3.8 C 2.078519 -3.8 2.156583 -3.767643 2.212139 -3.712109 C 2.267695 -3.656576 2.300026 -3.578516 2.300026 -3.5 Z M 2.300026 -3.5 " transform="matrix(60.046875, 0, 0, -60, 427, 240)"/>
<path fill="none" stroke-width="0.04" stroke-linecap="butt" stroke-linejoin="miter" stroke="rgb(5.490196%, 41.176471%, 25.882353%)" stroke-opacity="1" stroke-miterlimit="10" d="M 2.300026 -2.5 C 2.300026 -2.421484 2.267695 -2.343424 2.212139 -2.287891 C 2.156583 -2.232357 2.078519 -2.2 2 -2.2 C 1.921481 -2.2 1.843417 -2.232357 1.787861 -2.287891 C 1.732305 -2.343424 1.699974 -2.421484 1.699974 -2.5 C 1.699974 -2.578516 1.732305 -2.656576 1.787861 -2.712109 C 1.843417 -2.767643 1.921481 -2.8 2 -2.8 C 2.078519 -2.8 2.156583 -2.767643 2.212139 -2.712109 C 2.267695 -2.656576 2.300026 -2.578516 2.300026 -2.5 Z M 2.300026 -2.5 " transform="matrix(60.046875, 0, 0, -60, 427, 240)"/>
<path fill="none" stroke-width="0.04" stroke-linecap="butt" stroke-linejoin="miter" stroke="rgb(5.490196%, 41.176471%, 25.882353%)" stroke-opacity="1" stroke-miterlimit="10" d="M 2.300026 -1.5 C 2.300026 -1.421484 2.267695 -1.343424 2.212139 -1.287891 C 2.156583 -1.232357 2.078519 -1.2 2 -1.2 C 1.921481 -1.2 1.843417 -1.232357 1.787861 -1.287891 C 1.732305 -1.343424 1.699974 -1.421484 1.699974 -1.5 C 1.699974 -1.578516 1.732305 -1.656576 1.787861 -1.712109 C 1.843417 -1.767643 1.921481 -1.8 2 -1.8 C 2.078519 -1.8 2.156583 -1.767643 2.212139 -1.712109 C 2.267695 -1.656576 2.300026 -1.578516 2.300026 -1.5 Z M 2.300026 -1.5 " transform="matrix(60.046875, 0, 0, -60, 427, 240)"/>
<path fill="none" stroke-width="0.04" stroke-linecap="butt" stroke-linejoin="miter" stroke="rgb(5.490196%, 41.176471%, 25.882353%)" stroke-opacity="1" stroke-miterlimit="10" d="M 2.300026 -0.5 C 2.300026 -0.421484 2.267695 -0.343424 2.212139 -0.287891 C 2.156583 -0.232357 2.078519 -0.2 2 -0.2 C 1.921481 -0.2 1.843417 -0.232357 1.787861 -0.287891 C 1.732305 -0.343424 1.699974 -0.421484 1.699974 -0.5 C 1.699974 -0.578516 1.732305 -0.656576 1.787861 -0.712109 C 1.843417 -0.767643 1.921481 -0.8 2 -0.8 C 2.078519 -0.8 2.156583 -0.767643 2.212139 -0.712109 C 2.267695 -0.656576 2.300026 -0.578516 2.300026 -0.5 Z M 2.300026 -0.5 " transform="matrix(60.046875, 0, 0, -60, 427, 240)"/>
<path fill="none" stroke-width="0.04" stroke-linecap="butt" stroke-linejoin="miter" stroke="rgb(5.490196%, 41.176471%, 25.882353%)" stroke-opacity="1" stroke-miterlimit="10" d="M 2.300026 0.5 C 2.300026 0.578516 2.267695 0.656576 2.212139 0.712109 C 2.156583 0.767643 2.078519 0.8 2 0.8 C 1.921481 0.8 1.843417 0.767643 1.787861 0.712109 C 1.732305 0.656576 1.699974 0.578516 1.699974 0.5 C 1.699974 0.421484 1.732305 0.343424 1.787861 0.287891 C 1.843417 0.232357 1.921481 0.2 2 0.2 C 2.078519 0.2 2.156583 0.232357 2.212139 0.287891 C 2.267695 0.343424 2.300026 0.421484 2.300026 0.5 Z M 2.300026 0.5 " transform="matrix(60.046875, 0, 0, -60, 427, 240)"/>
<path fill="none" stroke-width="0.04" stroke-linecap="butt" stroke-linejoin="miter" stroke="rgb(5.490196%, 41.176471%, 25.882353%)" stroke-opacity="1" stroke-miterlimit="10" d="M 2.300026 1.5 C 2.300026 1.578516 2.267695 1.656576 2.212139 1.712109 C 2.156583 1.767643 2.078519 1.8 2 1.8 C 1.921481 1.8 1.843417 1.767643 1.787861 1.712109 C 1.732305 1.656576 1.699974 1.578516 1.699974 1.5 C 1.699974 1.421484 1.732305 1.343424 1.787861 1.287891 C 1.843417 1.232357 1.921481 1.2 2 1.2 C 2.078519 1.2 2.156583 1.232357 2.212139 1.287891 C 2.267695 1.343424 2.300026 1.421484 2.300026 1.5 Z M 2.300026 1.5 " transform="matrix(60.046875, 0, 0, -60, 427, 240)"/>
<path fill="none" stroke-width="0.04" stroke-linecap="butt" stroke-linejoin="miter" stroke="rgb(5.490196%, 41.176471%, 25.882353%)" stroke-opacity="1" stroke-miterlimit="10" d="M 2.300026 2.5 C 2.300026 2.578516 2.267695 2.656576 2.212139 2.712109 C 2.156583 2.767643 2.078519 2.8 2 2.8 C 1.921481 2.8 1.843417 2.767643 1.787861 2.712109 C 1.732305 2.656576 1.699974 2.578516 1.699974 2.5 C 1.699974 2.421484 1.732305 2.343424 1.787861 2.287891 C 1.843417 2.232357 1.921481 2.2 2 2.2 C 2.078519 2.2 2.156583 2.232357 2.212139 2.287891 C 2.267695 2.343424 2.300026 2.421484 2.300026 2.5 Z M 2.300026 2.5 " transform="matrix(60.046875, 0, 0, -60, 427, 240)"/>
<path fill="none" stroke-width="0.0107421" stroke-linecap="butt" stroke-linejoin="miter" stroke="rgb(0%, 0%, 0%)" stroke-opacity="1" stroke-miterlimit="10" d="M -4 -1.5 C -3.333333 -1.666667 -2.666667 -1.833333 -2 -2 " transform="matrix(60.046875, 0, 0, -60, 427, 240)"/>
<path fill="none" stroke-width="0.0347486" stroke-linecap="butt" stroke-linejoin="miter" stroke="rgb(0%, 0%, 0%)" stroke-opacity="1" stroke-miterlimit="10" d="M -4 -1.5 C -3.333333 -1.333333 -2.666667 -1.166667 -2 -1 " transform="matrix(60.046875, 0, 0, -60, 427, 240)"/>
<path fill="none" stroke-width="0.0173308" stroke-linecap="butt" stroke-linejoin="miter" stroke="rgb(0%, 0%, 0%)" stroke-opacity="1" stroke-miterlimit="10" d="M -4 -1.5 C -3.333333 -1 -2.666667 -0.5 -2 0 " transform="matrix(60.046875, 0, 0, -60, 427, 240)"/>
<path fill="none" stroke-width="0.0398517" stroke-linecap="butt" stroke-linejoin="miter" stroke="rgb(0%, 0%, 0%)" stroke-opacity="1" stroke-miterlimit="10" d="M -4 -1.5 C -3.333333 -0.666667 -2.666667 0.166667 -2 1 " transform="matrix(60.046875, 0, 0, -60, 427, 240)"/>
<path fill="none" stroke-width="0.0284857" stroke-linecap="butt" stroke-linejoin="miter" stroke="rgb(0%, 0%, 0%)" stroke-opacity="1" stroke-miterlimit="10" d="M -4 -0.5 C -3.333333 -1 -2.666667 -1.5 -2 -2 " transform="matrix(60.046875, 0, 0, -60, 427, 240)"/>
<path fill="none" stroke-width="0.0365031" stroke-linecap="butt" stroke-linejoin="miter" stroke="rgb(0%, 0%, 0%)" stroke-opacity="1" stroke-miterlimit="10" d="M -4 -0.5 C -3.333333 -0.666667 -2.666667 -0.833333 -2 -1 " transform="matrix(60.046875, 0, 0, -60, 427, 240)"/>
<path fill="none" stroke-width="0.0242227" stroke-linecap="butt" stroke-linejoin="miter" stroke="rgb(0%, 0%, 0%)" stroke-opacity="1" stroke-miterlimit="10" d="M -4 -0.5 C -3.333333 -0.333333 -2.666667 -0.166667 -2 0 " transform="matrix(60.046875, 0, 0, -60, 427, 240)"/>
<path fill="none" stroke-width="0.0390339" stroke-linecap="butt" stroke-linejoin="miter" stroke="rgb(0%, 0%, 0%)" stroke-opacity="1" stroke-miterlimit="10" d="M -4 -0.5 C -3.333333 0 -2.666667 0.5 -2 1 " transform="matrix(60.046875, 0, 0, -60, 427, 240)"/>
<path fill="none" stroke-width="0.0165726" stroke-linecap="butt" stroke-linejoin="miter" stroke="rgb(0%, 0%, 0%)" stroke-opacity="1" stroke-miterlimit="10" d="M -4 0.5 C -3.333333 -0.333333 -2.666667 -1.166667 -2 -2 " transform="matrix(60.046875, 0, 0, -60, 427, 240)"/>
<path fill="none" stroke-width="0.0319643" stroke-linecap="butt" stroke-linejoin="miter" stroke="rgb(0%, 0%, 0%)" stroke-opacity="1" stroke-miterlimit="10" d="M -4 0.5 C -3.333333 0 -2.666667 -0.5 -2 -1 " transform="matrix(60.046875, 0, 0, -60, 427, 240)"/>
<path fill="none" stroke-width="0.0179291" stroke-linecap="butt" stroke-linejoin="miter" stroke="rgb(0%, 0%, 0%)" stroke-opacity="1" stroke-miterlimit="10" d="M -4 0.5 C -3.333333 0.333333 -2.666667 0.166667 -2 0 " transform="matrix(60.046875, 0, 0, -60, 427, 240)"/>
<path fill="none" stroke-width="0.0157744" stroke-linecap="butt" stroke-linejoin="miter" stroke="rgb(0%, 0%, 0%)" stroke-opacity="1" stroke-miterlimit="10" d="M -4 0.5 C -3.333333 0.666667 -2.666667 0.833333 -2 1 " transform="matrix(60.046875, 0, 0, -60, 427, 240)"/>
<path fill="none" stroke-width="0.025893" stroke-linecap="butt" stroke-linejoin="miter" stroke="rgb(0%, 0%, 0%)" stroke-opacity="1" stroke-miterlimit="10" d="M -2 -2 C -1.333333 -2 -0.666667 -2 0 -2 " transform="matrix(60.046875, 0, 0, -60, 427, 240)"/>
<path fill="none" stroke-width="0.0119275" stroke-linecap="butt" stroke-linejoin="miter" stroke="rgb(0%, 0%, 0%)" stroke-opacity="1" stroke-miterlimit="10" d="M -2 -2 C -1.333333 -1.666667 -0.666667 -1.333333 0 -1 " transform="matrix(60.046875, 0, 0, -60, 427, 240)"/>
<path fill="none" stroke-width="0.0120661" stroke-linecap="butt" stroke-linejoin="miter" stroke="rgb(0%, 0%, 0%)" stroke-opacity="1" stroke-miterlimit="10" d="M -2 -2 C -1.333333 -1.333333 -0.666667 -0.666667 0 0 " transform="matrix(60.046875, 0, 0, -60, 427, 240)"/>
<path fill="none" stroke-width="0.0231355" stroke-linecap="butt" stroke-linejoin="miter" stroke="rgb(0%, 0%, 0%)" stroke-opacity="1" stroke-miterlimit="10" d="M -2 -2 C -1.333333 -1 -0.666667 0 0 1 " transform="matrix(60.046875, 0, 0, -60, 427, 240)"/>
<path fill="none" stroke-width="0.023257" stroke-linecap="butt" stroke-linejoin="miter" stroke="rgb(0%, 0%, 0%)" stroke-opacity="1" stroke-miterlimit="10" d="M -2 -1 C -1.333333 -1.333333 -0.666667 -1.666667 0 -2 " transform="matrix(60.046875, 0, 0, -60, 427, 240)"/>
<path fill="none" stroke-width="0.0384429" stroke-linecap="butt" stroke-linejoin="miter" stroke="rgb(0%, 0%, 0%)" stroke-opacity="1" stroke-miterlimit="10" d="M -2 -1 C -1.333333 -1 -0.666667 -1 0 -1 " transform="matrix(60.046875, 0, 0, -60, 427, 240)"/>
<path fill="none" stroke-width="0.0263597" stroke-linecap="butt" stroke-linejoin="miter" stroke="rgb(0%, 0%, 0%)" stroke-opacity="1" stroke-miterlimit="10" d="M -2 -1 C -1.333333 -0.666667 -0.666667 -0.333333 0 0 " transform="matrix(60.046875, 0, 0, -60, 427, 240)"/>
<path fill="none" stroke-width="0.0117102" stroke-linecap="butt" stroke-linejoin="miter" stroke="rgb(0%, 0%, 0%)" stroke-opacity="1" stroke-miterlimit="10" d="M -2 -1 C -1.333333 -0.333333 -0.666667 0.333333 0 1 " transform="matrix(60.046875, 0, 0, -60, 427, 240)"/>
<path fill="none" stroke-width="0.0324642" stroke-linecap="butt" stroke-linejoin="miter" stroke="rgb(0%, 0%, 0%)" stroke-opacity="1" stroke-miterlimit="10" d="M -2 0 C -1.333333 -0.666667 -0.666667 -1.333333 0 -2 " transform="matrix(60.046875, 0, 0, -60, 427, 240)"/>
<path fill="none" stroke-width="0.0327147" stroke-linecap="butt" stroke-linejoin="miter" stroke="rgb(0%, 0%, 0%)" stroke-opacity="1" stroke-miterlimit="10" d="M -2 0 C -1.333333 -0.333333 -0.666667 -0.666667 0 -1 " transform="matrix(60.046875, 0, 0, -60, 427, 240)"/>
<path fill="none" stroke-width="0.0156558" stroke-linecap="butt" stroke-linejoin="miter" stroke="rgb(0%, 0%, 0%)" stroke-opacity="1" stroke-miterlimit="10" d="M -2 0 C -1.333333 0 -0.666667 0 0 0 " transform="matrix(60.046875, 0, 0, -60, 427, 240)"/>
<path fill="none" stroke-width="0.0207048" stroke-linecap="butt" stroke-linejoin="miter" stroke="rgb(0%, 0%, 0%)" stroke-opacity="1" stroke-miterlimit="10" d="M -2 0 C -1.333333 0.333333 -0.666667 0.666667 0 1 " transform="matrix(60.046875, 0, 0, -60, 427, 240)"/>
<path fill="none" stroke-width="0.0210935" stroke-linecap="butt" stroke-linejoin="miter" stroke="rgb(0%, 0%, 0%)" stroke-opacity="1" stroke-miterlimit="10" d="M -2 1 C -1.333333 0 -0.666667 -1 0 -2 " transform="matrix(60.046875, 0, 0, -60, 427, 240)"/>
<path fill="none" stroke-width="0.0298748" stroke-linecap="butt" stroke-linejoin="miter" stroke="rgb(0%, 0%, 0%)" stroke-opacity="1" stroke-miterlimit="10" d="M -2 1 C -1.333333 0.333333 -0.666667 -0.333333 0 -1 " transform="matrix(60.046875, 0, 0, -60, 427, 240)"/>
<path fill="none" stroke-width="0.030035" stroke-linecap="butt" stroke-linejoin="miter" stroke="rgb(0%, 0%, 0%)" stroke-opacity="1" stroke-miterlimit="10" d="M -2 1 C -1.333333 0.666667 -0.666667 0.333333 0 0 " transform="matrix(60.046875, 0, 0, -60, 427, 240)"/>
<path fill="none" stroke-width="0.0193876" stroke-linecap="butt" stroke-linejoin="miter" stroke="rgb(0%, 0%, 0%)" stroke-opacity="1" stroke-miterlimit="10" d="M -2 1 C -1.333333 1 -0.666667 1 0 1 " transform="matrix(60.046875, 0, 0, -60, 427, 240)"/>
<path fill="none" stroke-width="0.0301882" stroke-linecap="butt" stroke-linejoin="miter" stroke="rgb(0%, 0%, 0%)" stroke-opacity="1" stroke-miterlimit="10" d="M 0 -2 C 0.666667 -2.5 1.333333 -3 2 -3.5 " transform="matrix(60.046875, 0, 0, -60, 427, 240)"/>
<path fill="none" stroke-width="0.0365984" stroke-linecap="butt" stroke-linejoin="miter" stroke="rgb(0%, 0%, 0%)" stroke-opacity="1" stroke-miterlimit="10" d="M 0 -2 C 0.666667 -2.166667 1.333333 -2.333333 2 -2.5 " transform="matrix(60.046875, 0, 0, -60, 427, 240)"/>
<path fill="none" stroke-width="0.0276415" stroke-linecap="butt" stroke-linejoin="miter" stroke="rgb(0%, 0%, 0%)" stroke-opacity="1" stroke-miterlimit="10" d="M 0 -2 C 0.666667 -1.833333 1.333333 -1.666667 2 -1.5 " transform="matrix(60.046875, 0, 0, -60, 427, 240)"/>
<path fill="none" stroke-width="0.0321159" stroke-linecap="butt" stroke-linejoin="miter" stroke="rgb(0%, 0%, 0%)" stroke-opacity="1" stroke-miterlimit="10" d="M 0 -2 C 0.666667 -1.5 1.333333 -1 2 -0.5 " transform="matrix(60.046875, 0, 0, -60, 427, 240)"/>
<path fill="none" stroke-width="0.0118083" stroke-linecap="butt" stroke-linejoin="miter" stroke="rgb(0%, 0%, 0%)" stroke-opacity="1" stroke-miterlimit="10" d="M 0 -2 C 0.666667 -1.166667 1.333333 -0.333333 2 0.5 " transform="matrix(60.046875, 0, 0, -60, 427, 240)"/>
<path fill="none" stroke-width="0.0395225" stroke-linecap="butt" stroke-linejoin="miter" stroke="rgb(0%, 0%, 0%)" stroke-opacity="1" stroke-miterlimit="10" d="M 0 -2 C 0.666667 -0.833333 1.333333 0.333333 2 1.5 " transform="matrix(60.046875, 0, 0, -60, 427, 240)"/>
<path fill="none" stroke-width="0.0272276" stroke-linecap="butt" stroke-linejoin="miter" stroke="rgb(0%, 0%, 0%)" stroke-opacity="1" stroke-miterlimit="10" d="M 0 -2 C 0.666667 -0.5 1.333333 1 2 2.5 " transform="matrix(60.046875, 0, 0, -60, 427, 240)"/>
<path fill="none" stroke-width="0.010392" stroke-linecap="butt" stroke-linejoin="miter" stroke="rgb(0%, 0%, 0%)" stroke-opacity="1" stroke-miterlimit="10" d="M 0 -1 C 0.666667 -1.833333 1.333333 -2.666667 2 -3.5 " transform="matrix(60.046875, 0, 0, -60, 427, 240)"/>
<path fill="none" stroke-width="0.0114891" stroke-linecap="butt" stroke-linejoin="miter" stroke="rgb(0%, 0%, 0%)" stroke-opacity="1" stroke-miterlimit="10" d="M 0 -1 C 0.666667 -1.5 1.333333 -2 2 -2.5 " transform="matrix(60.046875, 0, 0, -60, 427, 240)"/>
<path fill="none" stroke-width="0.0297195" stroke-linecap="butt" stroke-linejoin="miter" stroke="rgb(0%, 0%, 0%)" stroke-opacity="1" stroke-miterlimit="10" d="M 0 -1 C 0.666667 -1.166667 1.333333 -1.333333 2 -1.5 " transform="matrix(60.046875, 0, 0, -60, 427, 240)"/>
<path fill="none" stroke-width="0.0342401" stroke-linecap="butt" stroke-linejoin="miter" stroke="rgb(0%, 0%, 0%)" stroke-opacity="1" stroke-miterlimit="10" d="M 0 -1 C 0.666667 -0.833333 1.333333 -0.666667 2 -0.5 " transform="matrix(60.046875, 0, 0, -60, 427, 240)"/>
<path fill="none" stroke-width="0.0259158" stroke-linecap="butt" stroke-linejoin="miter" stroke="rgb(0%, 0%, 0%)" stroke-opacity="1" stroke-miterlimit="10" d="M 0 -1 C 0.666667 -0.5 1.333333 0 2 0.5 " transform="matrix(60.046875, 0, 0, -60, 427, 240)"/>
<path fill="none" stroke-width="0.0397008" stroke-linecap="butt" stroke-linejoin="miter" stroke="rgb(0%, 0%, 0%)" stroke-opacity="1" stroke-miterlimit="10" d="M 0 -1 C 0.666667 -0.166667 1.333333 0.666667 2 1.5 " transform="matrix(60.046875, 0, 0, -60, 427, 240)"/>
<path fill="none" stroke-width="0.0357598" stroke-linecap="butt" stroke-linejoin="miter" stroke="rgb(0%, 0%, 0%)" stroke-opacity="1" stroke-miterlimit="10" d="M 0 -1 C 0.666667 0.166667 1.333333 1.333333 2 2.5 " transform="matrix(60.046875, 0, 0, -60, 427, 240)"/>
<path fill="none" stroke-width="0.0314247" stroke-linecap="butt" stroke-linejoin="miter" stroke="rgb(0%, 0%, 0%)" stroke-opacity="1" stroke-miterlimit="10" d="M 0 0 C 0.666667 -1.166667 1.333333 -2.333333 2 -3.5 " transform="matrix(60.046875, 0, 0, -60, 427, 240)"/>
<path fill="none" stroke-width="0.0261718" stroke-linecap="butt" stroke-linejoin="miter" stroke="rgb(0%, 0%, 0%)" stroke-opacity="1" stroke-miterlimit="10" d="M 0 0 C 0.666667 -0.833333 1.333333 -1.666667 2 -2.5 " transform="matrix(60.046875, 0, 0, -60, 427, 240)"/>
<path fill="none" stroke-width="0.039264" stroke-linecap="butt" stroke-linejoin="miter" stroke="rgb(0%, 0%, 0%)" stroke-opacity="1" stroke-miterlimit="10" d="M 0 0 C 0.666667 -0.5 1.333333 -1 2 -1.5 " transform="matrix(60.046875, 0, 0, -60, 427, 240)"/>
<path fill="none" stroke-width="0.0381795" stroke-linecap="butt" stroke-linejoin="miter" stroke="rgb(0%, 0%, 0%)" stroke-opacity="1" stroke-miterlimit="10" d="M 0 0 C 0.666667 -0.166667 1.333333 -0.333333 2 -0.5 " transform="matrix(60.046875, 0, 0, -60, 427, 240)"/>
<path fill="none" stroke-width="0.0123893" stroke-linecap="butt" stroke-linejoin="miter" stroke="rgb(0%, 0%, 0%)" stroke-opacity="1" stroke-miterlimit="10" d="M 0 0 C 0.666667 0.166667 1.333333 0.333333 2 0.5 " transform="matrix(60.046875, 0, 0, -60, 427, 240)"/>
<path fill="none" stroke-width="0.0265744" stroke-linecap="butt" stroke-linejoin="miter" stroke="rgb(0%, 0%, 0%)" stroke-opacity="1" stroke-miterlimit="10" d="M 0 0 C 0.666667 0.5 1.333333 1 2 1.5 " transform="matrix(60.046875, 0, 0, -60, 427, 240)"/>
<path fill="none" stroke-width="0.0290767" stroke-linecap="butt" stroke-linejoin="miter" stroke="rgb(0%, 0%, 0%)" stroke-opacity="1" stroke-miterlimit="10" d="M 0 0 C 0.666667 0.833333 1.333333 1.666667 2 2.5 " transform="matrix(60.046875, 0, 0, -60, 427, 240)"/>
<path fill="none" stroke-width="0.0396111" stroke-linecap="butt" stroke-linejoin="miter" stroke="rgb(0%, 0%, 0%)" stroke-opacity="1" stroke-miterlimit="10" d="M 0 1 C 0.666667 -0.5 1.333333 -2 2 -3.5 " transform="matrix(60.046875, 0, 0, -60, 427, 240)"/>
<path fill="none" stroke-width="0.0260207" stroke-linecap="butt" stroke-linejoin="miter" stroke="rgb(0%, 0%, 0%)" stroke-opacity="1" stroke-miterlimit="10" d="M 0 1 C 0.666667 -0.166667 1.333333 -1.333333 2 -2.5 " transform="matrix(60.046875, 0, 0, -60, 427, 240)"/>
<path fill="none" stroke-width="0.0389506" stroke-linecap="butt" stroke-linejoin="miter" stroke="rgb(0%, 0%, 0%)" stroke-opacity="1" stroke-miterlimit="10" d="M 0 1 C 0.666667 0.166667 1.333333 -0.666667 2 -1.5 " transform="matrix(60.046875, 0, 0, -60, 427, 240)"/>
<path fill="none" stroke-width="0.0146742" stroke-linecap="butt" stroke-linejoin="miter" stroke="rgb(0%, 0%, 0%)" stroke-opacity="1" stroke-miterlimit="10" d="M 0 1 C 0.666667 0.5 1.333333 0 2 -0.5 " transform="matrix(60.046875, 0, 0, -60, 427, 240)"/>
<path fill="none" stroke-width="0.0210468" stroke-linecap="butt" stroke-linejoin="miter" stroke="rgb(0%, 0%, 0%)" stroke-opacity="1" stroke-miterlimit="10" d="M 0 1 C 0.666667 0.833333 1.333333 0.666667 2 0.5 " transform="matrix(60.046875, 0, 0, -60, 427, 240)"/>
<path fill="none" stroke-width="0.021038" stroke-linecap="butt" stroke-linejoin="miter" stroke="rgb(0%, 0%, 0%)" stroke-opacity="1" stroke-miterlimit="10" d="M 0 1 C 0.666667 1.166667 1.333333 1.333333 2 1.5 " transform="matrix(60.046875, 0, 0, -60, 427, 240)"/>
<path fill="none" stroke-width="0.0179864" stroke-linecap="butt" stroke-linejoin="miter" stroke="rgb(0%, 0%, 0%)" stroke-opacity="1" stroke-miterlimit="10" d="M 0 1 C 0.666667 1.5 1.333333 2 2 2.5 " transform="matrix(60.046875, 0, 0, -60, 427, 240)"/>
<path fill="none" stroke-width="0.04" stroke-linecap="butt" stroke-linejoin="miter" stroke="rgb(98.039216%, 71.372549%, 23.529412%)" stroke-opacity="1" stroke-miterlimit="10" d="M 4.300026 -1 C 4.300026 -0.921484 4.267695 -0.843424 4.212139 -0.787891 C 4.156583 -0.732357 4.078519 -0.7 4 -0.7 C 3.921481 -0.7 3.843417 -0.732357 3.787861 -0.787891 C 3.732305 -0.843424 3.699974 -0.921484 3.699974 -1 C 3.699974 -1.078516 3.732305 -1.156576 3.787861 -1.212109 C 3.843417 -1.267643 3.921481 -1.3 4 -1.3 C 4.078519 -1.3 4.156583 -1.267643 4.212139 -1.212109 C 4.267695 -1.156576 4.300026 -1.078516 4.300026 -1 Z M 4.300026 -1 " transform="matrix(60.046875, 0, 0, -60, 427, 240)"/>
<path fill="none" stroke-width="0.04" stroke-linecap="butt" stroke-linejoin="miter" stroke="rgb(98.039216%, 71.372549%, 23.529412%)" stroke-opacity="1" stroke-miterlimit="10" d="M 4.300026 0 C 4.300026 0.0785156 4.267695 0.156576 4.212139 0.212109 C 4.156583 0.267643 4.078519 0.3 4 0.3 C 3.921481 0.3 3.843417 0.267643 3.787861 0.212109 C 3.732305 0.156576 3.699974 0.0785156 3.699974 0 C 3.699974 -0.0785156 3.732305 -0.156576 3.787861 -0.212109 C 3.843417 -0.267643 3.921481 -0.3 4 -0.3 C 4.078519 -0.3 4.156583 -0.267643 4.212139 -0.212109 C 4.267695 -0.156576 4.300026 -0.0785156 4.300026 0 Z M 4.300026 0 " transform="matrix(60.046875, 0, 0, -60, 427, 240)"/>
<path fill="none" stroke-width="0.01" stroke-linecap="butt" stroke-linejoin="miter" stroke="rgb(5.490196%, 41.176471%, 25.882353%)" stroke-opacity="1" stroke-miterlimit="10" d="M 2 -3.5 C 2.666667 -2.666667 3.333333 -1.833333 4 -1 " transform="matrix(60.046875, 0, 0, -60, 427, 240)"/>
<path fill="none" stroke-width="0.01" stroke-linecap="butt" stroke-linejoin="miter" stroke="rgb(5.490196%, 41.176471%, 25.882353%)" stroke-opacity="1" stroke-miterlimit="10" d="M 2 -3.5 C 2.666667 -2.333333 3.333333 -1.166667 4 0 " transform="matrix(60.046875, 0, 0, -60, 427, 240)"/>
<path fill="none" stroke-width="0.01" stroke-linecap="butt" stroke-linejoin="miter" stroke="rgb(5.490196%, 41.176471%, 25.882353%)" stroke-opacity="1" stroke-miterlimit="10" d="M 2 -2.5 C 2.666667 -2 3.333333 -1.5 4 -1 " transform="matrix(60.046875, 0, 0, -60, 427, 240)"/>
<path fill="none" stroke-width="0.01" stroke-linecap="butt" stroke-linejoin="miter" stroke="rgb(5.490196%, 41.176471%, 25.882353%)" stroke-opacity="1" stroke-miterlimit="10" d="M 2 -2.5 C 2.666667 -1.666667 3.333333 -0.833333 4 0 " transform="matrix(60.046875, 0, 0, -60, 427, 240)"/>
<path fill="none" stroke-width="0.01" stroke-linecap="butt" stroke-linejoin="miter" stroke="rgb(5.490196%, 41.176471%, 25.882353%)" stroke-opacity="1" stroke-miterlimit="10" d="M 2 -1.5 C 2.666667 -1.333333 3.333333 -1.166667 4 -1 " transform="matrix(60.046875, 0, 0, -60, 427, 240)"/>
<path fill="none" stroke-width="0.01" stroke-linecap="butt" stroke-linejoin="miter" stroke="rgb(5.490196%, 41.176471%, 25.882353%)" stroke-opacity="1" stroke-miterlimit="10" d="M 2 -1.5 C 2.666667 -1 3.333333 -0.5 4 0 " transform="matrix(60.046875, 0, 0, -60, 427, 240)"/>
<path fill="none" stroke-width="0.01" stroke-linecap="butt" stroke-linejoin="miter" stroke="rgb(5.490196%, 41.176471%, 25.882353%)" stroke-opacity="1" stroke-miterlimit="10" d="M 2 -0.5 C 2.666667 -0.666667 3.333333 -0.833333 4 -1 " transform="matrix(60.046875, 0, 0, -60, 427, 240)"/>
<path fill="none" stroke-width="0.01" stroke-linecap="butt" stroke-linejoin="miter" stroke="rgb(5.490196%, 41.176471%, 25.882353%)" stroke-opacity="1" stroke-miterlimit="10" d="M 2 -0.5 C 2.666667 -0.333333 3.333333 -0.166667 4 0 " transform="matrix(60.046875, 0, 0, -60, 427, 240)"/>
<path fill="none" stroke-width="0.01" stroke-linecap="butt" stroke-linejoin="miter" stroke="rgb(5.490196%, 41.176471%, 25.882353%)" stroke-opacity="1" stroke-miterlimit="10" d="M 2 0.5 C 2.666667 0 3.333333 -0.5 4 -1 " transform="matrix(60.046875, 0, 0, -60, 427, 240)"/>
<path fill="none" stroke-width="0.01" stroke-linecap="butt" stroke-linejoin="miter" stroke="rgb(5.490196%, 41.176471%, 25.882353%)" stroke-opacity="1" stroke-miterlimit="10" d="M 2 0.5 C 2.666667 0.333333 3.333333 0.166667 4 0 " transform="matrix(60.046875, 0, 0, -60, 427, 240)"/>
<path fill="none" stroke-width="0.01" stroke-linecap="butt" stroke-linejoin="miter" stroke="rgb(5.490196%, 41.176471%, 25.882353%)" stroke-opacity="1" stroke-miterlimit="10" d="M 2 1.5 C 2.666667 0.666667 3.333333 -0.166667 4 -1 " transform="matrix(60.046875, 0, 0, -60, 427, 240)"/>
<path fill="none" stroke-width="0.01" stroke-linecap="butt" stroke-linejoin="miter" stroke="rgb(5.490196%, 41.176471%, 25.882353%)" stroke-opacity="1" stroke-miterlimit="10" d="M 2 1.5 C 2.666667 1 3.333333 0.5 4 0 " transform="matrix(60.046875, 0, 0, -60, 427, 240)"/>
<path fill="none" stroke-width="0.01" stroke-linecap="butt" stroke-linejoin="miter" stroke="rgb(5.490196%, 41.176471%, 25.882353%)" stroke-opacity="1" stroke-miterlimit="10" d="M 2 2.5 C 2.666667 1.333333 3.333333 0.166667 4 -1 " transform="matrix(60.046875, 0, 0, -60, 427, 240)"/>
<path fill="none" stroke-width="0.01" stroke-linecap="butt" stroke-linejoin="miter" stroke="rgb(5.490196%, 41.176471%, 25.882353%)" stroke-opacity="1" stroke-miterlimit="10" d="M 2 2.5 C 2.666667 1.666667 3.333333 0.833333 4 0 " transform="matrix(60.046875, 0, 0, -60, 427, 240)"/>
</svg>
