<?xml version="1.0" encoding="UTF-8"?>
<svg xmlns="http://www.w3.org/2000/svg" xmlns:xlink="http://www.w3.org/1999/xlink" width="854" height="480" viewBox="0 0 854 480">
<path fill="none" stroke-width="0.04" stroke-linecap="butt" stroke-linejoin="miter" stroke="rgb(5.490196%, 41.176471%, 25.882353%)" stroke-opacity="1" stroke-miterlimit="10" d="M -3.699974 -1.5 C -3.699974 -1.421484 -3.732305 -1.343424 -3.787861 -1.287891 C -3.843417 -1.232357 -3.921481 -1.2 -4 -1.2 C -4.078519 -1.2 -4.156583 -1.232357 -4.212139 -1.287891 C -4.267695 -1.343424 -4.300026 -1.421484 -4.300026 -1.5 C -4.300026 -1.578516 -4.267695 -1.656576 -4.212139 -1.712109 C -4.156583 -1.767643 -4.078519 -1.8 -4 -1.8 C -3.921481 -1.8 -3.843417 -1.767643 -3.787861 -1.712109 C -3.732305 -1.656576 -3.699974 -1.578516 -3.699974 -1.5 Z M -3.699974 -1.5 " transform="matrix(60.046875, 0, 0, -60, 427, 240)"/>
<path fill="none" stroke-width="0.04" stroke-linecap="butt" stroke-linejoin="miter" stroke="rgb(5.490196%, 41.176471%, 25.882353%)" stroke-opacity="1" stroke-miterlimit="10" d="M -3.699974 -0.5 C -3.699974 -0.421484 -3.732305 -0.343424 -3.787861 -0.287891 C -3.843417 -0.232357 -3.921481 -0.2 -4 -0.2 C -4.078519 -0.2 -4.156583 -0.232357 -4.212139 -0.287891 C -4.267695 -0.343424 -4.300026 -0.421484 -4.300026 -0.5 C -4.300026 -0.578516 -4.267695 -0.656576 -4.212139 -0.712109 C -4.156583 -0.767643 -4.078519 -0.8 -4 -0.8 C -3.921481 -0.8 -3.843417 -0.767643 -3.787861 -0.712109 C -3.732305 -0.656576 -3.699974 -0.578516 -3.699974 -0.5 Z M -3.699974 -0.5 " transform="matrix(60.046875, 0, 0, -60, 427, 240)"/>
<path fill="none" stroke-width="0.04" stroke-linecap="butt" stroke-linejoin="miter" stroke="rgb(5.490196%, 41.176471%, 25.882353%)" stroke-opacity="1" stroke-miterlimit="10" d="M -3.699974 0.5 C -3.699974 0.578516 -3.732305 0.656576 -3.787861 0.712109 C -3.843417 0.767643 -3.921481 0.8 -4 0.8 C -4.078519 0.8 -4.156583 0.767643 -4.212139 0.712109 C -4.267695 0.656576 -4.300026 0.578516 -4.300026 0.5 C -4.300026 0.421484 -4.267695 0.343424 -4.212139 0.287891 C -4.156583 0.232357 -4.078519 0.2 -4 0.2 C -3.921481 0.2 -3.843417 0.232357 -3.787861 0.287891 C -3.732305 0.343424 -3.699974 0.421484 -3.699974 0.5 Z M -3.699974 0.5 " transform="matrix(60.046875, 0, 0, -60, 427, 240)"/>
<path fill-rule="nonzero" fill="rgb(5.490196%, 41.176471%, 25.882353%)" fill-opacity="1" d="M 189.816406 165 C 189.816406 164.214844 189.492188 163.433594 188.933594 162.878906 C 188.378906 162.324219 187.597656 162 186.8125 162 C 186.027344 162 185.246094 162.324219 184.691406 162.878906 C 184.132812 163.433594 183.808594 164.214844 183.808594 165 C 183.808594 165.785156 184.132812 166.566406 184.691406 167.121094 C 185.246094 167.675781 186.027344 168 186.8125 168 C 187.597656 168 188.378906 167.675781 188.933594 167.121094 C 189.492188 166.566406 189.816406 165.785156 189.816406 165 Z M 189.816406 165 "/>
<path fill-rule="nonzero" fill="rgb(5.490196%, 41.176471%, 25.882353%)" fill-opacity="1" d="M 189.816406 150 C 189.816406 149.214844 189.492188 148.433594 188.933594 147.878906 C 188.378906 147.324219 187.597656 147 186.8125 147 C 186.027344 147 185.246094 147.324219 184.691406 147.878906 C 184.132812 148.433594 183.808594 149.214844 183.808594 150 C 183.808594 150.785156 184.132812 151.566406 184.691406 152.121094 C 185.246094 152.675781 186.027344 153 186.8125 153 C 187.597656 153 188.378906 152.675781 188.933594 152.121094 C 189.492188 151.566406 189.816406 150.785156 189.816406 150 Z M 189.816406 150 "/>
<path fill-rule="nonzero" fill="rgb(5.490196%, 41.176471%, 25.882353%)" fill-opacity="1" d="M 189.816406 135 C 189.816406 134.214844 189.492188 133.433594 188.933594 132.878906 C 188.378906 132.324219 187.597656 132 186.8125 132 C 186.027344 132 185.246094 132.324219 184.691406 132.878906 C 184.132812 133.433594 183.808594 134.214844 183.808594 135 C 183.808594 135.785156 184.132812 136.566406 184.691406 137.121094 C 185.246094 137.675781 186.027344 138 186.8125 138 C 187.597656 138 188.378906 137.675781 188.933594 137.121094 C 189.492188 136.566406 189.816406 135.785156 189.816406 135 Z M 189.816406 135 "/>
<path fill-rule="nonzero" fill="rgb(5.490196%, 41.176471%, 25.882353%)" fill-opacity="1" d="M 189.816406 375 C 189.816406 374.214844 189.492188 373.433594 188.933594 372.878906 C 188.378906 372.324219 187.597656 372 186.8125 372 C 186.027344 372 185.246094 372.324219 184.691406 372.878906 C 184.132812 373.433594 183.808594 374.214844 183.808594 375 C 183.808594 375.785156 184.132812 376.566406 184.691406 377.121094 C 185.246094 377.675781 186.027344 378 186.8125 378 C 187.597656 378 188.378906 377.675781 188.933594 377.121094 C 189.492188 376.566406 189.816406 375.785156 189.816406 375 Z M 189.816406 375 "/>
<path fill-rule="nonzero" fill="rgb(5.490196%, 41.176471%, 25.882353%)" fill-opacity="1" d="M 189.816406 390 C 189.816406 389.214844 189.492188 388.433594 188.933594 387.878906 C 188.378906 387.324219 187.597656 387 186.8125 387 C 186.027344 387 185.246094 387.324219 184.691406 387.878906 C 184.132812 388.433594 183.808594 389.214844 183.808594 390 C 183.808594 390.785156 184.132812 391.566406 184.691406 392.121094 C 185.246094 392.675781 186.027344 393 186.8125 393 C 187.597656 393 188.378906 392.675781 188.933594 392.121094 C 189.492188 391.566406 189.816406 390.785156 189.816406 390 Z M 189.816406 390 "/>
<path fill-rule="nonzero" fill="rgb(5.490196%, 41.176471%, 25.882353%)" fill-opacity="1" d="M 189.816406 405 C 189.816406 404.214844 189.492188 403.433594 188.933594 402.878906 C 188.378906 402.324219 187.597656 402 186.8125 402 C 186.027344 402 185.246094 402.324219 184.691406 402.878906 C 184.132812 403.433594 183.808594 404.214844 183.808594 405 C 183.808594 405.785156 184.132812 406.566406 184.691406 407.121094 C 185.246094 407.675781 186.027344 408 186.8125 408 C 187.597656 408 188.378906 407.675781 188.933594 407.121094 C 189.492188 406.566406 189.816406 405.785156 189.816406 405 Z M 189.816406 405 "/>
<path fill="none" stroke-width="0.04" stroke-linecap="butt" stroke-linejoin="miter" stroke="rgb(5.490196%, 41.176471%, 25.882353%)" stroke-opacity="1" stroke-miterlimit="10" d="M -1.699974 -2 C -1.699974 -1.921484 -1.732305 -1.843424 -1.787861 -1.787891 C -1.843417 -1.732357 -1.921481 -1.7 -2 -1.7 C -2.078519 -1.7 -2.156583 -1.732357 -2.212139 -1.787891 C -2.267695 -1.843424 -2.300026 -1.921484 -2.300026 -2 C -2.300026 -2.078516 -2.267695 -2.156576 -2.212139 -2.212109 C -2.156583 -2.267643 -2.078519 -2.3 -2 -2.3 C -1.921481 -2.3 -1.843417 -2.267643 -1.787861 -2.212109 C -1.732305 -2.156576 -1.699974 -2.078516 -1.699974 -2 Z M -1.699974 -2 " transform="matrix(60.046875, 0, 0, -60, 427, 240)"/>
<path fill="none" stroke-width="0.04" stroke-linecap="butt" stroke-linejoin="miter" stroke="rgb(5.490196%, 41.176471%, 25.882353%)" stroke-opacity="1" stroke-miterlimit="10" d="M -1.699974 -1 C -1.699974 -0.921484 -1.732305 -0.843424 -1.787861 -0.787891 C -1.843417 -0.732357 -1.921481 -0.7 -2 -0.7 C -2.078519 -0.7 -2.156583 -0.732357 -2.212139 -0.787891 C -2.267695 -0.843424 -2.300026 -0.921484 -2.300026 -1 C -2.300026 -1.078516 -2.267695 -1.156576 -2.212139 -1.212109 C -2.156583 -1.267643 -2.078519 -1.3 -2 -1.3 C -1.921481 -1.3 -1.843417 -1.267643 -1.787861 -1.212109 C -1.732305 -1.156576 -1.699974 -1.078516 -1.699974 -1 Z M -1.699974 -1 " transform="matrix(60.046875, 0, 0, -60, 427, 240)"/>
<path fill="none" stroke-width="0.04" stroke-linecap="butt" stroke-linejoin="miter" stroke="rgb(5.490196%, 41.176471%, 25.882353%)" stroke-opacity="1" stroke-miterlimit="10" d="M -1.699974 0 C -1.699974 0.0785156 -1.732305 0.156576 -1.787861 0.212109 C -1.843417 0.267643 -1.921481 0.3 -2 0.3 C -2.078519 0.3 -2.156583 0.267643 -2.212139 0.212109 C -2.267695 0.156576 -2.300026 0.0785156 -2.300026 0 C -2.300026 -0.0785156 -2.267695 -0.156576 -2.212139 -0.212109 C -2.156583 -0.267643 -2.078519 -0.3 -2 -0.3 C -1.921481 -0.3 -1.843417 -0.267643 -1.787861 -0.212109 C -1.732305 -0.156576 -1.699974 -0.0785156 -1.699974 0 Z M -1.699974 0 " transform="matrix(60.046875, 0, 0, -60, 427, 240)"/>
<path fill="none" stroke-width="0.04" stroke-linecap="butt" stroke-linejoin="miter" stroke="rgb(5.490196%, 41.176471%, 25.882353%)" stroke-opacity="1" stroke-miterlimit="10" d="M -1.699974 1 C -1.699974 1.078516 -1.732305 1.156576 -1.787861 1.212109 C -1.843417 1.267643 -1.921481 1.3 -2 1.3 C -2.078519 1.3 -2.156583 1.267643 -2.212139 1.212109 C -2.267695 1.156576 -2.300026 1.078516 -2.300026 1 C -2.300026 0.921484 -2.267695 0.843424 -2.212139 0.787891 C -2.156583 0.732357 -2.078519 0.7 -2 0.7 C -1.921481 0.7 -1.843417 0.732357 -1.787861 0.787891 C -1.732305 0.843424 -1.699974 0.921484 -1.699974 1 Z M -1.699974 1 " transform="matrix(60.046875, 0, 0, -60, 427, 240)"/>
<path fill="none" stroke-width="0.04" stroke-linecap="butt" stroke-linejoin="miter" stroke="rgb(5.490196%, 41.176471%, 25.882353%)" stroke-opacity="1" stroke-miterlimit="10" d="M 0.300026 -2 C 0.300026 -1.921484 0.267695 -1.843424 0.212139 -1.787891 C 0.156583 -1.732357 0.0785194 -1.7 0 -1.7 C -0.0785194 -1.7 -0.156583 -1.732357 -0.212139 -1.787891 C -0.267695 -1.843424 -0.300026 -1.921484 -0.300026 -2 C -0.300026 -2.078516 -0.267695 -2.156576 -0.212139 -2.212109 C -0.156583 -2.267643 -0.0785194 -2.3 0 -2.3 C 0.0785194 -2.3 0.156583 -2.267643 0.212139 -2.212109 C 0.267695 -2.156576 0.300026 -2.078516 0.300026 -2 Z M 0.300026 -2 " transform="matrix(60.046875, 0, 0, -60, 427, 240)"/>
<path fill="none" stroke-width="0.04" stroke-linecap="butt" stroke-linejoin="miter" stroke="rgb(5.490196%, 41.176471%, 25.882353%)" stroke-opacity="1" stroke-miterlimit="10" d="M 0.300026 -1 C 0.300026 -0.921484 0.267695 -0.843424 0.212139 -0.787891 C 0.156583 -0.732357 0.0785194 -0.7 0 -0.7 C -0.0785194 -0.7 -0.156583 -0.732357 -0.212139 -0.787891 C -0.267695 -0.843424 -0.300026 -0.921484 -0.300026 -1 C -0.300026 -1.078516 -0.267695 -1.156576 -0.212139 -1.212109 C -0.156583 -1.267643 -0.0785194 -1.3 0 -1.3 C 0.0785194 -1.3 0.156583 -1.267643 0.212139 -1.212109 C 0.267695 -1.156576 0.300026 -1.078516 0.300026 -1 Z M 0.300026 -1 " transform="matrix(60.046875, 0, 0, -60, 427, 240)"/>
<path fill="none" stroke-width="0.04" stroke-linecap="butt" stroke-linejoin="miter" stroke="rgb(5.490196%, 41.176471%, 25.882353%)" stroke-opacity="1" stroke-miterlimit="10" d="M 0.300026 0 C 0.300026 0.0785156 0.267695 0.156576 0.212139 0.212109 C 0.156583 0.267643 0.0785194 0.3 0 0.3 C -0.0785194 0.3 -0.156583 0.267643 -0.212139 0.212109 C -0.267695 0.156576 -0.300026 0.0785156 -0.300026 0 C -0.300026 -0.0785156 -0.267695 -0.156576 -0.212139 -0.212109 C -0.156583 -0.267643 -0.0785194 -0.3 0 -0.3 C 0.0785194 -0.3 0.156583 -0.267643 0.212139 -0.212109 C 0.267695 -0.156576 0.300026 -0.0785156 0.300026 0 Z M 0.300026 0 " transform="matrix(60.046875, 0, 0, -60, 427, 240)"/>
<path fill="none" stroke-width="0.04" stroke-linecap="butt" stroke-linejoin="miter" stroke="rgb(5.490196%, 41.176471%, 25.882353%)" stroke-opacity="1" stroke-miterlimit="10" d="M 0.300026 1 C 0.300026 1.078516 0.267695 1.156576 0.212139 1.212109 C 0.156583 1.267643 0.0785194 1.3 0 1.3 C -0.0785194 1.3 -0.156583 1.267643 -0.212139 1.212109 C -0.267695 1.156576 -0.300026 1.078516 -0.300026 1 C -0.300026 0.921484 -0.267695 0.843424 -0.212139 0.787891 C -0.156583 0.732357 -0.0785194 0.7 0 0.7 C 0.0785194 0.7 0.156583 0.732357 0.212139 0.787891 C 0.267695 0.843424 0.300026 0.921484 0.300026 1 Z M 0.300026 1 " transform="matrix(60.046875, 0, 0, -60, 427, 240)"/>
<path fill="none" stroke-width="0.04" stroke-linecap="butt" stroke-linejoin="miter" stroke="rgb(5.490196%, 41.176471%, 25.882353%)" stroke-opacity="1" stroke-miterlimit="10" d="M 2.300026 -3.5 C 2.300026 -3.421484 2.267695 -3.343424 2.212139 -3.287891 C 2.156583 -3.232357 2.078519 -3.2 2 -3.2 C 1.921481 -3.2 1.843417 -3.232357 1.787861 -3.287891 C 1.732305 -3.343424 1.699974 -3.421484 1.699974 -3.5 C 1.699974 -3.578516 1.732305 -3.656576 1.787861 -3.712109 C 1.843417 -3.767643 1.921481 -3.8 2 -3.8 C 2.078519 -3.8 2.156583 -3.767643 2.212139 -3.712109 C 2.267695 -3.656576 2.300026 -3.578516 2.300026 -3.5 Z M 2.300026 -3.5 " transform="matrix(60.046875, 0, 0, -60, 427, 240)"/>
<path fill="none" stroke-width="0.04" stroke-linecap="butt" stroke-linejoin="miter" stroke="rgb(5.490196%, 41.176471%, 25.882353%)" stroke-opacity="1" stroke-miterlimit="10" d="M 2.300026 -2.5 C 2.300026 -2.421484 2.267695 -2.343424 2.212139 -2.287891 C 2.156583 -2.232357 2.078519 -2.2 2 -2.2 C 1.921481 -2.2 1.843417 -2.232357 1.787861 -2.287891 C 1.732305 -2.343424 1.699974 -2.421484 1.699974 -2.5 C 1.699974 -2.578516 1.732305 -2.656576 1.787861 -2.712109 C 1.843417 -2.767643 1.921481 -2.8 2 -2.8 C 2.078519 -2.8 2.156583 -2.767643 2.212139 -2.712109 C 2.267695 -2.656576 2.300026 -2.578516 2.300026 -2.5 Z M 2.300026 -2.5 " transform="matrix(60.046875, 0, 0, -60, 427, 240)"/>
<path fill="none" stroke-width="0.04" stroke-linecap="butt" stroke-linejoin="miter" stroke="rgb(5.490196%, 41.176471%, 25.882353%)" stroke-opacity="1" stroke-miterlimit="10" d="M 2.300026 -1.5 C 2.300026 -1.421484 2.267695 -1.343424 2.212139 -1.287891 C 2.156583 -1.232357 2.078519 -1.2 2 -1.2 C 1.921481 -1.2 1.843417 -1.232357 1.787861 -1.287891 C 1.732305 -1.343424 1.699974 -1.421484 1.699974 -1.5 C 1.699974 -1.578516 1.732305 -1.656576 1.787861 -1.712109 C 1.843417 -1.767643 1.921481 -1.8 2 -1.8 C 2.078519 -1.8 2.156583 -1.767643 2.212139 -1.712109 C 2.267695 -1.656576 2.300026 -1.578516 2.300026 -1.5 Z M 2.300026 -1.5 " transform="matrix(60.046875, 0, 0, -60, 427, 240)"/>
<path fill="none" stroke-width="0.04" stroke-linecap="butt" stroke-linejoin="miter" stroke="rgb(5.490196%, 41.176471%, 25.882353%)" stroke-opacity="1" stroke-miterlimit="10" d="M 2.300026 -0.5 C 2.300026 -0.421484 2.267695 -0.343424 2.212139 -0.287891 C 2.156583 -0.232357 2.078519 -0.2 2 -0.2 C 1.921481 -0.2 1.843417 -0.232357 1.787861 -0.287891 C 1.732305 -0.343424 1.699974 -0.421484 1.699974 -0.5 C 1.699974 -0.578516 1.732305 -0.656576 1.787861 -0.712109 C 1.843417 -0.767643 1.921481 -0.8 2 -0.8 C 2.078519 -0.8 2.156583 -0.767643 2.212139 -0.712109 C 2.267695 -0.656576 2.300026 -0.578516 2.300026 -0.5 Z M 2.300026 -0.5 " transform="matrix(60.046875, 0, 0, -60, 427, 240)"/>
<path fill="none" stroke-width="0.04" stroke-linecap="butt" stroke-linejoin="miter" stroke="rgb(5.490196%, 41.176471%, 25.882353%)" stroke-opacity="1" stroke-miterlimit="10" d="M 2.300026 0.5 C 2.300026 0.578516 2.267695 0.656576 2.212139 0.712109 C 2.156583 0.767643 2.078519 0.8 2 0.8 C 1.921481 0.8 1.843417 0.767643 1.787861 0.712109 C 1.732305 0.656576 1.699974 0.578516 1.699974 0.5 C 1.699974 0.421484 1.732305 0.343424 1.787861 0.287891 C 1.843417 0.232357 1.921481 0.2 2 0.2 C 2.078519 0.2 2.156583 0.232357 2.212139 0.287891 C 2.267695 0.343424 2.300026 0.421484 2.300026 0.5 Z M 2.300026 0.5 " transform="matrix(60.046875, 0, 0, -60, 427, 240)"/>
<path fill="none" stroke-width="0.04" stroke-linecap="butt" stroke-linejoin="miter" stroke="rgb(5.490196%, 41.176471%, 25.882353%)" stroke-opacity="1" stroke-miterlimit="10" d="M 2.300026 1.5 C 2.300026 1.578516 2.267695 1.656576 2.212139 1.712109 C 2.156583 1.767643 2.078519 1.8 2 1.8 C 1.921481 1.8 1.843417 1.767643 1.787861 1.712109 C 1.732305 1.656576 1.699974 1.578516 1.699974 1.5 C 1.699974 1.421484 1.732305 1.343424 1.787861 1.287891 C 1.843417 1.232357 1.921481 1.2 2 1.2 C 2.078519 1.2 2.156583 1.232357 2.212139 1.287891 C 2.267695 1.343424 2.300026 1.421484 2.300026 1.5 Z M 2.300026 1.5 " transform="matrix(60.046875, 0, 0, -60, 427, 240)"/>
<path fill="none" stroke-width="0.04" stroke-linecap="butt" stroke-linejoin="miter" stroke="rgb(5.490196%, 41.176471%, 25.882353%)" stroke-opacity="1" stroke-miterlimit="10" d="M 2.300026 2.5 C 2.300026 2.578516 2.267695 2.656576 2.212139 2.712109 C 2.156583 2.767643 2.078519 2.8 2 2.8 C 1.921481 2.8 1.843417 2.767643 1.787861 2.712109 C 1.732305 2.656576 1.699974 2.578516 1.699974 2.5 C 1.699974 2.421484 1.732305 2.343424 1.787861 2.287891 C 1.843417 2.232357 1.921481 2.2 2 2.2 C 2.078519 2.2 2.156583 2.232357 2.212139 2.287891 C 2.267695 2.343424 2.300026 2.421484 2.300026 2.5 Z M 2.300026 2.5 " transform="matrix(60.046875, 0, 0, -60, 427, 240)"/>
<path fill="none" stroke-width="0.01" stroke-linecap="butt" stroke-linejoin="miter" stroke="rgb(0%, 0%, 0%)" stroke-opacity="1" stroke-miterlimit="10" d="M -4 -1.5 C -3.333333 -1.666667 -2.666667 -1.833333 -2 -2 " transform="matrix(60.046875, 0, 0, -60, 427, 240)"/>
<path fill="none" stroke-width="0.01" stroke-linecap="butt" stroke-linejoin="miter" stroke="rgb(0%, 0%, 0%)" stroke-opacity="1" stroke-miterlimit="10" d="M -4 -1.5 C -3.333333 -1.333333 -2.666667 -1.166667 -2 -1 " transform="matrix(60.046875, 0, 0, -60, 427, 240)"/>
<path fill="none" stroke-width="0.01" stroke-linecap="butt" stroke-linejoin="miter" stroke="rgb(0%, 0%, 0%)" stroke-opacity="1" stroke-miterlimit="10" d="M -4 -1.5 C -3.333333 -1 -2.666667 -0.5 -2 0 " transform="matrix(60.046875, 0, 0, -60, 427, 240)"/>
<path fill="none" stroke-width="0.01" stroke-linecap="butt" stroke-linejoin="miter" stroke="rgb(0%, 0%, 0%)" stroke-opacity="1" stroke-miterlimit="10" d="M -4 -1.5 C -3.333333 -0.666667 -2.666667 0.166667 -2 1 " transform="matrix(60.046875, 0, 0, -60, 427, 240)"/>
<path fill="none" stroke-width="0.01" stroke-linecap="butt" stroke-linejoin="miter" stroke="rgb(0%, 0%, 0%)" stroke-opacity="1" stroke-miterlimit="10" d="M -4 -0.5 C -3.333333 -1 -2.666667 -1.5 -2 -2 " transform="matrix(60.046875, 0, 0, -60, 427, 240)"/>
<path fill="none" stroke-width="0.01" stroke-linecap="butt" stroke-linejoin="miter" stroke="rgb(0%, 0%, 0%)" stroke-opacity="1" stroke-miterlimit="10" d="M -4 -0.5 C -3.333333 -0.666667 -2.666667 -0.833333 -2 -1 " transform="matrix(60.046875, 0, 0, -60, 427, 240)"/>
<path fill="none" stroke-width="0.01" stroke-linecap="butt" stroke-linejoin="miter" stroke="rgb(0%, 0%, 0%)" stroke-opacity="1" stroke-miterlimit="10" d="M -4 -0.5 C -3.333333 -0.333333 -2.666667 -0.166667 -2 0 " transform="matrix(60.046875, 0, 0, -60, 427, 240)"/>
<path fill="none" stroke-width="0.01" stroke-linecap="butt" stroke-linejoin="miter" stroke="rgb(0%, 0%, 0%)" stroke-opacity="1" stroke-miterlimit="10" d="M -4 -0.5 C -3.333333 0 -2.666667 0.5 -2 1 " transform="matrix(60.046875, 0, 0, -60, 427, 240)"/>
<path fill="none" stroke-width="0.01" stroke-linecap="butt" stroke-linejoin="miter" stroke="rgb(0%, 0%, 0%)" stroke-opacity="1" stroke-miterlimit="10" d="M -4 0.5 C -3.333333 -0.333333 -2.666667 -1.166667 -2 -2 " transform="matrix(60.046875, 0, 0, -60, 427, 240)"/>
<path fill="none" stroke-width="0.01" stroke-linecap="butt" stroke-linejoin="miter" stroke="rgb(0%, 0%, 0%)" stroke-opacity="1" stroke-miterlimit="10" d="M -4 0.5 C -3.333333 0 -2.666667 -0.5 -2 -1 " transform="matrix(60.046875, 0, 0, -60, 427, 240)"/>
<path fill="none" stroke-width="0.01" stroke-linecap="butt" stroke-linejoin="miter" stroke="rgb(0%, 0%, 0%)" stroke-opacity="1" stroke-miterlimit="10" d="M -4 0.5 C -3.333333 0.333333 -2.666667 0.166667 -2 0 " transform="matrix(60.046875, 0, 0, -60, 427, 240)"/>
<path fill="none" stroke-width="0.01" stroke-linecap="butt" stroke-linejoin="miter" stroke="rgb(0%, 0%, 0%)" stroke-opacity="1" stroke-miterlimit="10" d="M -4 0.5 C -3.333333 0.666667 -2.666667 0.833333 -2 1 " transform="matrix(60.046875, 0, 0, -60, 427, 240)"/>
<path fill="none" stroke-width="0.01" stroke-linecap="butt" stroke-linejoin="miter" stroke="rgb(0%, 0%, 0%)" stroke-opacity="1" stroke-miterlimit="10" d="M -2 -2 C -1.333333 -2 -0.666667 -2 0 -2 " transform="matrix(60.046875, 0, 0, -60, 427, 240)"/>
<path fill="none" stroke-width="0.01" stroke-linecap="butt" stroke-linejoin="miter" stroke="rgb(0%, 0%, 0%)" stroke-opacity="1" stroke-miterlimit="10" d="M -2 -2 C -1.333333 -1.666667 -0.666667 -1.333333 0 -1 " transform="matrix(60.046875, 0, 0, -60, 427, 240)"/>
<path fill="none" stroke-width="0.01" stroke-linecap="butt" stroke-linejoin="miter" stroke="rgb(0%, 0%, 0%)" stroke-opacity="1" stroke-miterlimit="10" d="M -2 -2 C -1.333333 -1.333333 -0.666667 -0.666667 0 0 " transform="matrix(60.046875, 0, 0, -60, 427, 240)"/>
<path fill="none" stroke-width="0.01" stroke-linecap="butt" stroke-linejoin="miter" stroke="rgb(0%, 0%, 0%)" stroke-opacity="1" stroke-miterlimit="10" d="M -2 -2 C -1.333333 -1 -0.666667 0 0 1 " transform="matrix(60.046875, 0, 0, -60, 427, 240)"/>
<path fill="none" stroke-width="0.01" stroke-linecap="butt" stroke-linejoin="miter" stroke="rgb(0%, 0%, 0%)" stroke-opacity="1" stroke-miterlimit="10" d="M -2 -1 C -1.333333 -1.333333 -0.666667 -1.666667 0 -2 " transform="matrix(60.046875, 0, 0, -60, 427, 240)"/>
<path fill="none" stroke-width="0.01" stroke-linecap="butt" stroke-linejoin="miter" stroke="rgb(0%, 0%, 0%)" stroke-opacity="1" stroke-miterlimit="10" d="M -2 -1 C -1.333333 -1 -0.666667 -1 0 -1 " transform="matrix(60.046875, 0, 0, -60, 427, 240)"/>
<path fill="none" stroke-width="0.01" stroke-linecap="butt" stroke-linejoin="miter" stroke="rgb(0%, 0%, 0%)" stroke-opacity="1" stroke-miterlimit="10" d="M -2 -1 C -1.333333 -0.666667 -0.666667 -0.333333 0 0 " transform="matrix(60.046875, 0, 0, -60, 427, 240)"/>
<path fill="none" stroke-width="0.01" stroke-linecap="butt" stroke-linejoin="miter" stroke="rgb(0%, 0%, 0%)" stroke-opacity="1" stroke-miterlimit="10" d="M -2 -1 C -1.333333 -0.333333 -0.666667 0.333333 0 1 " transform="matrix(60.046875, 0, 0, -60, 427, 240)"/>
<path fill="none" stroke-width="0.01" stroke-linecap="butt" stroke-linejoin="miter" stroke="rgb(0%, 0%, 0%)" stroke-opacity="1" stroke-miterlimit="10" d="M -2 0 C -1.333333 -0.666667 -0.666667 -1.333333 0 -2 " transform="matrix(60.046875, 0, 0, -60, 427, 240)"/>
<path fill="none" stroke-width="0.01" stroke-linecap="butt" stroke-linejoin="miter" stroke="rgb(0%, 0%, 0%)" stroke-opacity="1" stroke-miterlimit="10" d="M -2 0 C -1.333333 -0.333333 -0.666667 -0.666667 0 -1 " transform="matrix(60.046875, 0, 0, -60, 427, 240)"/>
<path fill="none" stroke-width="0.01" stroke-linecap="butt" stroke-linejoin="miter" stroke="rgb(0%, 0%, 0%)" stroke-opacity="1" stroke-miterlimit="10" d="M -2 0 C -1.333333 0 -0.666667 0 0 0 " transform="matrix(60.046875, 0, 0, -60, 427, 240)"/>
<path fill="none" stroke-width="0.01" stroke-linecap="butt" stroke-linejoin="miter" stroke="rgb(0%, 0%, 0%)" stroke-opacity="1" stroke-miterlimit="10" d="M -2 0 C -1.333333 0.333333 -0.666667 0.666667 0 1 " transform="matrix(60.046875, 0, 0, -60, 427, 240)"/>
<path fill="none" stroke-width="0.01" stroke-linecap="butt" stroke-linejoin="miter" stroke="rgb(0%, 0%, 0%)" stroke-opacity="1" stroke-miterlimit="10" d="M -2 1 C -1.333333 0 -0.666667 -1 0 -2 " transform="matrix(60.046875, 0, 0, -60, 427, 240)"/>
<path fill="none" stroke-width="0.01" stroke-linecap="butt" stroke-linejoin="miter" stroke="rgb(0%, 0%, 0%)" stroke-opacity="1" stroke-miterlimit="10" d="M -2 1 C -1.333333 0.333333 -0.666667 -0.333333 0 -1 " transform="matrix(60.046875, 0, 0, -60, 427, 240)"/>
<path fill="none" stroke-width="0.01" stroke-linecap="butt" stroke-linejoin="miter" stroke="rgb(0%, 0%, 0%)" stroke-opacity="1" stroke-miterlimit="10" d="M -2 1 C -1.333333 0.666667 -0.666667 0.333333 0 0 " transform="matrix(60.046875, 0, 0, -60, 427, 240)"/>
<path fill="none" stroke-width="0.01" stroke-linecap="butt" stroke-linejoin="miter" stroke="rgb(0%, 0%, 0%)" stroke-opacity="1" stroke-miterlimit="10" d="M -2 1 C -1.333333 1 -0.666667 1 0 1 " transform="matrix(60.046875, 0, 0, -60, 427, 240)"/>
<path fill="none" stroke-width="0.01" stroke-linecap="butt" stroke-linejoin="miter" stroke="rgb(0%, 0%, 0%)" stroke-opacity="1" stroke-miterlimit="10" d="M 0 -2 C 0.666667 -2.5 1.333333 -3 2 -3.5 " transform="matrix(60.046875, 0, 0, -60, 427, 240)"/>
<path fill="none" stroke-width="0.01" stroke-linecap="butt" stroke-linejoin="miter" stroke="rgb(0%, 0%, 0%)" stroke-opacity="1" stroke-miterlimit="10" d="M 0 -2 C 0.666667 -2.166667 1.333333 -2.333333 2 -2.5 " transform="matrix(60.046875, 0, 0, -60, 427, 240)"/>
<path fill="none" stroke-width="0.01" stroke-linecap="butt" stroke-linejoin="miter" stroke="rgb(0%, 0%, 0%)" stroke-opacity="1" stroke-miterlimit="10" d="M 0 -2 C 0.666667 -1.833333 1.333333 -1.666667 2 -1.5 " transform="matrix(60.046875, 0, 0, -60, 427, 240)"/>
<path fill="none" stroke-width="0.01" stroke-linecap="butt" stroke-linejoin="miter" stroke="rgb(0%, 0%, 0%)" stroke-opacity="1" stroke-miterlimit="10" d="M 0 -2 C 0.666667 -1.5 1.333333 -1 2 -0.5 " transform="matrix(60.046875, 0, 0, -60, 427, 240)"/>
<path fill="none" stroke-width="0.01" stroke-linecap="butt" stroke-linejoin="miter" stroke="rgb(0%, 0%, 0%)" stroke-opacity="1" stroke-miterlimit="10" d="M 0 -2 C 0.666667 -1.166667 1.333333 -0.333333 2 0.5 " transform="matrix(60.046875, 0, 0, -60, 427, 240)"/>
<path fill="none" stroke-width="0.01" stroke-linecap="butt" stroke-linejoin="miter" stroke="rgb(0%, 0%, 0%)" stroke-opacity="1" stroke-miterlimit="10" d="M 0 -2 C 0.666667 -0.833333 1.333333 0.333333 2 1.5 " transform="matrix(60.046875, 0, 0, -60, 427, 240)"/>
<path fill="none" stroke-width="0.01" stroke-linecap="butt" stroke-linejoin="miter" stroke="rgb(0%, 0%, 0%)" stroke-opacity="1" stroke-miterlimit="10" d="M 0 -2 C 0.666667 -0.5 1.333333 1 2 2.5 " transform="matrix(60.046875, 0, 0, -60, 427, 240)"/>
<path fill="none" stroke-width="0.01" stroke-linecap="butt" stroke-linejoin="miter" stroke="rgb(0%, 0%, 0%)" stroke-opacity="1" stroke-miterlimit="10" d="M 0 -1 C 0.666667 -1.833333 1.333333 -2.666667 2 -3.5 " transform="matrix(60.046875, 0, 0, -60, 427, 240)"/>
<path fill="none" stroke-width="0.01" stroke-linecap="butt" stroke-linejoin="miter" stroke="rgb(0%, 0%, 0%)" stroke-opacity="1" stroke-miterlimit="10" d="M 0 -1 C 0.666667 -1.5 1.333333 -2 2 -2.5 " transform="matrix(60.046875, 0, 0, -60, 427, 240)"/>
<path fill="none" stroke-width="0.01" stroke-linecap="butt" stroke-linejoin="miter" stroke="rgb(0%, 0%, 0%)" stroke-opacity="1" stroke-miterlimit="10" d="M 0 -1 C 0.666667 -1.166667 1.333333 -1.333333 2 -1.5 " transform="matrix(60.046875, 0, 0, -60, 427, 240)"/>
<path fill="none" stroke-width="0.01" stroke-linecap="butt" stroke-linejoin="miter" stroke="rgb(0%, 0%, 0%)" stroke-opacity="1" stroke-miterlimit="10" d="M 0 -1 C 0.666667 -0.833333 1.333333 -0.666667 2 -0.5 " transform="matrix(60.046875, 0, 0, -60, 427, 240)"/>
<path fill="none" stroke-width="0.01" stroke-linecap="butt" stroke-linejoin="miter" stroke="rgb(0%, 0%, 0%)" stroke-opacity="1" stroke-miterlimit="10" d="M 0 -1 C 0.666667 -0.5 1.333333 0 2 0.5 " transform="matrix(60.046875, 0, 0, -60, 427, 240)"/>
<path fill="none" stroke-width="0.01" stroke-linecap="butt" stroke-linejoin="miter" stroke="rgb(0%, 0%, 0%)" stroke-opacity="1" stroke-miterlimit="10" d="M 0 -1 C 0.666667 -0.166667 1.333333 0.666667 2 1.5 " transform="matrix(60.046875, 0, 0, -60, 427, 240)"/>
<path fill="none" stroke-width="0.01" stroke-linecap="butt" stroke-linejoin="miter" stroke="rgb(0%, 0%, 0%)" stroke-opacity="1" stroke-miterlimit="10" d="M 0 -1 C 0.666667 0.166667 1.333333 1.333333 2 2.5 " transform="matrix(60.046875, 0, 0, -60, 427, 240)"/>
<path fill="none" stroke-width="0.01" stroke-linecap="butt" stroke-linejoin="miter" stroke="rgb(0%, 0%, 0%)" stroke-opacity="1" stroke-miterlimit="10" d="M 0 0 C 0.666667 -1.166667 1.333333 -2.333333 2 -3.5 " transform="matrix(60.046875, 0, 0, -60, 427, 240)"/>
<path fill="none" stroke-width="0.01" stroke-linecap="butt" stroke-linejoin="miter" stroke="rgb(0%, 0%, 0%)" stroke-opacity="1" stroke-miterlimit="10" d="M 0 0 C 0.666667 -0.833333 1.333333 -1.666667 2 -2.5 " transform="matrix(60.046875, 0, 0, -60, 427, 240)"/>
<path fill="none" stroke-width="0.01" stroke-linecap="butt" stroke-linejoin="miter" stroke="rgb(0%, 0%, 0%)" stroke-opacity="1" stroke-miterlimit="10" d="M 0 0 C 0.666667 -0.5 1.333333 -1 2 -1.5 " transform="matrix(60.046875, 0, 0, -60, 427, 240)"/>
<path fill="none" stroke-width="0.01" stroke-linecap="butt" stroke-linejoin="miter" stroke="rgb(0%, 0%, 0%)" stroke-opacity="1" stroke-miterlimit="10" d="M 0 0 C 0.666667 -0.166667 1.333333 -0.333333 2 -0.5 " transform="matrix(60.046875, 0, 0, -60, 427, 240)"/>
<path fill="none" stroke-width="0.01" stroke-linecap="butt" stroke-linejoin="miter" stroke="rgb(0%, 0%, 0%)" stroke-opacity="1" stroke-miterlimit="10" d="M 0 0 C 0.666667 0.166667 1.333333 0.333333 2 0.5 " transform="matrix(60.046875, 0, 0, -60, 427, 240)"/>
<path fill="none" stroke-width="0.01" stroke-linecap="butt" stroke-linejoin="miter" stroke="rgb(0%, 0%, 0%)" stroke-opacity="1" stroke-miterlimit="10" d="M 0 0 C 0.666667 0.5 1.333333 1 2 1.5 " transform="matrix(60.046875, 0, 0, -60, 427, 240)"/>
<path fill="none" stroke-width="0.01" stroke-linecap="butt" stroke-linejoin="miter" stroke="rgb(0%, 0%, 0%)" stroke-opacity="1" stroke-miterlimit="10" d="M 0 0 C 0.666667 0.833333 1.333333 1.666667 2 2.5 " transform="matrix(60.046875, 0, 0, -60, 427, 240)"/>
<path fill="none" stroke-width="0.01" stroke-linecap="butt" stroke-linejoin="miter" stroke="rgb(0%, 0%, 0%)" stroke-opacity="1" stroke-miterlimit="10" d="M 0 1 C 0.666667 -0.5 1.333333 -2 2 -3.5 " transform="matrix(60.046875, 0, 0, -60, 427, 240)"/>
<path fill="none" stroke-width="0.01" stroke-linecap="butt" stroke-linejoin="miter" stroke="rgb(0%, 0%, 0%)" stroke-opacity="1" stroke-miterlimit="10" d="M 0 1 C 0.666667 -0.166667 1.333333 -1.333333 2 -2.5 " transform="matrix(60.046875, 0, 0, -60, 427, 240)"/>
<path fill="none" stroke-width="0.01" stroke-linecap="butt" stroke-linejoin="miter" stroke="rgb(0%, 0%, 0%)" stroke-opacity="1" stroke-miterlimit="10" d="M 0 1 C 0.666667 0.166667 1.333333 -0.666667 2 -1.5 " transform="matrix(60.046875, 0, 0, -60, 427, 240)"/>
<path fill="none" stroke-width="0.01" stroke-linecap="butt" stroke-linejoin="miter" stroke="rgb(0%, 0%, 0%)" stroke-opacity="1" stroke-miterlimit="10" d="M 0 1 C 0.666667 0.5 1.333333 0 2 -0.5 " transform="matrix(60.046875, 0, 0, -60, 427, 240)"/>
<path fill="none" stroke-width="0.01" stroke-linecap="butt" stroke-linejoin="miter" stroke="rgb(0%, 0%, 0%)" stroke-opacity="1" stroke-miterlimit="10" d="M 0 1 C 0.666667 0.833333 1.333333 0.666667 2 0.5 " transform="matrix(60.046875, 0, 0, -60, 427, 240)"/>
<path fill="none" stroke-width="0.01" stroke-linecap="butt" stroke-linejoin="miter" stroke="rgb(0%, 0%, 0%)" stroke-opacity="1" stroke-miterlimit="10" d="M 0 1 C 0.666667 1.166667 1.333333 1.333333 2 1.5 " transform="matrix(60.046875, 0, 0, -60, 427, 240)"/>
<path fill="none" stroke-width="0.01" stroke-linecap="butt" stroke-linejoin="miter" stroke="rgb(0%, 0%, 0%)" stroke-opacity="1" stroke-miterlimit="10" d="M 0 1 C 0.666667 1.5 1.333333 2 2 2.5 " transform="matrix(60.046875, 0, 0, -60, 427, 240)"/>
</svg>
