<?xml version="1.0" encoding="UTF-8" standalone="no"?>
<svg
   width="854"
   height="480"
   viewBox="0 0 854 480"
   version="1.1"
   id="svg224"
   sodipodi:docname="neural_network_with_labels_and_layer_highlight.svg"
   inkscape:version="1.2.2 (732a01da63, 2022-12-09)"
   xmlns:inkscape="http://www.inkscape.org/namespaces/inkscape"
   xmlns:sodipodi="http://sodipodi.sourceforge.net/DTD/sodipodi-0.dtd"
   xmlns="http://www.w3.org/2000/svg"
   xmlns:svg="http://www.w3.org/2000/svg">
  <defs
     id="defs228" />
  <sodipodi:namedview
     id="namedview226"
     pagecolor="#ffffff"
     bordercolor="#000000"
     borderopacity="0.25"
     inkscape:showpageshadow="2"
     inkscape:pageopacity="0.0"
     inkscape:pagecheckerboard="0"
     inkscape:deskcolor="#d1d1d1"
     showgrid="false"
     inkscape:zoom="1.4051522"
     inkscape:cx="772.15833"
     inkscape:cy="209.23"
     inkscape:window-width="3440"
     inkscape:window-height="1369"
     inkscape:window-x="-8"
     inkscape:window-y="-8"
     inkscape:window-maximized="1"
     inkscape:current-layer="g1589" />
  <g
     id="g545"
     transform="translate(66.050782,-30)" />
  <g
     id="g1589"
     transform="translate(71.386667,17.828333)">
    <path
       fill="none"
       stroke-width="0.08"
       stroke-linecap="butt"
       stroke-linejoin="miter"
       stroke="#0e6942"
       stroke-opacity="1"
       stroke-miterlimit="10"
       d="m -3.699974,-1.5 c 0,0.078516 -0.032331,0.156576 -0.087887,0.212109 C -3.843417,-1.232357 -3.921481,-1.2 -4,-1.2 -4.078519,-1.2 -4.156583,-1.232357 -4.212139,-1.287891 -4.267695,-1.343424 -4.300026,-1.421484 -4.300026,-1.5 c 0,-0.078516 0.032331,-0.156576 0.087887,-0.212109 C -4.156583,-1.767643 -4.078519,-1.8 -4,-1.8 c 0.078519,0 0.156583,0.032357 0.212139,0.087891 0.055556,0.055533 0.087887,0.133593 0.087887,0.212109 z m 0,0"
       transform="matrix(60.046875,0,0,-60,493.05078,210)"
       id="path2" />
    <path
       fill="none"
       stroke-width="0.08"
       stroke-linecap="butt"
       stroke-linejoin="miter"
       stroke="#0e6942"
       stroke-opacity="1"
       stroke-miterlimit="10"
       d="m -3.699974,-0.5 c 0,0.078516 -0.032331,0.156576 -0.087887,0.212109 C -3.843417,-0.232357 -3.921481,-0.2 -4,-0.2 -4.078519,-0.2 -4.156583,-0.232357 -4.212139,-0.287891 -4.267695,-0.343424 -4.300026,-0.421484 -4.300026,-0.5 c 0,-0.078516 0.032331,-0.156576 0.087887,-0.212109 C -4.156583,-0.767643 -4.078519,-0.8 -4,-0.8 c 0.078519,0 0.156583,0.032357 0.212139,0.087891 0.055556,0.055533 0.087887,0.133593 0.087887,0.212109 z m 0,0"
       transform="matrix(60.046875,0,0,-60,493.05078,210)"
       id="path4" />
    <path
       fill="none"
       stroke-width="0.08"
       stroke-linecap="butt"
       stroke-linejoin="miter"
       stroke="#0e6942"
       stroke-opacity="1"
       stroke-miterlimit="10"
       d="m -3.699974,0.5 c 0,0.078516 -0.032331,0.156576 -0.087887,0.212109 C -3.843417,0.767643 -3.921481,0.8 -4,0.8 -4.078519,0.8 -4.156583,0.767643 -4.212139,0.712109 -4.267695,0.656576 -4.300026,0.578516 -4.300026,0.5 c 0,-0.078516 0.032331,-0.156576 0.087887,-0.212109 C -4.156583,0.232357 -4.078519,0.2 -4,0.2 c 0.078519,0 0.156583,0.032357 0.212139,0.087891 0.055556,0.055533 0.087887,0.133593 0.087887,0.212109 z m 0,0"
       transform="matrix(60.046875,0,0,-60,493.05078,210)"
       id="path6" />
    <path
       fill="none"
       stroke-width="0.08"
       stroke-linecap="butt"
       stroke-linejoin="miter"
       stroke="#0e6942"
       stroke-opacity="1"
       stroke-miterlimit="10"
       d="m -1.699974,-2 c 0,0.078516 -0.032331,0.156576 -0.087887,0.212109 C -1.843417,-1.732357 -1.921481,-1.7 -2,-1.7 -2.078519,-1.7 -2.156583,-1.732357 -2.212139,-1.787891 -2.267695,-1.843424 -2.300026,-1.921484 -2.300026,-2 c 0,-0.078516 0.032331,-0.156576 0.087887,-0.212109 C -2.156583,-2.267643 -2.078519,-2.3 -2,-2.3 c 0.078519,0 0.156583,0.032357 0.212139,0.087891 0.055556,0.055533 0.087887,0.133593 0.087887,0.212109 z m 0,0"
       transform="matrix(60.046875,0,0,-60,493.05078,210)"
       id="path20" />
    <path
       fill="none"
       stroke-width="0.08"
       stroke-linecap="butt"
       stroke-linejoin="miter"
       stroke="#0e6942"
       stroke-opacity="1"
       stroke-miterlimit="10"
       d="m -1.699974,-1 c 0,0.078516 -0.032331,0.156576 -0.087887,0.212109 C -1.843417,-0.732357 -1.921481,-0.7 -2,-0.7 -2.078519,-0.7 -2.156583,-0.732357 -2.212139,-0.787891 -2.267695,-0.843424 -2.300026,-0.921484 -2.300026,-1 c 0,-0.078516 0.032331,-0.156576 0.087887,-0.212109 C -2.156583,-1.267643 -2.078519,-1.3 -2,-1.3 c 0.078519,0 0.156583,0.032357 0.212139,0.087891 0.055556,0.055533 0.087887,0.133593 0.087887,0.212109 z m 0,0"
       transform="matrix(60.046875,0,0,-60,493.05078,210)"
       id="path22" />
    <path
       fill="none"
       stroke-width="0.08"
       stroke-linecap="butt"
       stroke-linejoin="miter"
       stroke="#0e6942"
       stroke-opacity="1"
       stroke-miterlimit="10"
       d="m -1.699974,0 c 0,0.0785156 -0.032331,0.156576 -0.087887,0.212109 C -1.843417,0.267643 -1.921481,0.3 -2,0.3 -2.078519,0.3 -2.156583,0.267643 -2.212139,0.212109 -2.267695,0.156576 -2.300026,0.0785156 -2.300026,0 c 0,-0.0785156 0.032331,-0.156576 0.087887,-0.212109 C -2.156583,-0.267643 -2.078519,-0.3 -2,-0.3 c 0.078519,0 0.156583,0.032357 0.212139,0.087891 0.055556,0.055533 0.087887,0.1335934 0.087887,0.212109 z m 0,0"
       transform="matrix(60.046875,0,0,-60,493.05078,210)"
       id="path24" />
    <path
       fill="none"
       stroke-width="0.08"
       stroke-linecap="butt"
       stroke-linejoin="miter"
       stroke="#0e6942"
       stroke-opacity="1"
       stroke-miterlimit="10"
       d="m -1.699974,1 c 0,0.078516 -0.032331,0.156576 -0.087887,0.212109 C -1.843417,1.267643 -1.921481,1.3 -2,1.3 -2.078519,1.3 -2.156583,1.267643 -2.212139,1.212109 -2.267695,1.156576 -2.300026,1.078516 -2.300026,1 c 0,-0.078516 0.032331,-0.156576 0.087887,-0.212109 C -2.156583,0.732357 -2.078519,0.7 -2,0.7 c 0.078519,0 0.156583,0.032357 0.212139,0.087891 C -1.732305,0.843424 -1.699974,0.921484 -1.699974,1 Z m 0,0"
       transform="matrix(60.046875,0,0,-60,493.05078,210)"
       id="path26" />
    <path
       fill="none"
       stroke-width="0.04"
       stroke-linecap="butt"
       stroke-linejoin="miter"
       stroke="#0e6942"
       stroke-opacity="1"
       stroke-miterlimit="10"
       d="m 0.300026,-2 c 0,0.078516 -0.032331,0.156576 -0.087887,0.212109 C 0.156583,-1.732357 0.0785194,-1.7 0,-1.7 -0.0785194,-1.7 -0.156583,-1.732357 -0.212139,-1.787891 -0.267695,-1.843424 -0.300026,-1.921484 -0.300026,-2 c 0,-0.078516 0.032331,-0.156576 0.087887,-0.212109 C -0.156583,-2.267643 -0.0785194,-2.3 0,-2.3 c 0.0785194,0 0.156583,0.032357 0.212139,0.087891 C 0.267695,-2.156576 0.300026,-2.078516 0.300026,-2 Z m 0,0"
       transform="matrix(60.046875,0,0,-60,493.05078,210)"
       id="path28" />
    <path
       fill="none"
       stroke-width="0.04"
       stroke-linecap="butt"
       stroke-linejoin="miter"
       stroke="#0e6942"
       stroke-opacity="1"
       stroke-miterlimit="10"
       d="m 0.300026,-1 c 0,0.078516 -0.032331,0.156576 -0.087887,0.212109 C 0.156583,-0.732357 0.0785194,-0.7 0,-0.7 -0.0785194,-0.7 -0.156583,-0.732357 -0.212139,-0.787891 -0.267695,-0.843424 -0.300026,-0.921484 -0.300026,-1 c 0,-0.078516 0.032331,-0.156576 0.087887,-0.212109 C -0.156583,-1.267643 -0.0785194,-1.3 0,-1.3 c 0.0785194,0 0.156583,0.032357 0.212139,0.087891 C 0.267695,-1.156576 0.300026,-1.078516 0.300026,-1 Z m 0,0"
       transform="matrix(60.046875,0,0,-60,493.05078,210)"
       id="path30" />
    <path
       fill="none"
       stroke-width="0.04"
       stroke-linecap="butt"
       stroke-linejoin="miter"
       stroke="#0e6942"
       stroke-opacity="1"
       stroke-miterlimit="10"
       d="m 0.300026,0 c 0,0.0785156 -0.032331,0.156576 -0.087887,0.212109 C 0.156583,0.267643 0.0785194,0.3 0,0.3 -0.0785194,0.3 -0.156583,0.267643 -0.212139,0.212109 -0.267695,0.156576 -0.300026,0.0785156 -0.300026,0 c 0,-0.0785156 0.032331,-0.156576 0.087887,-0.212109 C -0.156583,-0.267643 -0.0785194,-0.3 0,-0.3 c 0.0785194,0 0.156583,0.032357 0.212139,0.087891 C 0.267695,-0.156576 0.300026,-0.0785156 0.300026,0 Z m 0,0"
       transform="matrix(60.046875,0,0,-60,493.05078,210)"
       id="path32" />
    <path
       fill="none"
       stroke-width="0.04"
       stroke-linecap="butt"
       stroke-linejoin="miter"
       stroke="#0e6942"
       stroke-opacity="1"
       stroke-miterlimit="10"
       d="m 0.300026,1 c 0,0.078516 -0.032331,0.156576 -0.087887,0.212109 C 0.156583,1.267643 0.0785194,1.3 0,1.3 -0.0785194,1.3 -0.156583,1.267643 -0.212139,1.212109 -0.267695,1.156576 -0.300026,1.078516 -0.300026,1 c 0,-0.078516 0.032331,-0.156576 0.087887,-0.212109 C -0.156583,0.732357 -0.0785194,0.7 0,0.7 0.0785194,0.7 0.156583,0.732357 0.212139,0.787891 0.267695,0.843424 0.300026,0.921484 0.300026,1 Z m 0,0"
       transform="matrix(60.046875,0,0,-60,493.05078,210)"
       id="path34" />
    <path
       fill="none"
       stroke-width="0.04"
       stroke-linecap="butt"
       stroke-linejoin="miter"
       stroke="#0e6942"
       stroke-opacity="1"
       stroke-miterlimit="10"
       d="m 2.300026,-3.5 c 0,0.078516 -0.032331,0.156576 -0.087887,0.212109 C 2.156583,-3.232357 2.078519,-3.2 2,-3.2 1.921481,-3.2 1.843417,-3.232357 1.787861,-3.287891 1.732305,-3.343424 1.699974,-3.421484 1.699974,-3.5 c 0,-0.078516 0.032331,-0.156576 0.087887,-0.212109 C 1.843417,-3.767643 1.921481,-3.8 2,-3.8 c 0.078519,0 0.156583,0.032357 0.212139,0.087891 0.055556,0.055533 0.087887,0.133593 0.087887,0.212109 z m 0,0"
       transform="matrix(60.046875,0,0,-60,493.05078,210)"
       id="path36" />
    <path
       fill="none"
       stroke-width="0.04"
       stroke-linecap="butt"
       stroke-linejoin="miter"
       stroke="#0e6942"
       stroke-opacity="1"
       stroke-miterlimit="10"
       d="m 2.300026,-2.5 c 0,0.078516 -0.032331,0.156576 -0.087887,0.212109 C 2.156583,-2.232357 2.078519,-2.2 2,-2.2 1.921481,-2.2 1.843417,-2.232357 1.787861,-2.287891 1.732305,-2.343424 1.699974,-2.421484 1.699974,-2.5 c 0,-0.078516 0.032331,-0.156576 0.087887,-0.212109 C 1.843417,-2.767643 1.921481,-2.8 2,-2.8 c 0.078519,0 0.156583,0.032357 0.212139,0.087891 0.055556,0.055533 0.087887,0.133593 0.087887,0.212109 z m 0,0"
       transform="matrix(60.046875,0,0,-60,493.05078,210)"
       id="path38" />
    <path
       fill="none"
       stroke-width="0.04"
       stroke-linecap="butt"
       stroke-linejoin="miter"
       stroke="#0e6942"
       stroke-opacity="1"
       stroke-miterlimit="10"
       d="m 2.300026,-1.5 c 0,0.078516 -0.032331,0.156576 -0.087887,0.212109 C 2.156583,-1.232357 2.078519,-1.2 2,-1.2 1.921481,-1.2 1.843417,-1.232357 1.787861,-1.287891 1.732305,-1.343424 1.699974,-1.421484 1.699974,-1.5 c 0,-0.078516 0.032331,-0.156576 0.087887,-0.212109 C 1.843417,-1.767643 1.921481,-1.8 2,-1.8 c 0.078519,0 0.156583,0.032357 0.212139,0.087891 0.055556,0.055533 0.087887,0.133593 0.087887,0.212109 z m 0,0"
       transform="matrix(60.046875,0,0,-60,493.05078,210)"
       id="path40" />
    <path
       fill="none"
       stroke-width="0.04"
       stroke-linecap="butt"
       stroke-linejoin="miter"
       stroke="#0e6942"
       stroke-opacity="1"
       stroke-miterlimit="10"
       d="m 2.300026,-0.5 c 0,0.078516 -0.032331,0.156576 -0.087887,0.212109 C 2.156583,-0.232357 2.078519,-0.2 2,-0.2 1.921481,-0.2 1.843417,-0.232357 1.787861,-0.287891 1.732305,-0.343424 1.699974,-0.421484 1.699974,-0.5 c 0,-0.078516 0.032331,-0.156576 0.087887,-0.212109 C 1.843417,-0.767643 1.921481,-0.8 2,-0.8 c 0.078519,0 0.156583,0.032357 0.212139,0.087891 0.055556,0.055533 0.087887,0.133593 0.087887,0.212109 z m 0,0"
       transform="matrix(60.046875,0,0,-60,493.05078,210)"
       id="path42" />
    <path
       fill="none"
       stroke-width="0.04"
       stroke-linecap="butt"
       stroke-linejoin="miter"
       stroke="#0e6942"
       stroke-opacity="1"
       stroke-miterlimit="10"
       d="m 2.300026,0.5 c 0,0.078516 -0.032331,0.156576 -0.087887,0.212109 C 2.156583,0.767643 2.078519,0.8 2,0.8 1.921481,0.8 1.843417,0.767643 1.787861,0.712109 1.732305,0.656576 1.699974,0.578516 1.699974,0.5 1.699974,0.421484 1.732305,0.343424 1.787861,0.287891 1.843417,0.232357 1.921481,0.2 2,0.2 2.078519,0.2 2.156583,0.232357 2.212139,0.287891 2.267695,0.343424 2.300026,0.421484 2.300026,0.5 Z m 0,0"
       transform="matrix(60.046875,0,0,-60,493.05078,210)"
       id="path44" />
    <path
       fill="none"
       stroke-width="0.04"
       stroke-linecap="butt"
       stroke-linejoin="miter"
       stroke="#0e6942"
       stroke-opacity="1"
       stroke-miterlimit="10"
       d="m 2.300026,1.5 c 0,0.078516 -0.032331,0.156576 -0.087887,0.212109 C 2.156583,1.767643 2.078519,1.8 2,1.8 1.921481,1.8 1.843417,1.767643 1.787861,1.712109 1.732305,1.656576 1.699974,1.578516 1.699974,1.5 1.699974,1.421484 1.732305,1.343424 1.787861,1.287891 1.843417,1.232357 1.921481,1.2 2,1.2 2.078519,1.2 2.156583,1.232357 2.212139,1.287891 2.267695,1.343424 2.300026,1.421484 2.300026,1.5 Z m 0,0"
       transform="matrix(60.046875,0,0,-60,493.05078,210)"
       id="path46" />
    <path
       fill="none"
       stroke-width="0.04"
       stroke-linecap="butt"
       stroke-linejoin="miter"
       stroke="#0e6942"
       stroke-opacity="1"
       stroke-miterlimit="10"
       d="m 2.300026,2.5 c 0,0.078516 -0.032331,0.156576 -0.087887,0.212109 C 2.156583,2.767643 2.078519,2.8 2,2.8 1.921481,2.8 1.843417,2.767643 1.787861,2.712109 1.732305,2.656576 1.699974,2.578516 1.699974,2.5 1.699974,2.421484 1.732305,2.343424 1.787861,2.287891 1.843417,2.232357 1.921481,2.2 2,2.2 2.078519,2.2 2.156583,2.232357 2.212139,2.287891 2.267695,2.343424 2.300026,2.421484 2.300026,2.5 Z m 0,0"
       transform="matrix(60.046875,0,0,-60,493.05078,210)"
       id="path48" />
    <path
       fill="none"
       stroke-width="0.04"
       stroke-linecap="butt"
       stroke-linejoin="miter"
       stroke="#000000"
       stroke-opacity="1"
       stroke-miterlimit="10"
       d="m -4,-1.5 c 0.666667,-0.166667 1.333333,-0.333333 2,-0.5"
       transform="matrix(60.046875,0,0,-60,493.05078,210)"
       id="path50" />
    <path
       fill="none"
       stroke-width="0.04"
       stroke-linecap="butt"
       stroke-linejoin="miter"
       stroke="#000000"
       stroke-opacity="1"
       stroke-miterlimit="10"
       d="m -4,-1.5 c 0.666667,0.166667 1.333333,0.333333 2,0.5"
       transform="matrix(60.046875,0,0,-60,493.05078,210)"
       id="path52" />
    <path
       fill="none"
       stroke-width="0.04"
       stroke-linecap="butt"
       stroke-linejoin="miter"
       stroke="#000000"
       stroke-opacity="1"
       stroke-miterlimit="10"
       d="m -4,-1.5 c 0.666667,0.5 1.333333,1 2,1.5"
       transform="matrix(60.046875,0,0,-60,493.05078,210)"
       id="path54" />
    <path
       fill="none"
       stroke-width="0.04"
       stroke-linecap="butt"
       stroke-linejoin="miter"
       stroke="#000000"
       stroke-opacity="1"
       stroke-miterlimit="10"
       d="m -4,-1.5 c 0.666667,0.833333 1.333333,1.666667 2,2.5"
       transform="matrix(60.046875,0,0,-60,493.05078,210)"
       id="path56" />
    <path
       fill="none"
       stroke-width="0.04"
       stroke-linecap="butt"
       stroke-linejoin="miter"
       stroke="#000000"
       stroke-opacity="1"
       stroke-miterlimit="10"
       d="m -4,-0.5 c 0.666667,-0.5 1.333333,-1 2,-1.5"
       transform="matrix(60.046875,0,0,-60,493.05078,210)"
       id="path58" />
    <path
       fill="none"
       stroke-width="0.04"
       stroke-linecap="butt"
       stroke-linejoin="miter"
       stroke="#000000"
       stroke-opacity="1"
       stroke-miterlimit="10"
       d="m -4,-0.5 c 0.666667,-0.166667 1.333333,-0.333333 2,-0.5"
       transform="matrix(60.046875,0,0,-60,493.05078,210)"
       id="path60" />
    <path
       fill="none"
       stroke-width="0.04"
       stroke-linecap="butt"
       stroke-linejoin="miter"
       stroke="#000000"
       stroke-opacity="1"
       stroke-miterlimit="10"
       d="m -4,-0.5 c 0.666667,0.166667 1.333333,0.333333 2,0.5"
       transform="matrix(60.046875,0,0,-60,493.05078,210)"
       id="path62" />
    <path
       fill="none"
       stroke-width="0.04"
       stroke-linecap="butt"
       stroke-linejoin="miter"
       stroke="#000000"
       stroke-opacity="1"
       stroke-miterlimit="10"
       d="m -4,-0.5 c 0.666667,0.5 1.333333,1 2,1.5"
       transform="matrix(60.046875,0,0,-60,493.05078,210)"
       id="path64" />
    <path
       fill="none"
       stroke-width="0.04"
       stroke-linecap="butt"
       stroke-linejoin="miter"
       stroke="#000000"
       stroke-opacity="1"
       stroke-miterlimit="10"
       d="m -4,0.5 c 0.666667,-0.833333 1.333333,-1.666667 2,-2.5"
       transform="matrix(60.046875,0,0,-60,493.05078,210)"
       id="path66" />
    <path
       fill="none"
       stroke-width="0.04"
       stroke-linecap="butt"
       stroke-linejoin="miter"
       stroke="#000000"
       stroke-opacity="1"
       stroke-miterlimit="10"
       d="M -4,0.5 C -3.333333,0 -2.666667,-0.5 -2,-1"
       transform="matrix(60.046875,0,0,-60,493.05078,210)"
       id="path68" />
    <path
       fill="none"
       stroke-width="0.04"
       stroke-linecap="butt"
       stroke-linejoin="miter"
       stroke="#000000"
       stroke-opacity="1"
       stroke-miterlimit="10"
       d="M -4,0.5 C -3.333333,0.333333 -2.666667,0.166667 -2,0"
       transform="matrix(60.046875,0,0,-60,493.05078,210)"
       id="path70" />
    <path
       fill="none"
       stroke-width="0.04"
       stroke-linecap="butt"
       stroke-linejoin="miter"
       stroke="#000000"
       stroke-opacity="1"
       stroke-miterlimit="10"
       d="m -4,0.5 c 0.666667,0.166667 1.333333,0.333333 2,0.5"
       transform="matrix(60.046875,0,0,-60,493.05078,210)"
       id="path72" />
    <path
       fill="none"
       stroke-width="0.01"
       stroke-linecap="butt"
       stroke-linejoin="miter"
       stroke="#000000"
       stroke-opacity="1"
       stroke-miterlimit="10"
       d="m -2,-2 c 0.666667,0 1.333333,0 2,0"
       transform="matrix(60.046875,0,0,-60,493.05078,210)"
       id="path74" />
    <path
       fill="none"
       stroke-width="0.01"
       stroke-linecap="butt"
       stroke-linejoin="miter"
       stroke="#000000"
       stroke-opacity="1"
       stroke-miterlimit="10"
       d="m -2,-2 c 0.666667,0.333333 1.333333,0.666667 2,1"
       transform="matrix(60.046875,0,0,-60,493.05078,210)"
       id="path76" />
    <path
       fill="none"
       stroke-width="0.01"
       stroke-linecap="butt"
       stroke-linejoin="miter"
       stroke="#000000"
       stroke-opacity="1"
       stroke-miterlimit="10"
       d="m -2,-2 c 0.666667,0.666667 1.333333,1.333333 2,2"
       transform="matrix(60.046875,0,0,-60,493.05078,210)"
       id="path78" />
    <path
       fill="none"
       stroke-width="0.01"
       stroke-linecap="butt"
       stroke-linejoin="miter"
       stroke="#000000"
       stroke-opacity="1"
       stroke-miterlimit="10"
       d="m -2,-2 c 0.666667,1 1.333333,2 2,3"
       transform="matrix(60.046875,0,0,-60,493.05078,210)"
       id="path80" />
    <path
       fill="none"
       stroke-width="0.01"
       stroke-linecap="butt"
       stroke-linejoin="miter"
       stroke="#000000"
       stroke-opacity="1"
       stroke-miterlimit="10"
       d="m -2,-1 c 0.666667,-0.333333 1.333333,-0.666667 2,-1"
       transform="matrix(60.046875,0,0,-60,493.05078,210)"
       id="path82" />
    <path
       fill="none"
       stroke-width="0.01"
       stroke-linecap="butt"
       stroke-linejoin="miter"
       stroke="#000000"
       stroke-opacity="1"
       stroke-miterlimit="10"
       d="m -2,-1 c 0.666667,0 1.333333,0 2,0"
       transform="matrix(60.046875,0,0,-60,493.05078,210)"
       id="path84" />
    <path
       fill="none"
       stroke-width="0.01"
       stroke-linecap="butt"
       stroke-linejoin="miter"
       stroke="#000000"
       stroke-opacity="1"
       stroke-miterlimit="10"
       d="m -2,-1 c 0.666667,0.333333 1.333333,0.666667 2,1"
       transform="matrix(60.046875,0,0,-60,493.05078,210)"
       id="path86" />
    <path
       fill="none"
       stroke-width="0.01"
       stroke-linecap="butt"
       stroke-linejoin="miter"
       stroke="#000000"
       stroke-opacity="1"
       stroke-miterlimit="10"
       d="m -2,-1 c 0.666667,0.666667 1.333333,1.333333 2,2"
       transform="matrix(60.046875,0,0,-60,493.05078,210)"
       id="path88" />
    <path
       fill="none"
       stroke-width="0.01"
       stroke-linecap="butt"
       stroke-linejoin="miter"
       stroke="#000000"
       stroke-opacity="1"
       stroke-miterlimit="10"
       d="m -2,0 c 0.666667,-0.666667 1.333333,-1.333333 2,-2"
       transform="matrix(60.046875,0,0,-60,493.05078,210)"
       id="path90" />
    <path
       fill="none"
       stroke-width="0.01"
       stroke-linecap="butt"
       stroke-linejoin="miter"
       stroke="#000000"
       stroke-opacity="1"
       stroke-miterlimit="10"
       d="m -2,0 c 0.666667,-0.333333 1.333333,-0.666667 2,-1"
       transform="matrix(60.046875,0,0,-60,493.05078,210)"
       id="path92" />
    <path
       fill="none"
       stroke-width="0.01"
       stroke-linecap="butt"
       stroke-linejoin="miter"
       stroke="#000000"
       stroke-opacity="1"
       stroke-miterlimit="10"
       d="m -2,0 c 0.666667,0 1.333333,0 2,0"
       transform="matrix(60.046875,0,0,-60,493.05078,210)"
       id="path94" />
    <path
       fill="none"
       stroke-width="0.01"
       stroke-linecap="butt"
       stroke-linejoin="miter"
       stroke="#000000"
       stroke-opacity="1"
       stroke-miterlimit="10"
       d="m -2,0 c 0.666667,0.333333 1.333333,0.666667 2,1"
       transform="matrix(60.046875,0,0,-60,493.05078,210)"
       id="path96" />
    <path
       fill="none"
       stroke-width="0.01"
       stroke-linecap="butt"
       stroke-linejoin="miter"
       stroke="#000000"
       stroke-opacity="1"
       stroke-miterlimit="10"
       d="m -2,1 c 0.666667,-1 1.333333,-2 2,-3"
       transform="matrix(60.046875,0,0,-60,493.05078,210)"
       id="path98" />
    <path
       fill="none"
       stroke-width="0.01"
       stroke-linecap="butt"
       stroke-linejoin="miter"
       stroke="#000000"
       stroke-opacity="1"
       stroke-miterlimit="10"
       d="m -2,1 c 0.666667,-0.666667 1.333333,-1.333333 2,-2"
       transform="matrix(60.046875,0,0,-60,493.05078,210)"
       id="path100" />
    <path
       fill="none"
       stroke-width="0.01"
       stroke-linecap="butt"
       stroke-linejoin="miter"
       stroke="#000000"
       stroke-opacity="1"
       stroke-miterlimit="10"
       d="M -2,1 C -1.333333,0.666667 -0.666667,0.333333 0,0"
       transform="matrix(60.046875,0,0,-60,493.05078,210)"
       id="path102" />
    <path
       fill="none"
       stroke-width="0.01"
       stroke-linecap="butt"
       stroke-linejoin="miter"
       stroke="#000000"
       stroke-opacity="1"
       stroke-miterlimit="10"
       d="m -2,1 c 0.666667,0 1.333333,0 2,0"
       transform="matrix(60.046875,0,0,-60,493.05078,210)"
       id="path104" />
    <path
       fill="none"
       stroke-width="0.01"
       stroke-linecap="butt"
       stroke-linejoin="miter"
       stroke="#000000"
       stroke-opacity="1"
       stroke-miterlimit="10"
       d="M 0,-2 C 0.666667,-2.5 1.333333,-3 2,-3.5"
       transform="matrix(60.046875,0,0,-60,493.05078,210)"
       id="path106" />
    <path
       fill="none"
       stroke-width="0.01"
       stroke-linecap="butt"
       stroke-linejoin="miter"
       stroke="#000000"
       stroke-opacity="1"
       stroke-miterlimit="10"
       d="M 0,-2 C 0.666667,-2.166667 1.333333,-2.333333 2,-2.5"
       transform="matrix(60.046875,0,0,-60,493.05078,210)"
       id="path108" />
    <path
       fill="none"
       stroke-width="0.01"
       stroke-linecap="butt"
       stroke-linejoin="miter"
       stroke="#000000"
       stroke-opacity="1"
       stroke-miterlimit="10"
       d="m 0,-2 c 0.666667,0.166667 1.333333,0.333333 2,0.5"
       transform="matrix(60.046875,0,0,-60,493.05078,210)"
       id="path110" />
    <path
       fill="none"
       stroke-width="0.01"
       stroke-linecap="butt"
       stroke-linejoin="miter"
       stroke="#000000"
       stroke-opacity="1"
       stroke-miterlimit="10"
       d="m 0,-2 c 0.666667,0.5 1.333333,1 2,1.5"
       transform="matrix(60.046875,0,0,-60,493.05078,210)"
       id="path112" />
    <path
       fill="none"
       stroke-width="0.01"
       stroke-linecap="butt"
       stroke-linejoin="miter"
       stroke="#000000"
       stroke-opacity="1"
       stroke-miterlimit="10"
       d="m 0,-2 c 0.666667,0.833333 1.333333,1.666667 2,2.5"
       transform="matrix(60.046875,0,0,-60,493.05078,210)"
       id="path114" />
    <path
       fill="none"
       stroke-width="0.01"
       stroke-linecap="butt"
       stroke-linejoin="miter"
       stroke="#000000"
       stroke-opacity="1"
       stroke-miterlimit="10"
       d="m 0,-2 c 0.666667,1.166667 1.333333,2.333333 2,3.5"
       transform="matrix(60.046875,0,0,-60,493.05078,210)"
       id="path116" />
    <path
       fill="none"
       stroke-width="0.01"
       stroke-linecap="butt"
       stroke-linejoin="miter"
       stroke="#000000"
       stroke-opacity="1"
       stroke-miterlimit="10"
       d="m 0,-2 c 0.666667,1.5 1.333333,3 2,4.5"
       transform="matrix(60.046875,0,0,-60,493.05078,210)"
       id="path118" />
    <path
       fill="none"
       stroke-width="0.01"
       stroke-linecap="butt"
       stroke-linejoin="miter"
       stroke="#000000"
       stroke-opacity="1"
       stroke-miterlimit="10"
       d="M 0,-1 C 0.666667,-1.833333 1.333333,-2.666667 2,-3.5"
       transform="matrix(60.046875,0,0,-60,493.05078,210)"
       id="path120" />
    <path
       fill="none"
       stroke-width="0.01"
       stroke-linecap="butt"
       stroke-linejoin="miter"
       stroke="#000000"
       stroke-opacity="1"
       stroke-miterlimit="10"
       d="M 0,-1 C 0.666667,-1.5 1.333333,-2 2,-2.5"
       transform="matrix(60.046875,0,0,-60,493.05078,210)"
       id="path122" />
    <path
       fill="none"
       stroke-width="0.01"
       stroke-linecap="butt"
       stroke-linejoin="miter"
       stroke="#000000"
       stroke-opacity="1"
       stroke-miterlimit="10"
       d="M 0,-1 C 0.666667,-1.166667 1.333333,-1.333333 2,-1.5"
       transform="matrix(60.046875,0,0,-60,493.05078,210)"
       id="path124" />
    <path
       fill="none"
       stroke-width="0.01"
       stroke-linecap="butt"
       stroke-linejoin="miter"
       stroke="#000000"
       stroke-opacity="1"
       stroke-miterlimit="10"
       d="m 0,-1 c 0.666667,0.166667 1.333333,0.333333 2,0.5"
       transform="matrix(60.046875,0,0,-60,493.05078,210)"
       id="path126" />
    <path
       fill="none"
       stroke-width="0.01"
       stroke-linecap="butt"
       stroke-linejoin="miter"
       stroke="#000000"
       stroke-opacity="1"
       stroke-miterlimit="10"
       d="m 0,-1 c 0.666667,0.5 1.333333,1 2,1.5"
       transform="matrix(60.046875,0,0,-60,493.05078,210)"
       id="path128" />
    <path
       fill="none"
       stroke-width="0.01"
       stroke-linecap="butt"
       stroke-linejoin="miter"
       stroke="#000000"
       stroke-opacity="1"
       stroke-miterlimit="10"
       d="m 0,-1 c 0.666667,0.833333 1.333333,1.666667 2,2.5"
       transform="matrix(60.046875,0,0,-60,493.05078,210)"
       id="path130" />
    <path
       fill="none"
       stroke-width="0.01"
       stroke-linecap="butt"
       stroke-linejoin="miter"
       stroke="#000000"
       stroke-opacity="1"
       stroke-miterlimit="10"
       d="M 0,-1 C 0.666667,0.166667 1.333333,1.333333 2,2.5"
       transform="matrix(60.046875,0,0,-60,493.05078,210)"
       id="path132" />
    <path
       fill="none"
       stroke-width="0.01"
       stroke-linecap="butt"
       stroke-linejoin="miter"
       stroke="#000000"
       stroke-opacity="1"
       stroke-miterlimit="10"
       d="M 0,0 C 0.666667,-1.166667 1.333333,-2.333333 2,-3.5"
       transform="matrix(60.046875,0,0,-60,493.05078,210)"
       id="path134" />
    <path
       fill="none"
       stroke-width="0.01"
       stroke-linecap="butt"
       stroke-linejoin="miter"
       stroke="#000000"
       stroke-opacity="1"
       stroke-miterlimit="10"
       d="M 0,0 C 0.666667,-0.833333 1.333333,-1.666667 2,-2.5"
       transform="matrix(60.046875,0,0,-60,493.05078,210)"
       id="path136" />
    <path
       fill="none"
       stroke-width="0.01"
       stroke-linecap="butt"
       stroke-linejoin="miter"
       stroke="#000000"
       stroke-opacity="1"
       stroke-miterlimit="10"
       d="M 0,0 C 0.666667,-0.5 1.333333,-1 2,-1.5"
       transform="matrix(60.046875,0,0,-60,493.05078,210)"
       id="path138" />
    <path
       fill="none"
       stroke-width="0.01"
       stroke-linecap="butt"
       stroke-linejoin="miter"
       stroke="#000000"
       stroke-opacity="1"
       stroke-miterlimit="10"
       d="M 0,0 C 0.666667,-0.166667 1.333333,-0.333333 2,-0.5"
       transform="matrix(60.046875,0,0,-60,493.05078,210)"
       id="path140" />
    <path
       fill="none"
       stroke-width="0.01"
       stroke-linecap="butt"
       stroke-linejoin="miter"
       stroke="#000000"
       stroke-opacity="1"
       stroke-miterlimit="10"
       d="M 0,0 C 0.666667,0.166667 1.333333,0.333333 2,0.5"
       transform="matrix(60.046875,0,0,-60,493.05078,210)"
       id="path142" />
    <path
       fill="none"
       stroke-width="0.01"
       stroke-linecap="butt"
       stroke-linejoin="miter"
       stroke="#000000"
       stroke-opacity="1"
       stroke-miterlimit="10"
       d="M 0,0 C 0.666667,0.5 1.333333,1 2,1.5"
       transform="matrix(60.046875,0,0,-60,493.05078,210)"
       id="path144" />
    <path
       fill="none"
       stroke-width="0.01"
       stroke-linecap="butt"
       stroke-linejoin="miter"
       stroke="#000000"
       stroke-opacity="1"
       stroke-miterlimit="10"
       d="M 0,0 C 0.666667,0.833333 1.333333,1.666667 2,2.5"
       transform="matrix(60.046875,0,0,-60,493.05078,210)"
       id="path146" />
    <path
       fill="none"
       stroke-width="0.01"
       stroke-linecap="butt"
       stroke-linejoin="miter"
       stroke="#000000"
       stroke-opacity="1"
       stroke-miterlimit="10"
       d="M 0,1 C 0.666667,-0.5 1.333333,-2 2,-3.5"
       transform="matrix(60.046875,0,0,-60,493.05078,210)"
       id="path148" />
    <path
       fill="none"
       stroke-width="0.01"
       stroke-linecap="butt"
       stroke-linejoin="miter"
       stroke="#000000"
       stroke-opacity="1"
       stroke-miterlimit="10"
       d="M 0,1 C 0.666667,-0.166667 1.333333,-1.333333 2,-2.5"
       transform="matrix(60.046875,0,0,-60,493.05078,210)"
       id="path150" />
    <path
       fill="none"
       stroke-width="0.01"
       stroke-linecap="butt"
       stroke-linejoin="miter"
       stroke="#000000"
       stroke-opacity="1"
       stroke-miterlimit="10"
       d="M 0,1 C 0.666667,0.166667 1.333333,-0.666667 2,-1.5"
       transform="matrix(60.046875,0,0,-60,493.05078,210)"
       id="path152" />
    <path
       fill="none"
       stroke-width="0.01"
       stroke-linecap="butt"
       stroke-linejoin="miter"
       stroke="#000000"
       stroke-opacity="1"
       stroke-miterlimit="10"
       d="M 0,1 C 0.666667,0.5 1.333333,0 2,-0.5"
       transform="matrix(60.046875,0,0,-60,493.05078,210)"
       id="path154" />
    <path
       fill="none"
       stroke-width="0.01"
       stroke-linecap="butt"
       stroke-linejoin="miter"
       stroke="#000000"
       stroke-opacity="1"
       stroke-miterlimit="10"
       d="M 0,1 C 0.666667,0.833333 1.333333,0.666667 2,0.5"
       transform="matrix(60.046875,0,0,-60,493.05078,210)"
       id="path156" />
    <path
       fill="none"
       stroke-width="0.01"
       stroke-linecap="butt"
       stroke-linejoin="miter"
       stroke="#000000"
       stroke-opacity="1"
       stroke-miterlimit="10"
       d="M 0,1 C 0.666667,1.166667 1.333333,1.333333 2,1.5"
       transform="matrix(60.046875,0,0,-60,493.05078,210)"
       id="path158" />
    <path
       fill="none"
       stroke-width="0.01"
       stroke-linecap="butt"
       stroke-linejoin="miter"
       stroke="#000000"
       stroke-opacity="1"
       stroke-miterlimit="10"
       d="M 0,1 C 0.666667,1.5 1.333333,2 2,2.5"
       transform="matrix(60.046875,0,0,-60,493.05078,210)"
       id="path160" />
    <path
       fill="none"
       stroke-width="0.04"
       stroke-linecap="butt"
       stroke-linejoin="miter"
       stroke="#0e6942"
       stroke-opacity="1"
       stroke-miterlimit="10"
       d="m -1.5,2 c -1,0 -2,0 -3,0 0,-1.666667 0,-3.333333 0,-5 1,0 2,0 3,0 0,1.666667 0,3.333333 0,5 z m 0,0"
       transform="matrix(60.046875,0,0,-60,493.05078,210)"
       id="path222"
       style="stroke:#0b75bb" />
    <text
       xml:space="preserve"
       style="font-weight:300;font-size:32px;font-family:Roboto;-inkscape-font-specification:'Roboto Light';text-align:center;text-anchor:middle;fill:#0b75bb;stroke:#0e6942;stroke-width:0;stroke-linecap:round;stroke-linejoin:round"
       x="140.45245"
       y="249.63188"
       id="text655"><tspan
         sodipodi:role="line"
         id="tspan653"
         x="140.45245"
         y="249.63188"
         style="font-style:normal;font-variant:normal;font-weight:normal;font-stretch:normal;font-size:32px;font-family:Roboto;-inkscape-font-specification:Roboto;fill:#0b75bb">Een laag</tspan></text>
    <text
       xml:space="preserve"
       style="font-weight:300;font-size:32px;font-family:Roboto;-inkscape-font-specification:'Roboto Light';text-align:center;text-anchor:middle;fill:#0b75bb;stroke:#0e6942;stroke-width:0;stroke-linecap:round;stroke-linejoin:round"
       x="253.26562"
       y="28.416258"
       id="text655-6"><tspan
         sodipodi:role="line"
         id="tspan653-5"
         x="253.26562"
         y="28.416258"
         style="font-style:normal;font-variant:normal;font-weight:normal;font-stretch:normal;font-size:32px;font-family:Roboto;-inkscape-font-specification:Roboto;fill:#0b75bb">Invoer </tspan><tspan
         sodipodi:role="line"
         x="253.26562"
         y="68.41626"
         style="font-style:normal;font-variant:normal;font-weight:normal;font-stretch:normal;font-size:32px;font-family:Roboto;-inkscape-font-specification:Roboto;fill:#0b75bb"
         id="tspan768">nodes</tspan></text>
    <text
       xml:space="preserve"
       style="font-weight:300;font-size:32px;font-family:Roboto;-inkscape-font-specification:'Roboto Light';text-align:center;text-anchor:middle;fill:#0b75bb;stroke:#0e6942;stroke-width:0;stroke-linecap:round;stroke-linejoin:round"
       x="322.8623"
       y="438.60001"
       id="text655-3"><tspan
         sodipodi:role="line"
         id="tspan653-0"
         x="322.8623"
         y="438.60001"
         style="font-style:normal;font-variant:normal;font-weight:normal;font-stretch:normal;font-size:32px;font-family:Roboto;-inkscape-font-specification:Roboto;fill:#0b75bb">Verbindingen</tspan></text>
    <text
       xml:space="preserve"
       style="font-weight:300;font-size:32px;font-family:Roboto;-inkscape-font-specification:'Roboto Light';text-align:center;text-anchor:middle;fill:#0b75bb;stroke:#0e6942;stroke-width:0;stroke-linecap:round;stroke-linejoin:round"
       x="370.97723"
       y="32.174999"
       id="text655-8"><tspan
         sodipodi:role="line"
         x="370.97723"
         y="32.174999"
         style="font-style:normal;font-variant:normal;font-weight:normal;font-stretch:normal;font-size:32px;font-family:Roboto;-inkscape-font-specification:Roboto;fill:#0b75bb"
         id="tspan770">Uitvoer</tspan><tspan
         sodipodi:role="line"
         x="370.97723"
         y="72.174995"
         style="font-style:normal;font-variant:normal;font-weight:normal;font-stretch:normal;font-size:32px;font-family:Roboto;-inkscape-font-specification:Roboto;fill:#0b75bb"
         id="tspan2514">nodes</tspan></text>
    <path
       style="fill:#0b75bb;stroke:#0b75bb;stroke-width:2;stroke-linecap:round;stroke-linejoin:round;stroke-dasharray:none"
       d="M 252.86328,74.636677 V 148.28288"
       id="path826" />
    <path
       style="fill:#0b75bb;stroke:#0b75bb;stroke-width:2;stroke-linecap:round;stroke-linejoin:round;stroke-dasharray:none"
       d="M 372.8366,75.870609 V 120.32872"
       id="path826-0" />
    <path
       style="fill:#0b75bb;stroke:#0b75bb;stroke-width:2;stroke-linecap:round;stroke-linejoin:round;stroke-dasharray:none"
       d="m 310.46459,323.59814 v 81.23371"
       id="path826-0-8" />
  </g>
</svg>
