<?xml version="1.0" encoding="UTF-8"?><svg xmlns="http://www.w3.org/2000/svg" xmlns:xlink="http://www.w3.org/1999/xlink" fill-opacity="1" color-rendering="auto" color-interpolation="auto" text-rendering="auto" stroke="black" stroke-linecap="square" width="317" stroke-miterlimit="10" shape-rendering="auto" stroke-opacity="1" fill="black" stroke-dasharray="none" font-weight="normal" stroke-width="1" height="288" font-family="'Dialog'" font-style="normal" stroke-linejoin="miter" font-size="12px" stroke-dashoffset="0" image-rendering="auto">
  <!--Generated by ySVG 2.6-->
  <defs id="genericDefs"/>
  <g>
    <defs id="defs1">
      <clipPath clipPathUnits="userSpaceOnUse" id="clipPath1">
        <path d="M0 0 L317 0 L317 288 L0 288 L0 0 Z"/>
      </clipPath>
      <clipPath clipPathUnits="userSpaceOnUse" id="clipPath2">
        <path d="M1222 390 L1539 390 L1539 678 L1222 678 L1222 390 Z"/>
      </clipPath>
    </defs>
    <g fill="white" text-rendering="geometricPrecision" shape-rendering="geometricPrecision" transform="translate(-1222,-390)" stroke="white">
      <rect x="1222" width="317" height="288" y="390" clip-path="url(#clipPath2)" stroke="none"/>
    </g>
    <g fill="rgb(255,204,0)" text-rendering="geometricPrecision" shape-rendering="geometricPrecision" transform="matrix(1,0,0,1,-1222,-390)" stroke="rgb(255,204,0)">
      <circle r="1" clip-path="url(#clipPath2)" cx="1389" cy="407" stroke="none"/>
    </g>
    <g text-rendering="geometricPrecision" stroke-miterlimit="1.45" shape-rendering="geometricPrecision" transform="matrix(1,0,0,1,-1222,-390)" stroke-linecap="butt">
      <circle fill="none" r="1" clip-path="url(#clipPath2)" cx="1389" cy="407"/>
    </g>
    <g fill="rgb(255,204,0)" text-rendering="geometricPrecision" shape-rendering="geometricPrecision" transform="matrix(1,0,0,1,-1222,-390)" stroke="rgb(255,204,0)">
      <circle r="1" clip-path="url(#clipPath2)" cx="1239" cy="506" stroke="none"/>
    </g>
    <g text-rendering="geometricPrecision" stroke-miterlimit="1.45" shape-rendering="geometricPrecision" transform="matrix(1,0,0,1,-1222,-390)" stroke-linecap="butt">
      <circle fill="none" r="1" clip-path="url(#clipPath2)" cx="1239" cy="506"/>
    </g>
    <g fill="rgb(255,204,0)" text-rendering="geometricPrecision" shape-rendering="geometricPrecision" transform="matrix(1,0,0,1,-1222,-390)" stroke="rgb(255,204,0)">
      <circle r="1" clip-path="url(#clipPath2)" cx="1522" cy="536" stroke="none"/>
    </g>
    <g text-rendering="geometricPrecision" stroke-miterlimit="1.45" shape-rendering="geometricPrecision" transform="matrix(1,0,0,1,-1222,-390)" stroke-linecap="butt">
      <circle fill="none" r="1" clip-path="url(#clipPath2)" cx="1522" cy="536"/>
    </g>
    <g fill="rgb(255,204,0)" text-rendering="geometricPrecision" shape-rendering="geometricPrecision" transform="matrix(1,0,0,1,-1222,-390)" stroke="rgb(255,204,0)">
      <circle r="1" clip-path="url(#clipPath2)" cx="1285" cy="661" stroke="none"/>
    </g>
    <g text-rendering="geometricPrecision" stroke-miterlimit="1.45" shape-rendering="geometricPrecision" transform="matrix(1,0,0,1,-1222,-390)" stroke-linecap="butt">
      <circle fill="none" r="1" clip-path="url(#clipPath2)" cx="1285" cy="661"/>
    </g>
    <g fill="rgb(255,204,0)" text-rendering="geometricPrecision" shape-rendering="geometricPrecision" transform="matrix(1,0,0,1,-1222,-390)" stroke="rgb(255,204,0)">
      <circle r="1" clip-path="url(#clipPath2)" cx="1450" cy="661" stroke="none"/>
    </g>
    <g text-rendering="geometricPrecision" stroke-miterlimit="1.45" shape-rendering="geometricPrecision" transform="matrix(1,0,0,1,-1222,-390)" stroke-linecap="butt">
      <circle fill="none" r="1" clip-path="url(#clipPath2)" cx="1450" cy="661"/>
      <path fill="none" d="M1239.8346 505.4492 L1388.1654 407.5508" stroke-width="2" clip-path="url(#clipPath2)"/>
      <path fill="none" d="M1389.7178 407.6962 L1521.2822 535.3038" stroke-width="2" clip-path="url(#clipPath2)"/>
      <path fill="none" d="M1239.9944 506.1054 L1521.0056 535.8946" stroke-width="2" clip-path="url(#clipPath2)"/>
      <path fill="none" d="M1521.1155 536.4665 L1285.8845 660.5335" stroke-width="2" clip-path="url(#clipPath2)"/>
      <path fill="none" d="M1284.7155 660.0413 L1239.2845 506.9587" stroke-width="2" clip-path="url(#clipPath2)"/>
      <path fill="none" d="M1285.3789 660.0746 L1388.6211 407.9254" stroke-width="2" clip-path="url(#clipPath2)"/>
      <path fill="none" d="M1521.5009 536.8665 L1450.4991 660.1335" stroke-width="2" clip-path="url(#clipPath2)"/>
      <path fill="none" d="M1239.8059 506.592 L1449.1941 660.408" stroke-width="2" clip-path="url(#clipPath2)"/>
      <path fill="none" d="M1389.2335 407.9724 L1449.7665 660.0276" stroke-width="2" clip-path="url(#clipPath2)"/>
      <path fill="none" d="M1449 661 L1286 661" stroke-width="2" clip-path="url(#clipPath2)"/>
    </g>
  </g>
</svg>
