<?xml version="1.0" encoding="UTF-8"?><svg xmlns="http://www.w3.org/2000/svg" xmlns:xlink="http://www.w3.org/1999/xlink" fill-opacity="1" color-rendering="auto" color-interpolation="auto" text-rendering="auto" stroke="black" stroke-linecap="square" width="343" stroke-miterlimit="10" shape-rendering="auto" stroke-opacity="1" fill="black" stroke-dasharray="none" font-weight="normal" stroke-width="1" height="314" font-family="'Dialog'" font-style="normal" stroke-linejoin="miter" font-size="12px" stroke-dashoffset="0" image-rendering="auto">
  <!--Generated by ySVG 2.6-->
  <defs id="genericDefs"/>
  <g>
    <defs id="defs1">
      <clipPath clipPathUnits="userSpaceOnUse" id="clipPath1">
        <path d="M0 0 L343 0 L343 314 L0 314 L0 0 Z"/>
      </clipPath>
      <clipPath clipPathUnits="userSpaceOnUse" id="clipPath2">
        <path d="M1209 377 L1552 377 L1552 691 L1209 691 L1209 377 Z"/>
      </clipPath>
    </defs>
    <g fill="white" text-rendering="geometricPrecision" shape-rendering="geometricPrecision" transform="translate(-1209,-377)" stroke="white">
      <rect x="1209" width="343" height="314" y="377" clip-path="url(#clipPath2)" stroke="none"/>
    </g>
    <g text-rendering="geometricPrecision" stroke-miterlimit="1.45" shape-rendering="geometricPrecision" transform="matrix(1,0,0,1,-1209,-377)" stroke-linecap="butt">
      <circle fill="none" r="15" clip-path="url(#clipPath2)" cx="1389" cy="407"/>
      <circle fill="none" r="15" clip-path="url(#clipPath2)" cx="1239" cy="506"/>
      <circle fill="none" r="15" clip-path="url(#clipPath2)" cx="1522" cy="536"/>
      <circle fill="none" r="15" clip-path="url(#clipPath2)" cx="1285" cy="661"/>
      <circle fill="none" r="15" clip-path="url(#clipPath2)" cx="1450" cy="661"/>
      <circle fill="none" r="15" clip-path="url(#clipPath2)" cx="1343" cy="517"/>
      <circle fill="none" r="15" clip-path="url(#clipPath2)" cx="1324" cy="571"/>
      <circle fill="none" r="15" clip-path="url(#clipPath2)" cx="1416" cy="524"/>
      <circle fill="none" r="15" clip-path="url(#clipPath2)" cx="1429" cy="584"/>
      <circle fill="none" r="15" clip-path="url(#clipPath2)" cx="1384" cy="614"/>
      <path fill="none" d="M1251.5192 497.7374 L1376.4808 415.2626" stroke-width="2" clip-path="url(#clipPath2)"/>
      <path fill="none" d="M1399.7673 417.4435 L1511.2327 525.5565" stroke-width="2" clip-path="url(#clipPath2)"/>
      <path fill="none" d="M1280.7323 646.6199 L1243.2677 520.3801" stroke-width="2" clip-path="url(#clipPath2)"/>
      <path fill="none" d="M1514.5132 548.998 L1457.4868 648.002" stroke-width="2" clip-path="url(#clipPath2)"/>
      <path fill="none" d="M1435 661 L1300 661" stroke-width="2" clip-path="url(#clipPath2)"/>
      <path fill="none" d="M1253.9167 507.5777 L1328.0833 515.4222" stroke-width="2" clip-path="url(#clipPath2)"/>
      <path fill="none" d="M1349.5029 503.4639 L1383.3163 420.8815" stroke-width="2" clip-path="url(#clipPath2)"/>
      <path fill="none" d="M1290.6837 647.1185 L1316.5187 584.0217" stroke-width="2" clip-path="url(#clipPath2)"/>
      <path fill="none" d="M1327.7971 556.4763 L1338.1417 531.2115" stroke-width="2" clip-path="url(#clipPath2)"/>
      <path fill="none" d="M1312.0846 561.8882 L1250.9154 515.1118" stroke-width="2" clip-path="url(#clipPath2)"/>
      <path fill="none" d="M1392.5028 421.5853 L1413.5463 509.209" stroke-width="2" clip-path="url(#clipPath2)"/>
      <path fill="none" d="M1357.9315 518.4318 L1401.0685 522.5682" stroke-width="2" clip-path="url(#clipPath2)"/>
      <path fill="none" d="M1430.9048 525.6873 L1507.0952 534.3127" stroke-width="2" clip-path="url(#clipPath2)"/>
      <path fill="none" d="M1420.5306 538.2917 L1427.9094 569.0161" stroke-width="2" clip-path="url(#clipPath2)"/>
      <path fill="none" d="M1434.8186 597.7855 L1446.4972 646.4147" stroke-width="2" clip-path="url(#clipPath2)"/>
      <path fill="none" d="M1442.3293 577.1204 L1508.6707 542.8796" stroke-width="2" clip-path="url(#clipPath2)"/>
      <path fill="none" d="M1298.5505 654.567 L1370.4495 620.433" stroke-width="2" clip-path="url(#clipPath2)"/>
      <path fill="none" d="M1396.7269 621.8657 L1437.9113 652.1196" stroke-width="2" clip-path="url(#clipPath2)"/>
      <path fill="none" d="M1396.4807 605.6795 L1416.5193 592.3205" stroke-width="2" clip-path="url(#clipPath2)"/>
      <path fill="none" d="M1371.8077 605.2622 L1336.1923 579.7378" stroke-width="2" clip-path="url(#clipPath2)"/>
    </g>
  </g>
</svg>
